<svg xmlns="http://www.w3.org/2000/svg" viewBox="0 0 48 56" fill="none" stroke="#231044" stroke-width="3" stroke-linecap="square">
<path d="M22.5,46.62c-1.65,3.57-9.51,7.15-9.51,7.15s-2.35-8.33-0.7-11.9s5.25-2.18,6.87-1.43
	C20.78,41.19,24.15,43.05,22.5,46.62z"/>
<path d="M27.2,36.41L36,25.47c5.39-6.72,5.73-16.18,0.82-23.26c-8.58,0.86-15.57,7.25-17.18,15.71L17.01,31.7"/>
<path stroke-linecap="round" d="M36.46,25.52c0,0,2.27,6.04,0.51,9.85c-1.76,3.81-3.75,8.15-3.75,8.15l-6.02-7.11L17.01,31.7l-9.3,0.04
	c0,0,1.99-4.31,3.75-8.12s7.85-6.01,7.85-6.01"/>
<path d="M34.87,13.51c0.8,2.18-0.32,4.61-2.5,5.41s-4.61-0.32-5.41-2.5s0.32-4.61,2.5-5.41
	C31.64,10.21,34.07,11.33,34.87,13.51z"/>
</svg>
