<?xml version="1.0" encoding="UTF-8"?> <svg xmlns="http://www.w3.org/2000/svg" width="483" height="120" viewBox="0 0 483 120" fill="none"> <path d="M77.7424 71.8867C74.1984 75.4019 69.204 64.1394 67.7776 60.6539C67.6055 60.2333 67.7517 59.761 68.1041 59.474C68.272 59.3372 68.4368 59.1967 68.5983 59.0527C69.0484 58.6511 69.752 58.6788 70.1393 59.1414C71.759 61.0761 74.9832 64.7094 77.9891 66.8086C79.2724 67.7048 79.9623 69.6856 78.8507 70.7876L77.7424 71.8867Z" fill="url(#paint0_radial)"></path> <path d="M87.9465 62.5949L86.9847 64.6254C84.3845 70.1146 74.7533 60.5324 71.4477 56.994C71.1313 56.6553 71.1014 56.1472 71.3412 55.7505C71.6177 55.293 71.8694 54.8189 72.0944 54.3299C72.3628 53.7465 73.0817 53.4966 73.6304 53.8302C76.2743 55.4373 81.4686 58.3267 86.0219 59.257C87.5046 59.5599 88.5944 61.2272 87.9465 62.5949Z" fill="url(#paint1_radial)"></path> <path d="M93.5013 50.4095L93.2677 53.0373C92.6589 59.8861 78.867 53.3692 73.8634 50.7266C73.493 50.531 73.2978 50.126 73.3375 49.709C73.3805 49.2562 73.4025 48.7973 73.4025 48.3333C73.4025 47.063 73.2376 45.8313 72.928 44.6583C72.7668 44.0475 73.1467 43.4101 73.7732 43.3288C77.8261 42.8024 86.4435 41.7539 91.3613 39.0003C92.7841 38.2036 95.0863 38.8101 95.5211 40.3819L96.2051 42.8549C97.0294 45.835 94.7728 47.3273 91.3584 47.9854C92.5608 48.1601 93.6112 49.1727 93.5013 50.4095Z" fill="url(#paint2_radial)"></path> <path d="M91.4033 24.2542L93.9644 27.925C99.1444 35.3496 78.187 40.019 72.261 41.1736C71.8407 41.2554 71.4302 41.0528 71.202 40.6904C70.8676 40.1595 70.4994 39.652 70.1004 39.171C69.6522 38.6307 69.8018 37.7851 70.4344 37.4809C74.3577 35.595 83.6783 30.7279 88.0252 25.3504C89.0217 24.1176 90.4963 22.9541 91.4033 24.2542Z" fill="url(#paint3_radial)"></path> <path d="M81.5675 12.6146L84.6455 14.7558C92.9221 20.5134 73.0508 33.0296 67.7379 36.1908C67.404 36.3895 66.9934 36.3669 66.6642 36.1603C64.4553 34.7743 61.8422 33.9728 59.042 33.9728C58.9906 33.9728 58.9391 33.9731 58.8878 33.9736C58.3084 33.9797 57.8104 33.5334 57.7985 32.9541C57.6731 26.8982 57.0959 12.2763 54.2916 4.83012C53.6748 3.19245 54.8137 0.553798 56.5555 0.385234L60.1755 0.0349143C64.7659 -0.409333 66.2481 3.44558 66.2004 8.73946C66.2536 6.88642 68.837 4.30217 70.6297 4.77395L72.921 5.37691C78.1262 6.64693 79.1931 9.81216 78.1262 13.6198C78.8108 12.4346 80.4279 11.8218 81.5675 12.6146Z" fill="url(#paint4_radial)"></path> <path d="M41.0823 0.636413L36.5135 2.76852C35.0602 3.4467 34.9023 5.61942 36.0298 6.75977C42.9149 13.7228 48.516 29.6241 50.3589 35.2897C50.5687 35.9348 51.3427 36.1901 51.9318 35.8537C52.6034 35.4703 53.3089 35.1395 54.0427 34.8669C54.4621 34.7112 54.7506 34.3211 54.7358 33.8741C54.4783 26.0978 52.7196 -4.79434 41.0823 0.636413Z" fill="url(#paint5_radial)"></path> <path d="M23.0447 8.96349L19.7522 12.3232C18.5308 13.5694 19.6741 16.3023 21.242 17.0684C16.5859 14.903 12.5681 15.2767 10.4925 19.6959L8.38187 24.1894C7.63221 25.7855 9.33823 28.0098 11.0917 28.1966C21.2396 29.2775 38.6267 39.2424 44.554 42.7142C45.0905 43.0285 45.7792 42.7821 46.0442 42.2196C46.584 41.074 47.2707 40.0114 48.0801 39.0559C48.3241 38.7679 48.4091 38.3833 48.2752 38.0304C45.2742 30.1231 32.6776 -0.865995 23.0447 8.96349Z" fill="url(#paint6_radial)"></path> <path d="M0.797595 39.1779C-0.0179197 48.0321 0.554646 44.4392 0.474254 46.588C0.41028 48.2981 2.49664 49.6472 4.13851 49.1647C14.9269 45.9946 36.4998 49.3863 43.4948 50.6255C44.1836 50.7475 44.7775 50.1441 44.7241 49.4466C44.6959 49.0792 44.6815 48.7079 44.6815 48.3333C44.6815 47.915 44.6994 47.5009 44.7345 47.0917C44.7692 46.6859 44.5856 46.2952 44.2305 46.0957C36.5634 41.7863 2.24835 23.4269 0.797595 39.1779Z" fill="url(#paint7_radial)"></path> <path d="M0.909171 63.1769L2.71871 69.8119C3.13984 71.356 5.55116 73.4011 6.77767 72.3728C3.64636 75.3946 2.50799 78.6791 5.18095 82.5215L9.34223 88.5034C10.2732 89.8417 12.4428 89.4923 13.2032 88.0502C11.5455 91.9694 11.7742 95.7492 15.0648 99.0099C15.1023 99.0471 15.1499 99.0866 15.193 99.117L21.5388 103.586C22.8436 104.505 24.7104 103.573 24.9561 101.996C27.4336 86.0941 44.4486 66.8429 49.9986 60.9199C50.4167 60.4737 50.3356 59.7708 49.8655 59.3798C48.2862 58.0664 46.9931 56.4208 46.0934 54.5503C45.9457 54.2433 45.6836 54.0234 45.3471 53.9704C35.1844 52.3675 -3.4147 47.3227 0.909171 63.1769Z" fill="url(#paint8_radial)"></path> <path d="M46.5698 113.745C43.2939 97.5123 55.5469 67.3284 57.3264 63.0546C57.4743 62.6994 57.3172 62.3794 56.935 62.3361C56.0441 62.2352 55.1278 62.1109 54.293 61.8671C53.8755 61.7452 53.4164 61.8508 53.1386 62.1854C47.3196 69.1942 15.2753 109.05 34.702 114.127C44.6619 116.73 38.7708 115.317 43.7737 116.664C45.3876 117.098 46.9004 115.383 46.5698 113.745Z" fill="url(#paint9_radial)"></path> <path d="M70.4146 119.069L62.1533 119.932C41.8971 122.048 56.5491 74.3583 60.2385 63.2164C60.3626 62.8415 60.6884 62.6059 61.0793 62.5503C62.1618 62.3966 63.2054 62.1222 64.1961 61.7411C64.786 61.5142 65.4628 61.8173 65.6311 62.4265C67.7088 69.9468 74.8898 91.7076 92.4081 110.011C93.6409 111.299 93.0383 114.819 91.4194 115.567C89.6906 116.365 87.3 117.473 83.9941 119.011C79.1357 121.271 75.3909 119.436 72.5044 115.265C73.4203 116.691 72.1001 118.893 70.4146 119.069Z" fill="url(#paint10_radial)"></path> <ellipse cx="59.0304" cy="48.3334" rx="10.0934" ry="10.0934" transform="rotate(90 59.0304 48.3334)" fill="url(#paint11_linear)"></ellipse> <path d="M177.86 25.0169H179.581L180.134 39.1513H177.86C176.959 35.546 175.218 32.7191 172.637 30.6707C170.056 28.6222 166.942 27.598 163.296 27.598C160.797 27.598 158.564 28.0896 156.597 29.0729C154.631 30.0561 152.972 31.4696 151.62 33.3132C150.268 35.1568 149.223 37.4101 148.485 40.0732C147.789 42.7362 147.441 45.7474 147.441 49.1069C147.441 55.703 148.813 60.7832 151.558 64.3476C154.303 67.8709 158.277 69.6326 163.48 69.6326C171.387 69.6326 176.468 65.4332 178.721 57.0345H181.24V72.3366H179.09L177.676 67.4817C173.374 71.128 168.171 72.9511 162.067 72.9511C158.584 72.9511 155.43 72.3981 152.603 71.2919C149.817 70.1857 147.42 68.6289 145.413 66.6214C143.446 64.5729 141.91 62.0942 140.804 59.1854C139.738 56.2766 139.206 53.04 139.206 49.4756C139.206 45.7474 139.779 42.347 140.927 39.2743C142.074 36.2015 143.671 33.559 145.72 31.3467C147.809 29.1343 150.288 27.4341 153.156 26.246C156.065 25.0169 159.26 24.4023 162.743 24.4023C165.201 24.4023 167.516 24.7506 169.687 25.4471C171.858 26.1435 174.214 27.2702 176.754 28.827L177.86 25.0169Z" fill="#393D44"></path> <path d="M226.763 24.4023C230.368 24.4023 233.728 25.0374 236.842 26.3074C239.955 27.5775 242.659 29.3187 244.954 31.531C247.248 33.7434 249.051 36.3449 250.362 39.3357C251.673 42.3265 252.328 45.5631 252.328 49.0455C252.328 52.364 251.652 55.4777 250.3 58.3865C248.989 61.2953 247.186 63.8354 244.892 66.0068C242.598 68.1372 239.894 69.8375 236.78 71.1075C233.666 72.3366 230.327 72.9511 226.763 72.9511C223.199 72.9511 219.86 72.3366 216.746 71.1075C213.632 69.8375 210.928 68.1372 208.634 66.0068C206.34 63.8354 204.517 61.2953 203.165 58.3865C201.854 55.4777 201.198 52.364 201.198 49.0455C201.198 45.5631 201.854 42.3265 203.165 39.3357C204.476 36.3449 206.278 33.7434 208.573 31.531C210.867 29.3187 213.571 27.5775 216.685 26.3074C219.798 25.0374 223.158 24.4023 226.763 24.4023ZM226.763 69.5712C229.467 69.5712 231.884 69.1 234.015 68.1577C236.186 67.2154 238.03 65.8634 239.546 64.1017C241.102 62.3401 242.291 60.2096 243.11 57.7105C243.929 55.1704 244.339 52.3435 244.339 49.2298C244.339 45.9523 243.929 43.0025 243.11 40.3804C242.291 37.7174 241.123 35.4641 239.607 33.6205C238.091 31.7359 236.248 30.3019 234.076 29.3187C231.905 28.2944 229.467 27.7823 226.763 27.7823C224.059 27.7823 221.621 28.2944 219.45 29.3187C217.279 30.3019 215.435 31.7359 213.919 33.6205C212.403 35.4641 211.236 37.7174 210.416 40.3804C209.597 43.0025 209.187 45.9523 209.187 49.2298C209.187 52.3435 209.597 55.1704 210.416 57.7105C211.236 60.2096 212.403 62.3401 213.919 64.1017C215.435 65.8634 217.279 67.2154 219.45 68.1577C221.621 69.1 224.059 69.5712 226.763 69.5712Z" fill="#393D44"></path> <path d="M310.623 72.9511L281.432 34.4808H281.187V60.7218C281.187 62.7702 281.248 64.3885 281.371 65.5766C281.535 66.7648 281.822 67.6866 282.231 68.3421C282.682 68.9976 283.296 69.4278 284.075 69.6326C284.894 69.8375 285.96 69.9604 287.271 70.0013V72.3366H270.739V70.0013C272.173 69.9604 273.32 69.8375 274.181 69.6326C275.082 69.3868 275.779 68.9566 276.27 68.3421C276.762 67.7275 277.09 66.8672 277.254 65.761C277.417 64.6139 277.499 63.0775 277.499 61.1519V36.2015C277.499 34.4808 277.417 33.0674 277.254 31.9612C277.131 30.8141 276.844 29.9127 276.393 29.2572C275.983 28.6017 275.369 28.151 274.55 27.9052C273.73 27.6184 272.665 27.4341 271.354 27.3521V25.0169H283.522L310.377 60.8447H310.623V36.6317C310.623 34.6242 310.541 33.0264 310.377 31.8383C310.254 30.6092 309.968 29.6669 309.517 29.0114C309.107 28.3559 308.493 27.9257 307.673 27.7209C306.895 27.516 305.85 27.3931 304.539 27.3521V25.0169H321.07V27.3521C319.636 27.3931 318.469 27.5365 317.567 27.7823C316.707 27.9872 316.031 28.3969 315.539 29.0114C315.048 29.6259 314.72 30.5068 314.556 31.6539C314.392 32.8011 314.31 34.317 314.31 36.2015V72.9511H310.623Z" fill="#393D44"></path> <path d="M352.31 62.5654C352.31 64.1222 352.392 65.3923 352.556 66.3755C352.761 67.3178 353.171 68.0553 353.785 68.5879C354.4 69.0795 355.26 69.4278 356.366 69.6326C357.513 69.8375 359.009 69.9604 360.852 70.0013V72.3366H339.098V70.0013C340.531 69.9604 341.679 69.8375 342.539 69.6326C343.44 69.4278 344.137 69.0795 344.628 68.5879C345.12 68.0963 345.448 67.3998 345.612 66.4985C345.776 65.5971 345.857 64.4295 345.857 62.9956V34.3579C345.857 32.924 345.776 31.7768 345.612 30.9165C345.489 30.0152 345.202 29.3187 344.751 28.827C344.342 28.2944 343.727 27.9462 342.908 27.7823C342.088 27.5775 341.023 27.4341 339.712 27.3521V25.0169H375.233L375.909 36.7546H373.758C373.512 34.9929 373.123 33.559 372.59 32.4528C372.057 31.3057 371.3 30.4044 370.316 29.7489C369.374 29.0933 368.165 28.6427 366.69 28.3969C365.216 28.1101 363.372 27.9667 361.16 27.9667H353.355C352.658 27.9667 352.31 28.3149 352.31 29.0114V47.5706C354.277 47.5706 355.956 47.4681 357.349 47.2633C358.783 47.0175 359.951 46.6078 360.852 46.0342C361.795 45.4606 362.512 44.6822 363.003 43.699C363.495 42.7157 363.802 41.4456 363.925 39.8888H366.076V57.8949H363.925C363.72 56.338 363.392 55.0475 362.942 54.0233C362.491 52.999 361.815 52.2001 360.914 51.6265C360.053 51.053 358.927 50.6433 357.534 50.3975C356.141 50.1516 354.4 50.0287 352.31 50.0287V62.5654Z" fill="#393D44"></path> <path d="M406.385 60.7218C406.385 62.7702 406.467 64.3885 406.631 65.5766C406.795 66.7648 407.102 67.6866 407.553 68.3421C408.044 68.9976 408.72 69.4278 409.581 69.6326C410.482 69.8375 411.65 69.9604 413.084 70.0013V72.3366H393.172V70.0013C394.606 69.9604 395.753 69.8375 396.614 69.6326C397.515 69.3868 398.212 68.9566 398.703 68.3421C399.195 67.7275 399.523 66.8672 399.687 65.761C399.85 64.6139 399.932 63.0775 399.932 61.1519V36.2015C399.932 34.4808 399.85 33.0674 399.687 31.9612C399.564 30.8141 399.277 29.9127 398.826 29.2572C398.417 28.6017 397.802 28.151 396.983 27.9052C396.163 27.6184 395.098 27.4341 393.787 27.3521V25.0169H412.469V27.3521C411.158 27.3931 410.093 27.557 409.273 27.8438C408.495 28.1306 407.88 28.6222 407.43 29.3187C407.02 29.9742 406.733 30.896 406.569 32.0841C406.447 33.2722 406.385 34.7881 406.385 36.6317V60.7218Z" fill="#393D44"></path> <path d="M457.046 24.4023C460.651 24.4023 464.011 25.0374 467.124 26.3074C470.238 27.5775 472.942 29.3187 475.236 31.531C477.531 33.7434 479.333 36.3449 480.644 39.3357C481.955 42.3265 482.611 45.5631 482.611 49.0455C482.611 52.364 481.935 55.4777 480.583 58.3865C479.272 61.2953 477.469 63.8354 475.175 66.0068C472.881 68.1372 470.177 69.8375 467.063 71.1075C463.949 72.3366 460.61 72.9511 457.046 72.9511C453.482 72.9511 450.142 72.3366 447.029 71.1075C443.915 69.8375 441.211 68.1372 438.917 66.0068C436.623 63.8354 434.799 61.2953 433.447 58.3865C432.136 55.4777 431.481 52.364 431.481 49.0455C431.481 45.5631 432.136 42.3265 433.447 39.3357C434.758 36.3449 436.561 33.7434 438.855 31.531C441.15 29.3187 443.854 27.5775 446.967 26.3074C450.081 25.0374 453.441 24.4023 457.046 24.4023ZM457.046 69.5712C459.75 69.5712 462.167 69.1 464.297 68.1577C466.469 67.2154 468.312 65.8634 469.828 64.1017C471.385 62.3401 472.573 60.2096 473.393 57.7105C474.212 55.1704 474.622 52.3435 474.622 49.2298C474.622 45.9523 474.212 43.0025 473.393 40.3804C472.573 37.7174 471.406 35.4641 469.89 33.6205C468.374 31.7359 466.53 30.3019 464.359 29.3187C462.188 28.2944 459.75 27.7823 457.046 27.7823C454.342 27.7823 451.904 28.2944 449.733 29.3187C447.561 30.3019 445.718 31.7359 444.202 33.6205C442.686 35.4641 441.518 37.7174 440.699 40.3804C439.88 43.0025 439.47 45.9523 439.47 49.2298C439.47 52.3435 439.88 55.1704 440.699 57.7105C441.518 60.2096 442.686 62.3401 444.202 64.1017C445.718 65.8634 447.561 67.2154 449.733 68.1577C451.904 69.1 454.342 69.5712 457.046 69.5712Z" fill="#393D44"></path> <defs> <radialGradient id="paint0_radial" cx="0" cy="0" r="1" gradientUnits="userSpaceOnUse" gradientTransform="translate(58.9268 48.3312) rotate(60.2852) scale(75.5496 55.218)"> <stop offset="0.177083" stop-color="#00FFF0"></stop> <stop offset="1" stop-color="#7000FF"></stop> </radialGradient> <radialGradient id="paint1_radial" cx="0" cy="0" r="1" gradientUnits="userSpaceOnUse" gradientTransform="translate(58.9268 48.3312) rotate(60.2852) scale(75.5496 55.218)"> <stop offset="0.177083" stop-color="#00FFF0"></stop> <stop offset="1" stop-color="#7000FF"></stop> </radialGradient> <radialGradient id="paint2_radial" cx="0" cy="0" r="1" gradientUnits="userSpaceOnUse" gradientTransform="translate(58.9268 48.3312) rotate(60.2852) scale(75.5496 55.218)"> <stop offset="0.177083" stop-color="#00FFF0"></stop> <stop offset="1" stop-color="#7000FF"></stop> </radialGradient> <radialGradient id="paint3_radial" cx="0" cy="0" r="1" gradientUnits="userSpaceOnUse" gradientTransform="translate(58.9268 48.3312) rotate(60.2852) scale(75.5496 55.218)"> <stop offset="0.177083" stop-color="#00FFF0"></stop> <stop offset="1" stop-color="#7000FF"></stop> </radialGradient> <radialGradient id="paint4_radial" cx="0" cy="0" r="1" gradientUnits="userSpaceOnUse" gradientTransform="translate(58.9268 48.3312) rotate(60.2852) scale(75.5496 55.218)"> <stop offset="0.177083" stop-color="#00FFF0"></stop> <stop offset="1" stop-color="#7000FF"></stop> </radialGradient> <radialGradient id="paint5_radial" cx="0" cy="0" r="1" gradientUnits="userSpaceOnUse" gradientTransform="translate(58.9268 48.3312) rotate(60.2852) scale(75.5496 55.218)"> <stop offset="0.177083" stop-color="#00FFF0"></stop> <stop offset="1" stop-color="#7000FF"></stop> </radialGradient> <radialGradient id="paint6_radial" cx="0" cy="0" r="1" gradientUnits="userSpaceOnUse" gradientTransform="translate(58.9268 48.3312) rotate(60.2852) scale(75.5496 55.218)"> <stop offset="0.177083" stop-color="#00FFF0"></stop> <stop offset="1" stop-color="#7000FF"></stop> </radialGradient> <radialGradient id="paint7_radial" cx="0" cy="0" r="1" gradientUnits="userSpaceOnUse" gradientTransform="translate(58.9268 48.3312) rotate(60.2852) scale(75.5496 55.218)"> <stop offset="0.177083" stop-color="#00FFF0"></stop> <stop offset="1" stop-color="#7000FF"></stop> </radialGradient> <radialGradient id="paint8_radial" cx="0" cy="0" r="1" gradientUnits="userSpaceOnUse" gradientTransform="translate(58.9268 48.3312) rotate(60.2852) scale(75.5496 55.218)"> <stop offset="0.177083" stop-color="#00FFF0"></stop> <stop offset="1" stop-color="#7000FF"></stop> </radialGradient> <radialGradient id="paint9_radial" cx="0" cy="0" r="1" gradientUnits="userSpaceOnUse" gradientTransform="translate(58.9268 48.3312) rotate(60.2852) scale(75.5496 55.218)"> <stop offset="0.177083" stop-color="#00FFF0"></stop> <stop offset="1" stop-color="#7000FF"></stop> </radialGradient> <radialGradient id="paint10_radial" cx="0" cy="0" r="1" gradientUnits="userSpaceOnUse" gradientTransform="translate(58.9268 48.3312) rotate(60.2852) scale(75.5496 55.218)"> <stop offset="0.177083" stop-color="#00FFF0"></stop> <stop offset="1" stop-color="#7000FF"></stop> </radialGradient> <linearGradient id="paint11_linear" x1="66.662" y1="39.3888" x2="52.2194" y2="57.442" gradientUnits="userSpaceOnUse"> <stop stop-color="#FCECB2"></stop> <stop offset="0.265625" stop-color="#FF8B89"></stop> <stop offset="0.520833" stop-color="#FC8ADC"></stop> <stop offset="0.765625" stop-color="#7954FF"></stop> <stop offset="1" stop-color="#70BCFF"></stop> </linearGradient> </defs> </svg> 