<svg xmlns="http://www.w3.org/2000/svg" viewBox="0 0 132 94" fill="#fff">
	<path d="M34.41,0C24.26,0,18.6,7.01,18.6,20.67c0,13.87,5.71,20.36,15.81,20.36c9.77,0,15.66-6.59,15.66-20.36
		C50.07,7.12,45.05,0,34.41,0z M34.41,35.25c-5.4,0-8.41-4.38-8.41-14.58c0-10.64,3.17-14.95,8.41-14.95c5.4,0,8.7,4.58,8.7,14.95
		C43.11,30.98,39.65,35.25,34.41,35.25z"/>
	<path d="M97.74,0C87.59,0,81.92,7.01,81.92,20.67c0,13.87,5.72,20.36,15.82,20.36c9.77,0,15.65-6.59,15.65-20.36
		C113.39,7.12,108.38,0,97.74,0z M97.74,35.25c-5.4,0-8.86-4.38-8.86-14.58c0-10.64,3.62-14.95,8.86-14.95
		c5.4,0,8.69,4.58,8.69,14.95C106.43,30.98,102.98,35.25,97.74,35.25z"/>
	<path d="M72.17,52.97c-10.15,0-15.82,7.01-15.82,20.67C56.35,87.51,62.07,94,72.17,94c9.77,0,15.65-6.59,15.65-20.36
		C87.82,60.09,82.81,52.97,72.17,52.97z M72.17,88.22c-5.4,0-8.86-4.38-8.86-14.58c0-10.64,3.62-14.95,8.86-14.95
		c5.4,0,8.69,4.58,8.69,14.95C80.86,83.95,77.41,88.22,72.17,88.22z"/>
	<polygon points="64.07,40.33 70.87,40.33 70.87,0.9 57.05,0.9 55.97,6.91 64.07,6.91 	"/>
	<polygon points="38.5,93.3 45.3,93.3 45.3,53.88 31.48,53.88 30.4,59.8 38.5,59.88 	"/>
	<polygon points="101.82,93.3 108.62,93.3 108.62,53.88 94.8,53.88 93.72,59.88 101.82,59.88 	"/>
</svg>
