<svg width="88" height="98" viewBox="0 0 88 98" fill="none" xmlns="http://www.w3.org/2000/svg">
<path fill-rule="evenodd" clip-rule="evenodd" d="M48.1395 5.69767C48.1395 7.73984 46.484 9.39535 44.4419 9.39535C42.3997 9.39535 40.7442 7.73984 40.7442 5.69767C40.7442 3.65551 42.3997 2 44.4419 2C46.484 2 48.1395 3.65551 48.1395 5.69767ZM48.6746 9.51185C47.8436 10.4335 46.7158 11.0823 45.4419 11.3079V25.5244L64.6024 36.5868L76.8642 29.7201C76.5333 28.9981 76.3488 28.195 76.3488 27.3488C76.3488 26.6776 76.4649 26.0335 76.6781 25.4354L48.6746 9.51185ZM65.3786 38.4443V60.1254L71.4247 63.5112L77.6666 67.0067C78.6259 65.8552 80.0307 65.0879 81.6163 64.9695L81.6163 33.0305C80.2108 32.9256 78.9474 32.3108 78.0105 31.3705L65.3786 38.4443ZM64.1015 61.7025L45.4419 72.4756V86.6921C47.0556 86.9778 48.4347 87.9427 49.2733 89.2809L76.9944 73.2879C76.582 72.4995 76.3488 71.6026 76.3488 70.6512C76.3488 69.9823 76.4641 69.3404 76.6758 68.7441L70.4474 65.2562L64.1015 61.7025ZM43.4419 72.2302L24.2166 61.1304L10.9903 68.5371C11.2516 69.1908 11.3953 69.9042 11.3953 70.6512C11.3953 71.3269 11.2777 71.9751 11.0619 72.5764L39.6133 89.2763C40.4521 87.9405 41.83 86.9775 43.4419 86.6921V72.2302ZM23.9302 58.9985V38.4317L16.8893 34.4888L10.2526 30.7722C9.40343 31.9003 8.14489 32.7028 6.69769 32.959L6.69767 65.041C7.97207 65.2666 9.10017 65.9158 9.93128 66.8379L23.9302 58.9985ZM24.7175 36.5803L43.6676 25.6395H43.4419V11.3079C41.9262 11.0395 40.6174 10.172 39.7691 8.95879L11.1073 25.5552C11.2942 26.1192 11.3953 26.7222 11.3953 27.3488C11.3953 27.918 11.3119 28.4676 11.1566 28.9862L17.8665 32.7438L24.7175 36.5803ZM0 27.3488C0 30.1544 2.02779 32.4864 4.69769 32.959L4.69768 65.041C2.02778 65.5136 0 67.8456 0 70.6512C0 73.7979 2.55094 76.3488 5.69767 76.3488C7.45133 76.3488 9.01995 75.5566 10.0651 74.3105L38.8602 91.1528C38.7841 91.5241 38.7442 91.9086 38.7442 92.3023C38.7442 95.4491 41.2951 98 44.4419 98C47.5886 98 50.1395 95.4491 50.1395 92.3023C50.1395 91.9099 50.0999 91.5267 50.0243 91.1566L78.2315 74.8832C79.2415 75.7942 80.5792 76.3488 82.0465 76.3488C85.1933 76.3488 87.7442 73.7979 87.7442 70.6512C87.7442 68.0489 85.9996 65.8541 83.6163 65.1725L83.6163 32.8275C85.9996 32.1459 87.7442 29.9511 87.7442 27.3488C87.7442 24.2021 85.1933 21.6512 82.0465 21.6512C80.2883 21.6512 78.7161 22.4475 77.671 23.6992L49.7338 7.8134C49.9955 7.15927 50.1395 6.44529 50.1395 5.69767C50.1395 2.55094 47.5886 0 44.4419 0C41.2951 0 38.7442 2.55094 38.7442 5.69767C38.7442 6.19427 38.8077 6.67604 38.9271 7.13527L10.1529 23.7968C9.10887 22.4891 7.50112 21.6512 5.69767 21.6512C2.55094 21.6512 0 24.2021 0 27.3488ZM85.7442 27.3488C85.7442 29.391 84.0887 31.0465 82.0465 31.0465C80.0043 31.0465 78.3488 29.391 78.3488 27.3488C78.3488 25.3067 80.0043 23.6512 82.0465 23.6512C84.0887 23.6512 85.7442 25.3067 85.7442 27.3488ZM82.0465 74.3488C84.0887 74.3488 85.7442 72.6933 85.7442 70.6512C85.7442 68.609 84.0887 66.9535 82.0465 66.9535C80.0043 66.9535 78.3488 68.609 78.3488 70.6512C78.3488 72.6933 80.0043 74.3488 82.0465 74.3488ZM9.39535 27.3488C9.39535 29.391 7.73984 31.0465 5.69767 31.0465C3.65551 31.0465 2 29.391 2 27.3488C2 25.3067 3.65551 23.6512 5.69767 23.6512C7.73984 23.6512 9.39535 25.3067 9.39535 27.3488ZM5.69767 74.3488C7.73984 74.3488 9.39535 72.6933 9.39535 70.6512C9.39535 68.609 7.73984 66.9535 5.69767 66.9535C3.65551 66.9535 2 68.609 2 70.6512C2 72.6933 3.65551 74.3488 5.69767 74.3488ZM48.1395 92.3023C48.1395 94.3445 46.484 96 44.4419 96C42.3997 96 40.7442 94.3445 40.7442 92.3023C40.7442 90.2602 42.3997 88.6047 44.4419 88.6047C46.484 88.6047 48.1395 90.2602 48.1395 92.3023ZM44.6544 27.3792L26.9134 37.622L45.209 47.846L62.4122 37.6316L44.6544 27.3792ZM45.2242 49L45.2242 49L45.2242 49H45.2242ZM45.6544 70.0435V49.7245L45.7347 49.8598L63.3786 39.3838V59.8104L45.6544 70.0435ZM43.6544 70.0435V49.2683L25.9302 39.3636V59.8104L43.6544 70.0435Z" fill="white"/>
</svg>
