<svg width="98" height="88" viewBox="0 0 98 88" fill="none" xmlns="http://www.w3.org/2000/svg">
<path fill-rule="evenodd" clip-rule="evenodd" d="M76.1133 87.7442H64.1161C63.6199 87.7225 63.596 87.7041 63.2466 87.3839L52.5503 76.6876C52.2148 76.3213 52.2108 76.2913 52.1902 75.818V68.458C52.2351 67.4856 53.4848 66.8531 54.2483 67.5491C54.4934 67.7726 54.6261 67.9492 54.6496 68.458V75.3086L64.6256 85.2847H75.604L79.4944 81.3942C77.5136 79.0685 78.8817 74.4277 82.6045 74.3573C82.6589 74.3568 82.6589 74.3568 82.7133 74.3573C85.5014 74.41 87.7867 77.7006 86.4732 80.425C85.6522 82.1279 83.5651 82.9898 81.7202 82.6467L76.9829 87.3839C76.6167 87.7194 76.5867 87.7234 76.1133 87.7442V87.7442ZM37.9579 0.000307261C43.8067 0.0556446 49.1844 5.06214 49.2444 11.2868C49.3091 33.0103 49.3091 54.7339 49.2444 76.4573C49.2013 80.9225 46.3012 85.2173 42.1778 86.9034C35.7344 89.5382 27.2295 85.0781 26.5639 77.3329C20.4792 78.5194 13.7244 75.6095 10.4092 70.2297C8.52559 67.1728 7.77101 63.4738 8.27135 59.9019C8.27135 59.9019 6.97968 58.9325 6.06446 58.0631C0.857063 53.1159 -1.28803 45.22 0.778207 38.2824C2.02145 34.1084 4.7087 30.3957 8.26874 27.8719C8.26874 27.8719 8.1267 26.7235 8.11548 25.8256C8.02602 18.5806 13.6194 11.6699 20.8732 10.3725C22.7468 10.0374 24.68 10.053 26.557 10.41C26.557 10.41 26.6521 9.50558 26.8158 8.79665C27.9393 3.93311 32.5434 0.116056 37.6652 0.00215317C37.7628 0.000616023 37.8602 -1.68891e-07 37.9579 0.000307261V0.000307261ZM28.9997 75.828L29.0007 75.837C29.0252 76.0578 28.9728 76.8658 29.0558 77.5183C29.5738 81.5896 33.2543 85.0349 37.3691 85.27C42.122 85.5414 46.7052 81.4924 46.7845 76.4993C46.994 54.768 46.8498 33.0346 46.7849 11.3024C46.7408 6.71319 42.8177 2.50586 37.9423 2.45975C37.9039 2.45959 37.8655 2.45959 37.827 2.45975C33.1695 2.50386 28.9486 6.56347 28.9863 11.4793C29.0508 11.9808 29.0902 12.529 29.2175 13.0192C29.6325 14.6172 30.6907 15.9982 32.0003 17.0285C32.0003 17.0285 32.9411 18.3908 31.8853 19.0417C31.4611 19.3032 30.8897 19.2688 30.4796 18.9615C30.4025 18.9006 30.4025 18.9008 30.3258 18.8395C28.4999 17.3561 27.1967 15.2997 26.7244 13.0047C26.355 12.9078 25.9518 12.7928 25.5603 12.7341C20.2708 11.9417 14.6388 14.7671 12.1105 19.4872C10.7629 22.0028 10.2942 24.9644 10.7515 27.7784C10.8943 28.6566 11.3397 29.6994 11.8754 30.6792C13.0361 32.8023 14.9709 34.569 17.4733 35.0183C17.4733 35.0183 17.8541 35.1114 18.0807 35.3163C18.8729 36.0325 18.2751 37.6806 16.8305 37.3999C13.2798 36.6839 10.467 33.8831 9.01456 30.3864C6.22617 32.5811 4.11659 35.6416 3.11621 39.0491C1.20569 45.5573 3.58074 53.0413 9.00734 57.3492C10.4258 53.9495 13.1444 51.0513 16.9487 50.3404C16.9487 50.3404 16.9967 50.296 17.3259 50.3126C18.5254 50.4343 18.9536 52.4434 17.2317 52.7908C13.9863 53.4693 11.6492 56.584 10.7827 59.7241C10.7262 60.2298 10.631 60.7809 10.5991 61.2944C10.2057 67.6396 14.9988 73.9052 21.4669 74.9783C22.6397 75.1727 23.8396 75.2063 25.0215 75.0793C25.5644 75.021 26.1032 74.9276 26.6346 74.8015C27.0127 72.3109 28.3831 70.0207 30.404 68.4176C30.6576 68.2164 30.9538 68.0913 31.2851 68.0957C32.3488 68.1598 32.8599 69.5901 31.8068 70.4457C30.1923 71.7787 29.118 73.68 28.9997 75.828V75.828ZM82.6357 76.8166C81.3862 76.8403 80.4113 78.4596 81.2 79.597C82.0628 80.841 84.7544 80.2334 84.4042 78.2747C84.2589 77.4622 83.4902 76.8109 82.6357 76.8166ZM62.7694 66.6334V62.3723C62.7785 62.0467 62.9039 61.7415 63.1296 61.5027L68.2958 56.3364C68.5584 56.0889 68.9007 55.9593 69.2727 55.981C69.8429 56.0475 69.9223 56.2066 70.0841 56.3885C70.5025 56.8587 70.5305 57.5503 70.0349 58.0755L65.2289 62.8817V66.6592C67.4322 67.4403 68.9362 70.1815 67.8135 72.5103C66.6681 74.8861 63.0577 75.6248 61.079 73.7381C59.006 71.7612 59.832 67.5769 62.7694 66.6334V66.6334ZM92.5748 48.5415C91.9535 48.3801 91.3698 48.0753 90.8845 47.6126C88.5567 45.3932 89.8837 40.3906 93.7501 40.317C93.8045 40.3167 93.8045 40.3167 93.8588 40.317C96.6499 40.3702 98.9321 43.6604 97.6188 46.3847C97.1163 47.4269 96.1394 48.1541 95.0342 48.4828V61.9656C95.0125 62.4618 94.9941 62.4857 94.6739 62.8351L85.3908 72.1184C85.0246 72.4538 84.9945 72.4578 84.5212 72.4786H73.66C72.9219 72.4463 72.7488 72.13 72.5951 71.8637C72.169 71.1257 72.5909 70.0657 73.66 70.0192H84.0118L92.5748 61.4562V48.5415ZM63.976 68.9018C62.4623 68.9308 61.457 71.5246 63.3102 72.3092C64.5808 72.8472 66.3398 71.3545 65.5789 69.869C65.2798 69.2852 64.6508 68.8976 63.976 68.9018ZM31.2792 53.6797C31.4699 53.6991 31.5008 53.7138 31.5836 53.7423C32.0292 53.8943 32.3267 54.3161 32.4172 54.8006C32.4275 54.8539 32.4275 54.8539 32.4383 54.9071C32.6917 56.121 33.2553 57.2584 34.0755 58.2003C35.4617 59.7922 37.4003 60.8288 39.4352 61.3736C39.4352 61.3736 40.3134 61.7331 40.3836 62.4533C40.4623 63.2608 39.6123 63.9689 38.7576 63.7382C34.7666 62.6607 31.0305 59.812 30.0741 55.6104C29.8795 54.7551 30.1853 53.7492 31.0925 53.6799C31.2128 53.6706 31.241 53.6779 31.2792 53.6797V53.6797ZM73.6312 44.9227C73.5725 45.1267 73.4955 45.3292 73.3994 45.5285C72.254 47.9043 68.6441 48.6428 66.6653 46.7564C64.3367 44.5367 65.6641 39.5344 69.5308 39.4608C69.5852 39.4605 69.585 39.4605 69.6396 39.4608C71.3965 39.4941 72.9531 40.8116 73.5363 42.4633H75.856C75.8827 42.4642 75.9096 42.4651 75.9364 42.4659C76.3784 42.5094 76.4837 42.5972 76.7255 42.8234L80.7023 46.8004C80.9236 47.0366 81.0518 47.343 81.0624 47.6699V58.9535C81.0374 59.6717 80.8325 59.733 80.5899 59.9225C79.8685 60.4861 78.6405 60.0266 78.603 58.9535V48.1792L75.3466 44.9227H73.6312V44.9227ZM53.5404 25.3619C54.1522 25.4527 54.6187 25.958 54.6496 26.5858V56.946C54.6017 57.9204 53.2803 58.5457 52.5503 57.8156C52.332 57.5973 52.2145 57.4413 52.1902 56.946V26.5858C52.2245 25.8882 52.7963 25.3255 53.5404 25.3619V25.3619ZM93.7813 42.7763C92.2675 42.805 91.2627 45.3994 93.1154 46.1835C94.3865 46.7215 96.147 45.2328 95.3841 43.7433C95.0851 43.1595 94.4564 42.772 93.7813 42.7763V42.7763ZM69.562 41.9201C68.0439 41.949 67.0601 44.5503 68.8961 45.3273C70.1897 45.8748 71.9673 44.3194 71.1346 42.8307C70.8212 42.2702 70.2446 41.9158 69.562 41.9201ZM29.13 41.3874C30.7037 41.3977 32.2845 41.8949 33.4411 42.9855C34.1728 43.6755 33.7684 45.1814 32.6281 45.1605C31.9711 45.1485 31.5352 44.4986 30.9279 44.2135C29.4233 43.5067 27.6503 43.8584 26.1825 44.4312C26.1825 44.4312 25.5232 44.6075 25.0762 44.3237C24.3152 43.8406 24.3839 42.4888 25.3448 42.118C25.3887 42.101 25.4327 42.0844 25.477 42.0681C26.6454 41.6365 27.8803 41.3847 29.13 41.3874V41.3874ZM86.6474 13.413C87.1084 13.4737 87.1254 13.508 87.4096 13.7686L93.8571 20.216C94.1926 20.5821 94.1966 20.6121 94.2172 21.0854V32.5253C94.1955 33.0215 94.1771 33.0455 93.8571 33.3949L85.8836 41.3682C84.5847 42.6127 82.7731 41.0268 84.1446 39.6292L91.7578 32.0159V21.5948L86.0308 15.8678H84.0868C84.0868 15.8678 82.9857 15.6714 82.8681 14.8032C82.7748 14.1144 83.3663 13.4407 84.0868 13.4084H86.5401C86.5759 13.4099 86.6116 13.4115 86.6474 13.413V13.413ZM60.9293 23.7013C60.3082 23.5399 59.7247 23.2351 59.2392 22.7724C56.9106 20.5528 58.2379 15.5504 62.1046 15.4768C62.159 15.4763 62.159 15.4763 62.2136 15.4768C65.0031 15.5298 67.2871 18.8196 65.9735 21.5445C65.4708 22.5867 64.4941 23.3138 63.3888 23.6424V27.463L68.195 32.2691C68.195 32.2691 68.4913 32.614 68.5422 32.9605C68.6867 33.9478 67.3803 34.8804 66.4558 34.0082L61.2896 28.8418C61.066 28.6054 60.9384 28.2962 60.9293 27.9724V23.7013V23.7013ZM31.2534 24.2441C31.5478 24.2676 31.8331 24.3718 32.1199 24.4624C35.1629 25.4234 37.996 27.3147 39.4721 30.2179C39.9236 31.1058 40.3111 32.0674 40.3858 33.0449C40.4531 33.9246 39.3365 34.7276 38.4833 34.1656C37.9692 33.827 37.9303 33.1019 37.7397 32.4754C36.9936 30.0236 34.7733 28.1767 32.463 27.2062C31.9699 26.999 31.4637 26.8213 30.9474 26.6808C30.9474 26.6808 30.0744 26.3538 29.9701 25.6533C29.8661 24.9567 30.4497 24.2581 31.1912 24.2422C31.2119 24.2428 31.2327 24.2435 31.2534 24.2441ZM64.0702 2.45944L54.2759 11.9579C52.8312 13.1486 51.1939 11.5698 52.5637 10.1924L62.7158 0.347088C63.0795 0.0232103 63.1078 0.0199829 63.5718 0H69.5358C69.5707 0.00153715 69.6055 0.00307537 69.6403 0.0044588C70.0909 0.0622556 70.1081 0.0963786 70.3877 0.342784L78.128 7.77659C78.354 8.01177 78.4866 8.18332 78.506 8.66353V14.0492C80.7083 14.8303 82.2132 17.5716 81.0906 19.9002C79.9451 22.2761 76.3351 23.0144 74.3563 21.1283C72.2852 19.154 73.1094 14.9668 76.0466 14.0233V9.18739L69.041 2.45944H64.0702V2.45944ZM62.136 17.9361C60.6179 17.965 59.634 20.5661 61.4701 21.3433C62.7636 21.8909 64.5412 20.3354 63.7085 18.8467C63.3951 18.2862 62.8163 17.9316 62.136 17.9361ZM77.3123 16.2922C77.2806 16.2936 77.2489 16.2938 77.2176 16.2929C75.7175 16.361 74.7652 18.9277 76.5873 19.699C77.8805 20.2467 79.6584 18.6911 78.8257 17.2024C78.5214 16.6582 77.9689 16.3082 77.3123 16.2922Z" fill="white"/>
</svg>