<svg width="81" height="98" viewBox="0 0 81 98" fill="none" xmlns="http://www.w3.org/2000/svg">
<path fill-rule="evenodd" clip-rule="evenodd" d="M41.0197 4.99835L76.2899 26.4564C76.5881 26.6378 76.7702 26.9616 76.7702 27.3107V70.6893C76.7702 71.0384 76.5881 71.3622 76.2899 71.5436L41.0197 93.0017C40.7005 93.1959 40.2995 93.1959 39.9802 93.0017L4.71004 71.5436C4.41182 71.3622 4.2298 71.0384 4.2298 70.6893V27.3107C4.2298 26.9616 4.41182 26.6378 4.71004 26.4564L39.9802 4.99835C40.2995 4.8041 40.7005 4.8041 41.0197 4.99835ZM37.9012 1.58109C39.4976 0.609852 41.5024 0.609852 43.0988 1.58109L78.3689 23.0391C79.86 23.9463 80.7702 25.5653 80.7702 27.3107V70.6893C80.7702 72.4347 79.86 74.0537 78.3689 74.9609L43.0988 96.4189C41.5024 97.3902 39.4976 97.3902 37.9012 96.4189L2.63101 74.9609C1.13993 74.0537 0.229797 72.4347 0.229797 70.6893V27.3107C0.229797 25.5653 1.13992 23.9463 2.63101 23.0391L37.9012 1.58109ZM51.3132 32.7329C52.0016 32.7329 52.3458 32.1365 52.3458 30.9436C52.3458 30.4434 52.1928 30.0394 51.8868 29.7316C50.663 28.5772 49.4583 28 48.2727 28C45.1367 28 41.6947 32.1942 37.9467 40.5826L32.5542 40.4671C32.2865 40.4671 31.9614 40.6018 31.579 40.8712C31.2348 41.1405 31.0627 41.4676 31.0627 41.8524C31.0627 42.7374 32.9749 43.1991 36.7994 43.2376L33.7016 50.741C31.0627 56.7436 28.9784 60.8993 27.4486 63.2081C24.7715 67.2483 21.8075 69.2685 18.5567 69.2685C17.9831 69.2685 17.4285 68.9991 16.8931 68.4604C16.3577 67.9217 15.9752 67.1521 15.7457 66.1517C15.7075 65.8823 15.631 65.7477 15.5163 65.7477C15.2868 65.7477 15.1147 65.9785 15 66.4403C15.0382 67.5946 15.478 68.6336 16.3194 69.5571C17.1225 70.519 18.0787 71 19.1878 71C22.3621 71 25.6128 68.6143 28.9401 63.843C30.0492 62.2653 32.3248 58.2443 35.7668 51.7799C37.4495 48.3937 38.8837 45.4694 40.0693 43.0067C41.7138 42.6989 43.8172 42.3333 46.3796 41.9101C49.095 41.3714 50.4527 40.9481 50.4527 40.6403C50.4527 40.5248 50.3762 40.4479 50.2232 40.4094C48.8464 40.5248 46.0737 40.5826 41.905 40.5826H41.2166C42.8229 37.4658 43.779 35.6573 44.085 35.1571C45.6147 32.6175 47.2593 31.3477 49.0185 31.3477C49.8216 31.3477 50.3953 31.6555 50.7395 32.2712C50.9307 32.579 51.122 32.7329 51.3132 32.7329ZM44.8343 58.6267C45.6518 60.3149 46.8278 61.6857 48.3624 62.7391C48.4771 62.7968 48.556 62.8257 48.599 62.8257C48.7137 62.8257 48.8141 62.7391 48.9002 62.566C48.9289 62.4794 48.9432 62.4144 48.9432 62.3712C48.9432 62.2269 48.8787 62.097 48.7496 61.9816C47.7457 61.0292 46.9425 59.7594 46.3402 58.1722C45.7378 56.5705 45.4367 54.875 45.4367 53.0858C45.4367 51.2965 45.7378 49.6082 46.3402 48.021C46.9569 46.4193 47.7672 45.1351 48.7711 44.1683C48.9002 44.0529 48.9647 43.923 48.9647 43.7787C48.9647 43.7354 48.9504 43.6705 48.9217 43.5839C48.8356 43.4108 48.7353 43.3242 48.6205 43.3242C48.5775 43.3242 48.4986 43.353 48.3839 43.4108C46.835 44.5074 45.6518 45.8926 44.8343 47.5665C44.0168 49.2403 43.6081 51.0728 43.6081 53.0641C43.6081 55.0842 44.0168 56.9384 44.8343 58.6267ZM49.1943 59.2327C49.0939 59.2327 49.015 59.1894 48.9577 59.1029C48.9003 59.0019 48.8716 58.9009 48.8716 58.7998C48.886 58.6267 48.9218 58.5185 48.9792 58.4752C49.0365 58.4319 49.1226 58.4102 49.2373 58.4102C49.5528 58.4102 49.811 58.367 50.0118 58.2804C50.2126 58.1938 50.3847 58.0784 50.5281 57.9341C50.6715 57.7898 50.901 57.5228 51.2165 57.1332C51.575 56.7292 52.2993 55.849 53.3892 54.4926L50.9368 51.0079C50.7504 50.7626 50.5496 50.575 50.3345 50.4451C50.1337 50.3008 49.8827 50.1998 49.5815 50.1421C49.5385 50.1277 49.4596 50.1133 49.3449 50.0988C49.2302 50.0844 49.1584 50.0483 49.1298 49.9906C49.1011 49.9329 49.0867 49.8319 49.0867 49.6876C49.0867 49.5144 49.1298 49.4062 49.2158 49.3629C49.3162 49.3196 49.4309 49.298 49.56 49.298C49.7034 49.2836 49.7966 49.2764 49.8397 49.2764C51.3025 49.2042 52.3638 49.6082 53.0235 50.4884L53.4323 51.0945C53.8052 51.7294 54.2139 52.3426 54.6585 52.9342L56.0998 51.0512C56.3436 50.7193 56.4655 50.4884 56.4655 50.3586C56.4655 50.272 56.401 50.2143 56.2719 50.1854C56.1429 50.1566 55.9062 50.1349 55.562 50.1205H55.4329C55.3182 50.1205 55.2322 50.0988 55.1748 50.0555C55.1318 50.0123 55.1031 49.904 55.0887 49.7309C55.0887 49.6299 55.1103 49.5361 55.1533 49.4495C55.2106 49.3485 55.2895 49.298 55.3899 49.298C56.2074 49.3413 56.8097 49.3629 57.197 49.3629C57.5985 49.3629 58.2152 49.3413 59.0471 49.298C59.1474 49.298 59.2263 49.3485 59.2837 49.4495C59.3411 49.5361 59.3697 49.6299 59.3697 49.7309C59.3554 49.8896 59.3195 49.9906 59.2622 50.0339C59.2048 50.0772 59.1331 50.1061 59.0471 50.1205H58.8965C58.4806 50.1349 58.165 50.2215 57.9499 50.3802C57.7491 50.5245 57.4408 50.8636 57.0249 51.3975C56.8815 51.5562 56.652 51.8448 56.3365 52.2633C55.7771 52.9703 55.4043 53.4393 55.2178 53.6701C56.3938 55.1997 57.2687 56.354 57.8423 57.1332C58.1148 57.5228 58.3873 57.8331 58.6598 58.0639C58.9323 58.2948 59.2335 58.4102 59.5634 58.4102H59.6924C59.8072 58.4102 59.8932 58.4319 59.9506 58.4752C60.0079 58.5185 60.0438 58.6267 60.0581 58.7998C60.0581 58.9153 60.0223 59.0163 59.9506 59.1029C59.8932 59.1894 59.8143 59.2327 59.7139 59.2327C58.8678 59.1894 58.1794 59.1678 57.6487 59.1678C56.9747 59.1678 56.2146 59.1894 55.3684 59.2327C55.268 59.2327 55.182 59.1894 55.1103 59.1029C55.0529 59.0163 55.0242 58.9153 55.0242 58.7998C55.0385 58.6123 55.0744 58.504 55.1318 58.4752C55.2035 58.4319 55.3326 58.4102 55.519 58.4102C55.8202 58.4102 55.9708 58.3092 55.9708 58.1072C55.9708 57.9629 55.8704 57.7537 55.6696 57.4795L53.9916 55.2285L52.1415 57.4795C51.8977 57.797 51.7758 58.0134 51.7758 58.1289C51.7758 58.2299 51.8475 58.302 51.9909 58.3453C52.1343 58.3886 52.3638 58.4102 52.6793 58.4102H52.8084C52.9231 58.4102 53.002 58.4319 53.045 58.4752C53.1024 58.5185 53.1383 58.6267 53.1526 58.7998C53.1526 58.9009 53.1239 59.0019 53.0666 59.1029C53.0235 59.1894 52.9518 59.2327 52.8514 59.2327C52.034 59.1894 51.4316 59.1678 51.0444 59.1678C50.6572 59.1678 50.0405 59.1894 49.1943 59.2327ZM60.0091 62.8257C60.0521 62.8257 60.131 62.7968 60.2457 62.7391C61.7803 61.6857 62.9563 60.3149 63.7738 58.6267C64.5912 56.9384 65 55.0842 65 53.0641C65 51.0728 64.5912 49.2403 63.7738 47.5665C62.9563 45.8926 61.7731 44.5074 60.2242 43.4108C60.1095 43.353 60.0306 43.3242 59.9876 43.3242C59.8728 43.3242 59.7724 43.4108 59.6864 43.5839C59.6577 43.6705 59.6433 43.7354 59.6433 43.7787C59.6433 43.923 59.7079 44.0529 59.837 44.1683C60.8409 45.1351 61.644 46.4193 62.2464 48.021C62.8631 49.6082 63.1714 51.2965 63.1714 53.0858C63.1714 54.875 62.8702 56.5705 62.2679 58.1722C61.6655 59.7594 60.8624 61.0292 59.8585 61.9816C59.7294 62.097 59.6649 62.2269 59.6649 62.3712C59.6649 62.4144 59.6792 62.4794 59.7079 62.566C59.7939 62.7391 59.8943 62.8257 60.0091 62.8257Z" fill="white"/>
</svg>
