<svg width="43" height="40" viewBox="0 0 43 40" xmlns="http://www.w3.org/2000/svg">
    <path d="M21.3644 0C9.96201 0 0.726074 9.17543 0.726074 20.5031C0.726074 29.5653 6.64265 37.2429 14.8397 39.9616C15.8659 40.1504 16.246 39.5211 16.246 38.9673C16.246 38.4764 16.2333 37.1926 16.2207 35.4809C10.4815 36.7143 9.2652 32.737 9.2652 32.737C8.32767 30.3708 6.97205 29.7289 6.97205 29.7289C5.09699 28.4577 7.11141 28.4829 7.11141 28.4829C9.17651 28.6339 10.2787 30.5974 10.2787 30.5974C12.1158 33.7314 15.1058 32.8251 16.284 32.2965C16.474 30.9749 17.0062 30.0687 17.5889 29.5527C13.0153 29.0492 8.20097 27.2872 8.20097 19.4333C8.20097 17.1929 8.99914 15.3679 10.3294 13.9331C10.114 13.4044 9.40456 11.3277 10.5195 8.50836C10.5195 8.50836 12.2552 7.95456 16.1953 10.6103C17.8423 10.1572 19.6034 9.93061 21.3644 9.91803C23.1128 9.93061 24.8865 10.1572 26.5335 10.6103C30.4736 7.95456 32.2093 8.50836 32.2093 8.50836C33.3369 11.3277 32.6274 13.417 32.4121 13.9331C33.7297 15.3679 34.5278 17.1929 34.5278 19.4333C34.5278 27.3123 29.7008 29.0367 25.1019 29.5527C25.8367 30.182 26.5081 31.4406 26.5081 33.3538C26.5081 36.0976 26.4828 38.3002 26.4828 38.9799C26.4828 39.5336 26.8502 40.163 27.9018 39.9616C36.0988 37.2429 42.0027 29.5653 42.0027 20.5157C42.0027 9.17543 32.7668 0 21.3644 0Z" />
</svg>
