<svg width="20" height="20" viewBox="0 0 20 20" fill="none" xmlns="http://www.w3.org/2000/svg">
<g clip-path="url(#clip0)">
<path fill-rule="evenodd" clip-rule="evenodd" d="M10 0C4.47514 0 0 4.47514 0 10C0 14.4199 2.86679 18.1645 6.83855 19.4905C7.33579 19.5826 7.51995 19.2756 7.51995 19.0055C7.51995 18.7661 7.51381 18.14 7.50767 17.3051C4.72683 17.9067 4.13751 15.9668 4.13751 15.9668C3.68324 14.8128 3.0264 14.4997 3.0264 14.4997C2.11786 13.8797 3.09392 13.892 3.09392 13.892C4.09454 13.9656 4.62861 14.9233 4.62861 14.9233C5.51872 16.4518 6.96746 16.0098 7.53837 15.752C7.63045 15.1074 7.88827 14.6654 8.17066 14.4137C5.95457 14.1682 3.62185 13.3088 3.62185 9.47821C3.62185 8.38551 4.00859 7.4954 4.65316 6.79558C4.5488 6.53775 4.20503 5.52486 4.74524 4.14979C4.74524 4.14979 5.58625 3.87968 7.4954 5.17495C8.29343 4.95396 9.14672 4.84346 10 4.83732C10.8471 4.84346 11.7066 4.95396 12.5046 5.17495C14.4137 3.87968 15.2548 4.14979 15.2548 4.14979C15.8011 5.52486 15.4573 6.54389 15.353 6.79558C15.9914 7.4954 16.3781 8.38551 16.3781 9.47821C16.3781 13.3211 14.0393 14.1621 11.8109 14.4137C12.167 14.7207 12.4923 15.3346 12.4923 16.2676C12.4923 17.6059 12.48 18.6802 12.48 19.0117C12.48 19.2818 12.6581 19.5887 13.1676 19.4905C17.1393 18.1645 20 14.4199 20 10.0061C20 4.47514 15.5249 0 10 0Z" fill="#231044"/>
</g>
<defs>
<clipPath id="clip0">
<rect width="20" height="19.5028" fill="white"/>
</clipPath>
</defs>
</svg>
