<svg width="228" height="200" viewBox="0 0 228 200" fill="#EF476F" stroke="#EF476F" stroke-width="2" xmlns="http://www.w3.org/2000/svg">
<circle cx="226" cy="58" r="2" />
<circle cx="226" cy="86" r="2" />
<circle cx="226" cy="30" r="2" />
<circle cx="58" cy="2" r="2" />
<circle cx="30" cy="2" r="2" />
<circle cx="58" cy="58" r="2" />
<circle cx="58" cy="86" r="2" />
<circle cx="30" cy="86" r="2" />
<circle cx="30" cy="58" r="2" />
<circle cx="2" cy="58" r="2" />
<circle cx="2" cy="86" r="2" />
<circle cx="58" cy="30" r="2" />
<circle cx="30" cy="30" r="2" />
<circle cx="2" cy="30" r="2" />
<circle cx="142" cy="58" r="2" />
<circle cx="142" cy="86" r="2" />
<circle cx="114" cy="86" r="2" />
<circle cx="86" cy="58" r="2" />
<circle cx="86" cy="86" r="2" />
<circle cx="142" cy="2" r="2" />
<circle cx="142" cy="30" r="2" />
<circle cx="114" cy="30" r="2" />
<circle cx="86" cy="2" r="2" />
<circle cx="86" cy="30" r="2" />
<circle cx="198" cy="86" r="2" />
<circle cx="198" cy="58" r="2" />
<circle cx="170" cy="58" r="2" />
<circle cx="170" cy="86" r="2" />
<circle cx="198" cy="30" r="2" />
<circle cx="198" cy="2" r="2" />
<circle cx="170" cy="2" r="2" />
<circle cx="170" cy="30" r="2" />
<circle cx="142" cy="170" r="2" />
<circle cx="114" cy="170" r="2" />
<circle cx="86" cy="170" r="2" />
<circle cx="114" cy="198" r="2" />
<circle cx="58" cy="142" r="2" />
<circle cx="142" cy="142" r="2" />
<circle cx="114" cy="142" r="2" />
<circle cx="86" cy="142" r="2" />
<circle cx="170" cy="142" r="2" />
<circle cx="58" cy="114" r="2" />
<circle cx="30" cy="114" r="2" />
<circle cx="142" cy="114" r="2" />
<circle cx="114" cy="114" r="2" />
<circle cx="86" cy="114" r="2" />
<circle cx="198" cy="114" r="2" />
<circle cx="170" cy="114" r="2" />
<circle cx="114" cy="58" r="2" />
</svg>
