<svg role="img" viewBox="0 0 24 24" xmlns="http://www.w3.org/2000/svg"><title>Wasmer</title><path d="M18.155 3.57c-.01.819-.494 1.203-1.098.857-.604-.351-1.093-1.301-1.098-2.136L12.114.05v4.63l5.498 3.207.543.319v7.728L22 18.174V5.817L18.155 3.57ZM13.212 6.591c-.01.819-.494 1.203-1.098.857-.604-.351-1.093-1.302-1.099-2.136L7.171 3.07v4.355l5.498 3.208.543.318v8.002l3.845 2.241V8.838L13.212 6.59ZM8.27 9.337c-.012.819-.495 1.203-1.1.857-.603-.351-1.092-1.301-1.098-2.136L2.228 5.817v12.357l9.886 5.767V11.584L8.269 9.337Z"/></svg>
