<svg width="256" height="256" viewBox="0 0 256 256" fill="none" xmlns="http://www.w3.org/2000/svg">
<path d="M191.409 39.0032C191.294 47.6045 186.214 51.6455 179.864 48.0086C173.514 44.3141 168.376 34.3273 168.318 25.5527L127.909 2V50.6641L185.694 84.3768L191.409 87.725V94.3636V168.947L231.818 192.5V62.6136L191.409 39.0032Z" fill="#4946DD"/>
<path d="M139.455 70.7532C139.339 79.3545 134.259 83.3955 127.909 79.7586C121.559 76.0641 116.421 66.0773 116.364 57.3027L75.9545 33.75V79.5277L133.74 113.24L139.455 116.589V123.227V200.697L179.864 224.25V94.3636L139.455 70.7532Z" fill="#4946DD"/>
<path d="M87.5 99.6168C87.3845 108.218 82.3045 112.259 75.9545 108.622C69.6045 104.928 64.4668 94.9409 64.4091 86.1664L24 62.6136V192.5L127.909 253.114V123.227L87.5 99.6168Z" fill="#4946DD"/>
</svg>
