<svg xmlns="http://www.w3.org/2000/svg" fill="#fff" viewBox="0 0 147 44">
	<path class="st0" d="M48,13.09c1.01,0,1.97-0.01,2.93,0.01c0.09,0,0.21,0.18,0.25,0.29c0.34,1.24,0.67,2.49,1.01,3.73
		c0.85,3.17,1.7,6.34,2.56,9.51c0.04,0.13,0.08,0.26,0.14,0.48c0.07-0.18,0.11-0.27,0.13-0.36c1.28-4.39,2.55-8.78,3.83-13.17
		c0.18-0.61,0.07-0.5,0.67-0.5c0.56-0.01,1.12-0.01,1.68,0c0.61,0.01,0.49-0.09,0.66,0.48c0.8,2.75,1.59,5.5,2.38,8.25
		c0.48,1.67,0.97,3.35,1.45,5.02c0.02,0.07,0.05,0.14,0.1,0.29c0.1-0.32,0.17-0.57,0.24-0.83c1.16-4.3,2.31-8.61,3.46-12.91
		c0.06-0.21,0.13-0.32,0.38-0.31c0.83,0.02,1.67,0.01,2.5,0.01c0.08,0,0.17,0.01,0.29,0.02c-0.02,0.12-0.04,0.22-0.06,0.31
		c-1.63,5.78-3.27,11.56-4.9,17.35c-0.08,0.29-0.2,0.38-0.5,0.37c-0.91-0.02-1.82-0.02-2.73,0c-0.25,0-0.34-0.08-0.41-0.32
		c-1.18-4.12-2.38-8.24-3.58-12.35c-0.03-0.12-0.07-0.23-0.18-0.35c-0.13,0.45-0.27,0.89-0.4,1.34c-1.11,3.8-2.21,7.6-3.31,11.41
		c-0.06,0.21-0.16,0.28-0.38,0.27c-0.95-0.01-1.9-0.01-2.85,0c-0.23,0-0.31-0.08-0.37-0.29c-1.64-5.81-3.29-11.62-4.93-17.44
		C48.05,13.33,48.03,13.24,48,13.09z"/>
	<path class="st0" d="M101.39,18.27c0.91,0,1.81,0,2.74,0c0,0.47,0,0.93,0,1.38c0.02,0.02,0.04,0.03,0.07,0.05
		c0.91-1.27,2.17-1.79,3.68-1.78c1.54,0.01,2.75,0.64,3.57,1.98c0.05-0.04,0.09-0.06,0.11-0.09c0.92-1.31,2.22-1.87,3.78-1.89
		c1.73-0.01,3.16,0.59,4.12,2.09c0.61,0.95,0.81,2.01,0.81,3.12c0.01,2.57,0,5.14,0.01,7.71c0,0.25-0.09,0.3-0.32,0.3
		c-0.71-0.01-1.42-0.02-2.12,0c-0.28,0.01-0.36-0.07-0.36-0.35c0.01-2.43,0.01-4.86,0-7.29c0-0.43-0.04-0.87-0.16-1.28
		c-0.32-1.13-1.21-1.73-2.41-1.7c-1.39,0.04-2.36,0.85-2.61,2.26c-0.08,0.45-0.11,0.92-0.11,1.39c-0.01,2.19,0,4.38,0,6.56
		c0,0.12,0,0.25,0,0.39c-0.13,0.01-0.22,0.02-0.32,0.02c-0.71,0-1.42-0.01-2.12,0.01c-0.29,0.01-0.36-0.09-0.35-0.36
		c0.01-2.4,0.01-4.8,0-7.2c0-0.44-0.02-0.9-0.13-1.32c-0.36-1.45-1.78-2.12-3.29-1.58c-1.04,0.38-1.56,1.18-1.75,2.22
		c-0.08,0.41-0.09,0.84-0.1,1.26c-0.01,2.2-0.01,4.4,0,6.6c0,0.28-0.07,0.39-0.37,0.38c-0.79-0.02-1.58-0.01-2.39-0.01
		C101.39,26.84,101.39,22.57,101.39,18.27z"/>
	<path class="st0" d="M83.48,19.99c0-0.59,0-1.15,0-1.72c0.93,0,1.83,0,2.75,0c0,4.27,0,8.54,0,12.84c-0.9,0-1.8,0-2.75,0
		c0-0.57,0-1.14,0-1.76c-0.11,0.1-0.16,0.14-0.21,0.19c-1.16,1.4-2.68,1.96-4.46,1.92c-3.18-0.08-5.72-2.55-6.16-5.66
		c-0.35-2.47,0.34-4.6,2.19-6.31c2.12-1.95,5.6-2.11,7.73-0.36C82.89,19.38,83.15,19.68,83.48,19.99z M79.42,28.81
		c2.33,0,4.06-1.76,4.06-4.12c0-2.35-1.74-4.12-4.07-4.12c-2.34,0-4.09,1.77-4.08,4.14C75.35,27.07,77.09,28.81,79.42,28.81z"/>
	<path class="st0" d="M125.49,25.88c0.36,1.44,1.18,2.41,2.56,2.79c1.87,0.53,3.56,0.25,4.91-1.34c0.74,0.43,1.48,0.87,2.31,1.35
		c-0.4,0.43-0.75,0.85-1.15,1.21c-1.13,1-2.48,1.46-3.97,1.55c-1.73,0.1-3.37-0.22-4.82-1.23c-1.48-1.03-2.34-2.48-2.63-4.24
		c-0.33-1.98,0.02-3.84,1.24-5.47c1.06-1.41,2.5-2.21,4.24-2.48c1.38-0.22,2.72-0.1,3.99,0.52c1.94,0.95,3.05,2.55,3.52,4.62
		c0.18,0.8,0.2,1.61,0.1,2.43c-0.03,0.26-0.13,0.3-0.36,0.3c-3.17-0.01-6.34,0-9.51,0C125.79,25.88,125.66,25.88,125.49,25.88z
		 M132.97,23.58c0.09-1.54-1.62-3.08-3.47-3.14c-2.4-0.08-3.78,1.53-3.99,3.14C128,23.58,130.49,23.58,132.97,23.58z"/>
	<path class="st0" d="M90.99,27.08c0.08,0.16,0.15,0.32,0.24,0.46c0.62,1.03,1.59,1.39,2.72,1.35c0.46-0.02,0.96-0.1,1.38-0.29
		c0.93-0.41,1-1.57,0.11-2.06c-0.59-0.33-1.27-0.5-1.91-0.73c-0.66-0.23-1.33-0.41-1.98-0.67c-1.65-0.67-2.45-1.74-2.43-3.28
		c0.03-1.68,0.87-2.87,2.4-3.48c2.1-0.83,4.12-0.64,5.94,0.79c0.47,0.37,0.83,0.84,1.12,1.42c-0.77,0.43-1.53,0.86-2.32,1.3
		c-0.07-0.11-0.13-0.19-0.18-0.28c-0.68-1.11-2.34-1.54-3.47-0.9c-0.86,0.48-0.92,1.53-0.07,2.02c0.53,0.3,1.15,0.47,1.73,0.68
		c0.77,0.27,1.56,0.46,2.31,0.77c2.33,0.96,3.05,3.67,1.5,5.61c-0.68,0.85-1.61,1.28-2.65,1.5c-1.51,0.31-2.99,0.23-4.41-0.4
		c-1.01-0.45-1.77-1.18-2.29-2.15c-0.11-0.21-0.1-0.32,0.12-0.45c0.63-0.35,1.24-0.72,1.87-1.08C90.81,27.17,90.9,27.13,90.99,27.08
		z"/>
	<path class="st0" d="M138.3,31.14c0-4.32,0-8.58,0-12.86c0.92,0,1.82,0,2.76,0c0,0.66,0,1.3,0,1.94c0.88-1.52,2.22-2.16,3.94-2.19
		c0,0.99,0,1.97,0,3c-0.16,0-0.32-0.01-0.49,0c-1.13,0.06-2.14,0.41-2.83,1.37c-0.41,0.58-0.6,1.24-0.61,1.94
		c-0.02,2.12-0.01,4.25-0.02,6.37c0,0.43,0,0.43-0.43,0.43C139.87,31.14,139.1,31.14,138.3,31.14z"/>
	<path class="st0" d="M11.75,17.3c0,0.04,0,0.08,0,0.12c0,1.39-0.9,1.99-2.01,1.35c-1.11-0.64-2.01-2.28-2.01-3.67
		c0-0.04,0-0.08,0-0.12L1,11.09v21.88l17.5,10.1V21.19L11.75,17.3z"/>
	<path class="st0" d="M20.5,12.25c0,0.04,0,0.08,0,0.12c0,1.39-0.9,1.99-2.01,1.35c-1.11-0.64-2.01-2.28-2.01-3.67
		c0-0.04,0-0.08,0-0.12L9.75,6.05v7.83l10.72,6.19v14.05l6.78,3.92V16.16L20.5,12.25z"/>
	<path class="st0" d="M29.25,7.21c0,0.04,0,0.08,0,0.12c0,1.39-0.9,1.99-2.01,1.35c-1.11-0.64-2.01-2.28-2.01-3.67
		c0-0.04,0-0.08,0-0.12L18.5,1v7.83l10.72,6.19v14.05L36,32.98V11.11L29.25,7.21z"/>
</svg>
