<svg fill="#fff" xmlns="http://www.w3.org/2000/svg" viewBox="0 0 32 33">
<path d="M6.72,20.41c0,1.85-1.51,3.36-3.36,3.36S0,22.26,0,20.41c0-1.85,1.51-3.36,3.36-3.36h3.36V20.41z"/>
<path d="M8.42,20.41c0-1.85,1.51-3.36,3.36-3.36c1.85,0,3.36,1.51,3.36,3.36v8.42c0,1.85-1.51,3.36-3.36,3.36
	c-1.85,0-3.36-1.51-3.36-3.36V20.41z"/>
<path d="M11.78,6.91c-1.85,0-3.36-1.51-3.36-3.36s1.51-3.36,3.36-3.36c1.85,0,3.36,1.51,3.36,3.36v3.36H11.78z"/>
<path d="M11.78,8.61c1.85,0,3.36,1.51,3.36,3.36s-1.51,3.36-3.36,3.36H3.36C1.51,15.33,0,13.82,0,11.97
	s1.51-3.36,3.36-3.36H11.78z"/>
<path d="M25.28,11.97c0-1.85,1.51-3.36,3.36-3.36c1.85,0,3.36,1.51,3.36,3.36s-1.51,3.36-3.36,3.36h-3.36V11.97z"/>
<path d="M23.58,11.97c0,1.85-1.51,3.36-3.36,3.36c-1.85,0-3.36-1.51-3.36-3.36V3.55c0-1.85,1.51-3.36,3.36-3.36
	c1.85,0,3.36,1.51,3.36,3.36V11.97z"/>
<path d="M20.22,25.47c1.85,0,3.36,1.51,3.36,3.36c0,1.85-1.51,3.36-3.36,3.36c-1.85,0-3.36-1.51-3.36-3.36v-3.36H20.22z
	"/>
<path d="M20.22,23.77c-1.85,0-3.36-1.51-3.36-3.36c0-1.85,1.51-3.36,3.36-3.36h8.42c1.85,0,3.36,1.51,3.36,3.36
	c0,1.85-1.51,3.36-3.36,3.36H20.22z"/>
</svg>
