<svg width="48" height="38" viewBox="0 0 48 38" xmlns="http://www.w3.org/2000/svg">
    <path d="M15.0089 37.697C33.0188 37.697 42.8695 23.3043 42.8695 10.823C42.8695 10.4142 42.8695 10.0072 42.8409 9.60209C44.7576 8.2652 46.4108 6.60974 47.7261 4.71305C45.9393 5.47725 44.0436 5.97812 42.1021 6.1991C44.1467 5.01873 45.6758 3.16255 46.407 0.974918C44.4846 2.07426 42.3827 2.85135 40.1892 3.26752C36.4819 -0.536908 30.2775 -0.719211 26.3353 2.85687C23.7924 5.1642 22.7138 8.60034 23.5023 11.8818C15.6294 11.5006 8.29289 7.91348 3.32174 2.01349C0.723528 6.328 2.05031 11.8505 6.3533 14.6219C4.79552 14.5777 3.27019 14.1726 1.90905 13.4397C1.90905 13.4783 1.90905 13.5188 1.90905 13.5593C1.91095 18.0562 5.19642 21.9287 9.76477 22.8181C8.32344 23.1975 6.81147 23.2527 5.34342 22.9802C6.6263 26.827 10.3031 29.4639 14.4916 29.5394C11.0247 32.1671 6.74084 33.5943 2.33094 33.5906C1.55205 33.5887 0.773163 33.5445 0 33.4543C4.47862 36.2257 9.68841 37.697 15.0089 37.6896" />
</svg>
