<svg width="92" height="92" viewBox="0 0 92 92" fill="none" xmlns="http://www.w3.org/2000/svg">
<rect x="12.0476" y="39.4287" width="74.4762" height="46" fill="white"/>
<path d="M56.5233 0C56.5233 0.162423 56.5233 0.324847 56.5233 0.495819C56.5233 3.29358 55.4119 5.97675 53.4336 7.95507C51.4553 9.93338 48.7721 11.0448 45.9744 11.0448C43.1766 11.0448 40.4934 9.93338 38.5151 7.95507C36.5368 5.97675 35.4254 3.29358 35.4254 0.495819C35.4254 0.324847 35.4254 0.162423 35.4254 0H0V92H92V0H56.5233ZM43.9056 82.152L39.4261 59.9855H39.3492L34.5021 82.152H28.33L21.3373 49.5819H27.4324L31.6042 71.7484H31.6811L36.7077 49.5819H42.4096L46.9232 72.0219H47.0002L51.7618 49.5819H57.7458L49.9751 82.152H43.9056ZM77.4674 82.152L75.3901 74.9028H64.4222L62.8236 82.152H56.7285L64.6103 49.5819H74.2275L83.8104 82.152H77.4674Z" fill="#4946DD"/>
<path d="M68.2767 57.6089L65.618 69.5598H73.8931L70.8412 57.6089H68.2767Z" fill="#4946DD"/>
</svg>
