<svg width="82" height="99" viewBox="0 0 82 99" fill="none" xmlns="http://www.w3.org/2000/svg">
    <path d="M25.1874 38.1893C25.1874 38.2815 25.1874 38.3736 25.1874 38.4657C25.1874 41.7135 23.0798 43.1301 20.4885 41.6329C17.8972 40.1357 15.7896 36.2891 15.7896 33.0413C15.7896 32.9492 15.7896 32.857 15.7896 32.7649L0 23.6436V74.8936L41 98.5607V47.3107L25.1874 38.1893Z" fill="#4946DD"/>
    <path d="M45.6874 26.3614C45.6874 26.4536 45.6874 26.5457 45.6874 26.6378C45.6874 29.8856 43.5798 31.3021 40.9885 29.805C38.3972 28.3078 36.2896 24.4611 36.2896 21.2134C36.2896 21.1213 36.2896 21.0291 36.2896 20.937L20.5 11.8271V30.162L45.6067 44.6617V77.5769L61.5 86.7558V35.5058L45.6874 26.3614Z" fill="#4946DD"/>
    <path d="M66.1874 14.5458C66.1874 14.6379 66.1874 14.7301 66.1874 14.8222C66.1874 18.0699 64.0798 19.4865 61.4885 17.9893C58.8972 16.4921 56.7896 12.6455 56.7896 9.39775C56.7896 9.30562 56.7896 9.21348 56.7896 9.12135L41 0V18.3348L66.1067 32.8346V65.7497L82 74.9287V23.6787L66.1874 14.5458Z" fill="#4946DD"/>
</svg>
