<svg width="84" height="84" viewBox="0 0 84 84" fill="none" xmlns="http://www.w3.org/2000/svg">
    <path d="M51.6082 0C51.6082 0.1483 51.6082 0.296599 51.6082 0.452704C51.6082 3.00718 50.5935 5.45703 48.7872 7.26332C46.9809 9.06961 44.5311 10.0844 41.9766 10.0844C39.4221 10.0844 36.9723 9.06961 35.166 7.26332C33.3597 5.45703 32.3449 3.00718 32.3449 0.452704C32.3449 0.296599 32.3449 0.1483 32.3449 0H0V84H84V0H51.6082ZM40.0877 75.0084L35.9978 54.7694H35.9275L31.502 75.0084H25.8666L19.4819 45.2704H25.047L28.856 65.5094H28.9262L33.5157 45.2704H38.7218L42.843 65.7592H42.9132L47.2607 45.2704H52.7244L45.6294 75.0084H40.0877ZM70.7311 75.0084L68.8344 68.3895H58.8203L57.3607 75.0084H51.7956L58.992 45.2704H67.7729L76.5226 75.0084H70.7311Z" fill="white"/>
    <path d="M51.6082 0C51.6082 0.1483 51.6082 0.296599 51.6082 0.452704C51.6082 3.00718 50.5935 5.45703 48.7872 7.26332C46.9809 9.06961 44.5311 10.0844 41.9766 10.0844C39.4221 10.0844 36.9723 9.06961 35.166 7.26332C33.3597 5.45703 32.3449 3.00718 32.3449 0.452704C32.3449 0.296599 32.3449 0.1483 32.3449 0H0V84H84V0H51.6082ZM40.0877 75.0084L35.9978 54.7694H35.9275L31.502 75.0084H25.8666L19.4819 45.2704H25.047L28.856 65.5094H28.9262L33.5157 45.2704H38.7218L42.843 65.7592H42.9132L47.2607 45.2704H52.7244L45.6294 75.0084H40.0877ZM70.7311 75.0084L68.8344 68.3895H58.8203L57.3607 75.0084H51.7956L58.992 45.2704H67.7729L76.5226 75.0084H70.7311Z" fill="#231044" fill-opacity="0.25"/>
    <path d="M62.3395 52.5996L59.9121 63.5113H67.4676L64.6811 52.5996H62.3395Z" fill="white"/>
    <path d="M62.3395 52.5996L59.9121 63.5113H67.4676L64.6811 52.5996H62.3395Z" fill="#231044" fill-opacity="0.25"/>
</svg>
