<svg fill="#4946DD" xmlns="http://www.w3.org/2000/svg" viewBox="0 0 88 88">
<path d="M54.07,0c0,0.16,0,0.31,0,0.47c0,2.68-1.06,5.24-2.96,7.13c-1.89,1.89-4.46,2.96-7.13,2.96s-5.24-1.06-7.13-2.96
	s-2.96-4.46-2.96-7.13c0-0.16,0-0.32,0-0.47H0v88h88V0H54.07z M42,78.58l-4.28-21.2h-0.07L33,78.58h-5.9l-6.69-31.15h5.83l3.99,21.2
	h0.07l4.81-21.2h5.45l4.32,21.46h0.07l4.55-21.46h5.72L47.8,78.58H42z M74.1,78.58l-1.99-6.93H61.62l-1.53,6.93h-5.83l7.54-31.15H71
	l9.17,31.15H74.1z"/>
<polygon points="65.31,55.1 62.77,66.54 70.68,66.54 67.76,55.1 "/>
</svg>
