<svg width="120" height="120" viewBox="0 0 120 120" fill="none" xmlns="http://www.w3.org/2000/svg">
    <g filter="url(#filter0_d)">
        <rect x="26.0476" y="50.4287" width="74.4762" height="46" fill="white"/>
        <path d="M70.5233 11C70.5233 11.1624 70.5233 11.3248 70.5233 11.4958C70.5233 14.2936 69.4119 16.9768 67.4336 18.9551C65.4553 20.9334 62.7721 22.0448 59.9744 22.0448C57.1766 22.0448 54.4934 20.9334 52.5151 18.9551C50.5368 16.9768 49.4254 14.2936 49.4254 11.4958C49.4254 11.3248 49.4254 11.1624 49.4254 11H14V103H106V11H70.5233ZM57.9056 93.152L53.4261 70.9855H53.3492L48.5021 93.152H42.33L35.3373 60.5819H41.4324L45.6042 82.7484H45.6811L50.7077 60.5819H56.4096L60.9232 83.0219H61.0002L65.7618 60.5819H71.7458L63.9751 93.152H57.9056ZM91.4674 93.152L89.3901 85.9028H78.4222L76.8236 93.152H70.7285L78.6103 60.5819H88.2275L97.8104 93.152H91.4674Z" fill="#4946DD"/>
        <path d="M82.2767 68.6089L79.618 80.5598H87.8931L84.8412 68.6089H82.2767Z" fill="#4946DD"/>
    </g>
    <defs>
        <filter id="filter0_d" x="0" y="0" width="120" height="120" filterUnits="userSpaceOnUse" color-interpolation-filters="sRGB">
            <feFlood flood-opacity="0" result="BackgroundImageFix"/>
            <feColorMatrix in="SourceAlpha" type="matrix" values="0 0 0 0 0 0 0 0 0 0 0 0 0 0 0 0 0 0 127 0"/>
            <feOffset dy="3"/>
            <feGaussianBlur stdDeviation="7"/>
            <feColorMatrix type="matrix" values="0 0 0 0 0.286275 0 0 0 0 0.27451 0 0 0 0 0.866667 0 0 0 0.3 0"/>
            <feBlend mode="normal" in2="BackgroundImageFix" result="effect1_dropShadow"/>
            <feBlend mode="normal" in="SourceGraphic" in2="effect1_dropShadow" result="shape"/>
        </filter>
    </defs>
</svg>
