<svg width="82" height="92" xmlns="http://www.w3.org/2000/svg" viewBox="0 0 82 99">
<path d="M25.19,38.19c0,0.09,0,0.18,0,0.28c0,3.25-2.11,4.66-4.7,3.17s-4.7-5.34-4.7-8.59c0-0.09,0-0.18,0-0.28L0,23.64
	v51.25l41,23.67V47.31L25.19,38.19z"/>
<path d="M45.69,26.36c0,0.09,0,0.18,0,0.28c0,3.25-2.11,4.66-4.7,3.17c-2.59-1.5-4.7-5.34-4.7-8.59
	c0-0.09,0-0.18,0-0.28L20.5,11.83v18.33l25.11,14.5v32.92l15.89,9.18V35.51L45.69,26.36z"/>
<path d="M66.19,14.55c0,0.09,0,0.18,0,0.28c0,3.25-2.11,4.66-4.7,3.17c-2.59-1.5-4.7-5.34-4.7-8.59
	c0-0.09,0-0.18,0-0.28L41,0v18.33l25.11,14.5v32.92L82,74.93V23.68L66.19,14.55z"/>
</svg>
