<?xml version="1.0" encoding="utf-8"?>
<svg width="16.51" height="22.39" xmlns="http://www.w3.org/2000/svg" viewBox="0 0 16.51 22.39">
<style type="text/css">
	.st0{opacity:0.3;}
	.st1{fill:#231044;}
</style>
<g class="st0">
	<path class="st1" d="M5.32,17.31c0,0-0.86,0.5,0.61,0.67c1.77,0.2,2.68,0.17,4.64-0.2c0,0,0.51,0.32,1.23,0.6
		C7.41,20.26,1.88,18.28,5.32,17.31z"/>
	<path class="st1" d="M4.78,14.86c0,0-0.96,0.71,0.51,0.86c1.9,0.2,3.39,0.21,5.98-0.29c0,0,0.36,0.36,0.92,0.56
		C6.89,17.55,0.99,16.12,4.78,14.86z"/>
	<path class="st1" d="M9.3,10.7c1.08,1.24-0.28,2.36-0.28,2.36s2.74-1.42,1.48-3.19C9.32,8.23,8.42,7.4,13.3,4.57
		C13.3,4.57,5.63,6.49,9.3,10.7z"/>
	<path class="st1" d="M15.09,19.13c0,0,0.63,0.52-0.7,0.93c-2.53,0.77-10.53,1-12.75,0.03c-0.8-0.35,0.7-0.83,1.17-0.93
		c0.49-0.11,0.77-0.09,0.77-0.09c-0.89-0.63-5.74,1.23-2.47,1.76C10.06,22.28,17.41,20.17,15.09,19.13z"/>
	<path class="st1" d="M5.72,12.32c0,0-4.07,0.97-1.44,1.32c1.11,0.15,3.32,0.11,5.38-0.06c1.68-0.14,3.37-0.44,3.37-0.44
		s-0.59,0.25-1.02,0.55C7.89,14.77-0.1,14.27,2.2,13.16C4.14,12.22,5.72,12.32,5.72,12.32z"/>
	<path class="st1" d="M13.03,16.4c4.2-2.18,2.26-4.28,0.9-4c-0.33,0.07-0.48,0.13-0.48,0.13s0.12-0.19,0.36-0.28
		c2.68-0.94,4.74,2.78-0.87,4.26C12.95,16.51,13.01,16.46,13.03,16.4z"/>
	<path class="st1" d="M10.5,0c0,0,2.33,2.33-2.21,5.91c-3.63,2.87-0.83,4.51,0,6.38c-2.12-1.91-3.68-3.6-2.63-5.17
		C7.19,4.81,11.44,3.7,10.5,0z"/>
	<path class="st1" d="M6.14,22.32c4.03,0.26,10.22-0.14,10.37-2.05c0,0-0.28,0.72-3.33,1.3c-3.44,0.65-7.69,0.57-10.2,0.16
		C2.98,21.72,3.49,22.15,6.14,22.32z"/>
</g>
</svg>
