<?xml version="1.0" encoding="utf-8"?>
<!-- Generator: Adobe Illustrator 24.3.0, SVG Export Plug-In . SVG Version: 6.00 Build 0)  -->
<svg version="1.1" id="Layer_1" xmlns="http://www.w3.org/2000/svg" xmlns:xlink="http://www.w3.org/1999/xlink" x="0px" y="0px"
	 viewBox="0 0 56 56" style="enable-background:new 0 0 56 56;" xml:space="preserve">
<g>
	<path d="M42.51,24.1c0-1.17-0.95-2.12-2.12-2.12c-1.17,0-2.12,0.95-2.12,2.12v8.85c0,1.17,0.95,2.12,2.12,2.12
		c1.17,0,2.12-0.95,2.12-2.12V24.1z"/>
	<path d="M17.74,24.1c0-1.17-0.95-2.12-2.12-2.12s-2.12,0.95-2.12,2.12v8.85c0,1.17,0.95,2.12,2.12,2.12s2.12-0.95,2.12-2.12V24.1z"
		/>
	<path d="M18.53,22.34v13.73c0,1.26,1.03,2.29,2.29,2.29h1.52v4.68c0,1.17,0.95,2.12,2.12,2.12s2.12-0.95,2.12-2.12v-4.68h2.83v4.68
		c0,1.17,0.95,2.12,2.12,2.12c1.17,0,2.12-0.95,2.12-2.12v-4.68h1.52c1.26,0,2.29-1.03,2.29-2.29V22.34H18.53z"/>
	<path d="M32.64,13.98l1.5-2.7c0.08-0.15,0.03-0.33-0.12-0.41c-0.05-0.03-0.1-0.04-0.15-0.04c-0.11,0-0.21,0.06-0.26,0.16
		l-1.51,2.73c-1.24-0.55-2.63-0.86-4.1-0.86c-1.47,0-2.86,0.31-4.1,0.86l-1.51-2.73c-0.08-0.15-0.26-0.2-0.41-0.12
		c-0.15,0.08-0.2,0.26-0.12,0.41l1.5,2.7c-2.88,1.5-4.82,4.34-4.83,7.61h18.94C37.47,18.33,35.52,15.48,32.64,13.98z M23.63,18.13
		c-0.44,0-0.79-0.35-0.79-0.79s0.35-0.79,0.79-0.79c0.44,0,0.79,0.35,0.79,0.79S24.06,18.13,23.63,18.13z M32.37,18.13
		c-0.44,0-0.79-0.35-0.79-0.79s0.35-0.79,0.79-0.79s0.79,0.35,0.79,0.79S32.81,18.13,32.37,18.13z"/>
</g>
</svg>
