<svg xmlns="http://www.w3.org/2000/svg" viewBox="0 0 56 56">
<g>
	<path d="M40.35,24.68c0-1-0.81-1.8-1.8-1.8s-1.8,0.81-1.8,1.8v7.53c0,1,0.81,1.8,1.8,1.8s1.8-0.81,1.8-1.8V24.68z"/>
	<path d="M19.27,24.68c0-1-0.81-1.8-1.8-1.8s-1.8,0.81-1.8,1.8v7.53c0,1,0.81,1.8,1.8,1.8c1,0,1.8-0.81,1.8-1.8V24.68z"/>
	<path d="M19.94,23.18v11.68c0,1.07,0.88,1.95,1.95,1.95h1.29v3.98c0,1,0.81,1.8,1.8,1.8s1.8-0.81,1.8-1.8v-3.98h2.41v3.98
		c0,1,0.81,1.8,1.8,1.8c1,0,1.8-0.81,1.8-1.8v-3.98h1.29c1.07,0,1.95-0.88,1.95-1.95V23.18H19.94z"/>
	<path d="M31.95,16.07l1.28-2.3c0.07-0.13,0.03-0.28-0.1-0.35c-0.04-0.03-0.09-0.03-0.13-0.03c-0.09,0-0.18,0.05-0.22,0.14
		l-1.29,2.32c-1.06-0.47-2.24-0.73-3.49-0.73c-1.25,0-2.43,0.26-3.49,0.73l-1.29-2.32c-0.07-0.13-0.22-0.17-0.35-0.1
		c-0.13,0.07-0.17,0.22-0.1,0.35l1.28,2.3c-2.45,1.28-4.1,3.69-4.11,6.48h16.12C36.06,19.77,34.4,17.34,31.95,16.07z M24.28,19.6
		c-0.37,0-0.67-0.3-0.67-0.67s0.3-0.67,0.67-0.67s0.67,0.3,0.67,0.67S24.65,19.6,24.28,19.6z M31.72,19.6
		c-0.37,0-0.67-0.3-0.67-0.67s0.3-0.67,0.67-0.67s0.67,0.3,0.67,0.67S32.09,19.6,31.72,19.6z"/>
</g>
</svg>
