<?xml version="1.0" encoding="utf-8"?>
<!-- Generator: Adobe Illustrator 24.3.0, SVG Export Plug-In . SVG Version: 6.00 Build 0)  -->
<svg version="1.1" id="Layer_1" xmlns="http://www.w3.org/2000/svg" xmlns:xlink="http://www.w3.org/1999/xlink" x="0px" y="0px"
	 viewBox="0 0 56 56" style="enable-background:new 0 0 56 56;" xml:space="preserve">
<path d="M9.75,36.85h3.05V23.88H9.75C9.75,23.88,9.75,36.85,9.75,36.85z M11.27,22.18c0.95,0,1.7-0.73,1.7-1.65
	c0-0.93-0.75-1.66-1.7-1.66c-0.94,0-1.69,0.73-1.69,1.66C9.58,21.44,10.32,22.18,11.27,22.18z M22.94,18.9
	c-5.15,0-8.38,3.51-8.38,9.13s3.23,9.12,8.38,9.12c5.14,0,8.37-3.5,8.37-9.12S28.08,18.9,22.94,18.9z M22.94,21.59
	c3.14,0,5.15,2.5,5.15,6.44c0,3.93-2.01,6.42-5.15,6.42c-3.16,0-5.15-2.5-5.15-6.42C17.79,24.08,19.78,21.59,22.94,21.59z
	 M32.6,31.88c0.13,3.26,2.8,5.26,6.87,5.26c4.27,0,6.96-2.1,6.96-5.46c0-2.63-1.52-4.11-5.1-4.93l-2.03-0.47
	c-2.17-0.51-3.06-1.2-3.06-2.37c0-1.47,1.35-2.45,3.34-2.45c2.02,0,3.4,0.99,3.55,2.64h3.01C46.06,21,43.49,18.9,39.6,18.9
	c-3.84,0-6.57,2.12-6.57,5.25c0,2.52,1.54,4.09,4.8,4.83l2.29,0.54c2.23,0.53,3.13,1.26,3.13,2.53c0,1.47-1.48,2.52-3.61,2.52
	c-2.15,0-3.78-1.06-3.98-2.69L32.6,31.88L32.6,31.88z"/>
</svg>
