<svg xmlns="http://www.w3.org/2000/svg" viewBox="0 0 56 56">
<path d="M13.36,35.1h2.45V24.7h-2.45V35.1z M14.58,23.33c0.76,0,1.36-0.59,1.36-1.32c0-0.75-0.6-1.33-1.36-1.33
	c-0.75,0-1.36,0.59-1.36,1.33C13.23,22.74,13.82,23.33,14.58,23.33z M23.94,20.7c-4.13,0-6.72,2.81-6.72,7.32s2.59,7.31,6.72,7.31
	c4.12,0,6.71-2.81,6.71-7.31S28.07,20.7,23.94,20.7z M23.94,22.86c2.52,0,4.13,2,4.13,5.16c0,3.15-1.61,5.15-4.13,5.15
	c-2.53,0-4.13-2-4.13-5.15C19.81,24.86,21.41,22.86,23.94,22.86z M31.69,31.11c0.1,2.61,2.25,4.22,5.51,4.22
	c3.42,0,5.58-1.68,5.58-4.38c0-2.11-1.22-3.3-4.09-3.95l-1.63-0.38c-1.74-0.41-2.45-0.96-2.45-1.9c0-1.18,1.08-1.96,2.68-1.96
	c1.62,0,2.73,0.79,2.85,2.12h2.41c-0.06-2.49-2.13-4.17-5.25-4.17c-3.08,0-5.27,1.7-5.27,4.21c0,2.02,1.24,3.28,3.85,3.87l1.84,0.43
	c1.79,0.43,2.51,1.01,2.51,2.03c0,1.18-1.19,2.02-2.9,2.02c-1.72,0-3.03-0.85-3.19-2.16H31.69L31.69,31.11z"/>
</svg>
