<?xml version="1.0" encoding="utf-8"?>
<!-- Generator: Adobe Illustrator 24.3.0, SVG Export Plug-In . SVG Version: 6.00 Build 0)  -->
<svg version="1.1" id="Layer_1" xmlns="http://www.w3.org/2000/svg" xmlns:xlink="http://www.w3.org/1999/xlink" x="0px" y="0px"
	 viewBox="0 0 56 56" style="enable-background:new 0 0 56 56;" xml:space="preserve">
<g>
	<path id="path11" d="M29.19,20.73c-0.68,0.35-1.47,0.78-2.31,0.78c-0.84,0-1.5-0.39-1.98-0.77c-0.24-0.19-0.43-0.38-0.58-0.51
		c-0.25-0.2-0.22-0.48-0.12-0.47c0.17,0.02,0.2,0.25,0.31,0.35c0.15,0.14,0.33,0.32,0.56,0.5c0.45,0.36,1.05,0.71,1.81,0.71
		c0.75,0,1.63-0.44,2.17-0.74c0.3-0.17,0.69-0.48,1.01-0.71c0.24-0.18,0.23-0.39,0.43-0.37c0.2,0.02,0.05,0.24-0.23,0.48
		S29.55,20.55,29.19,20.73z"/>
	<path d="M42.2,38.71C42.2,38.71,42.2,38.71,42.2,38.71c-0.26-0.3-0.39-0.85-0.52-1.43c-0.13-0.58-0.28-1.21-0.76-1.62c0,0,0,0,0,0
		c-0.1-0.08-0.19-0.15-0.29-0.21c-0.1-0.06-0.2-0.11-0.3-0.14c0.67-1.98,0.41-3.95-0.27-5.73c-0.83-2.18-2.27-4.09-3.37-5.39
		c-1.23-1.56-2.44-3.03-2.42-5.21c0.04-3.33,0.37-9.5-5.49-9.51c-0.24,0-0.49,0.01-0.75,0.03c-6.55,0.53-4.81,7.44-4.91,9.76
		c-0.12,1.69-0.46,3.03-1.63,4.68c-1.37,1.63-3.29,4.26-4.21,7c-0.43,1.29-0.64,2.61-0.45,3.86c-0.06,0.05-0.12,0.11-0.17,0.17
		c-0.4,0.43-0.7,0.95-1.03,1.3c-0.31,0.31-0.75,0.43-1.23,0.6c-0.48,0.17-1.02,0.43-1.34,1.05c0,0,0,0,0,0c0,0,0,0,0,0
		c-0.15,0.28-0.2,0.59-0.2,0.9c0,0.29,0.04,0.58,0.09,0.86c0.09,0.58,0.18,1.13,0.06,1.5c-0.38,1.05-0.43,1.77-0.16,2.3
		c0.27,0.53,0.83,0.76,1.45,0.89c1.26,0.26,2.96,0.2,4.3,0.91l0.12-0.22l-0.11,0.22c1.44,0.75,2.89,1.02,4.05,0.75
		c0.84-0.19,1.52-0.69,1.88-1.46c0.91,0,1.9-0.39,3.5-0.48c1.08-0.09,2.44,0.38,3.99,0.3c0.04,0.17,0.1,0.33,0.18,0.49c0,0,0,0,0,0
		c0.6,1.21,1.72,1.76,2.92,1.66c1.2-0.09,2.47-0.8,3.49-2.02l-0.19-0.16l0.19,0.16c0.98-1.19,2.61-1.68,3.68-2.33
		c0.54-0.33,0.98-0.73,1.01-1.32C43.35,40.26,43,39.6,42.2,38.71z M27.74,16.98c0-0.43,0.07-0.81,0.23-1.19
		c0.17-0.38,0.37-0.65,0.67-0.87c0.29-0.22,0.58-0.32,0.92-0.33h0.02c0.33,0,0.62,0.1,0.91,0.31c0.3,0.22,0.51,0.48,0.68,0.86
		c0.17,0.37,0.25,0.72,0.26,1.15c0,0.01,0,0.02,0,0.03h0c0,0.44-0.07,0.81-0.24,1.19c-0.09,0.22-0.2,0.4-0.33,0.55
		c-0.04-0.02-0.09-0.04-0.14-0.06c-0.16-0.07-0.31-0.13-0.44-0.18c-0.13-0.05-0.23-0.08-0.34-0.12c0.08-0.09,0.23-0.2,0.28-0.34
		c0.08-0.21,0.13-0.41,0.13-0.64c0-0.01,0-0.02,0-0.03c0-0.23-0.03-0.42-0.09-0.63c-0.07-0.21-0.16-0.36-0.29-0.49
		c-0.13-0.13-0.26-0.18-0.41-0.19c-0.01,0-0.01,0-0.02,0c-0.15,0-0.27,0.05-0.4,0.16c-0.14,0.11-0.24,0.26-0.32,0.47
		c-0.08,0.2-0.13,0.41-0.13,0.65c0,0.01,0,0.02,0,0.03c0,0.13,0.01,0.25,0.03,0.37c-0.3-0.15-0.68-0.26-0.94-0.32
		c-0.02-0.11-0.02-0.23-0.03-0.35V16.98z M23.88,16.04c0.1-0.33,0.24-0.58,0.44-0.78c0.2-0.2,0.4-0.3,0.65-0.31
		c0.02,0,0.04,0,0.06,0c0.22,0,0.42,0.07,0.62,0.24c0.22,0.18,0.39,0.4,0.53,0.72c0.14,0.32,0.22,0.64,0.24,1.01v0
		c0.01,0.16,0.01,0.31,0,0.45h0c-0.04,0.01-0.09,0.03-0.13,0.04c-0.24,0.08-0.43,0.17-0.61,0.29c0.02-0.13,0.02-0.25,0.01-0.4
		c0-0.01,0-0.01,0-0.02c-0.02-0.19-0.06-0.35-0.13-0.51c-0.07-0.17-0.15-0.29-0.26-0.38c-0.1-0.08-0.18-0.12-0.28-0.12
		c-0.01,0-0.02,0-0.03,0c-0.11,0.01-0.2,0.06-0.29,0.17c-0.09,0.11-0.14,0.24-0.19,0.41c-0.04,0.18-0.05,0.35-0.04,0.54
		c0,0.01,0,0.01,0,0.02c0.02,0.19,0.06,0.35,0.13,0.51c0.07,0.17,0.15,0.28,0.26,0.37c0.02,0.02,0.04,0.03,0.05,0.04
		c-0.11,0.08-0.18,0.14-0.27,0.21c-0.06,0.04-0.13,0.09-0.21,0.15c-0.17-0.16-0.31-0.37-0.43-0.64c-0.14-0.32-0.21-0.64-0.24-1.01v0
		C23.74,16.7,23.77,16.37,23.88,16.04z M24.05,19.35c0.35-0.26,0.59-0.44,0.75-0.55c0.16-0.12,0.22-0.16,0.28-0.21c0,0,0,0,0,0l0,0
		c0.26-0.25,0.67-0.69,1.3-0.91c0.21-0.07,0.45-0.12,0.72-0.12c0.51,0,1.13,0.17,1.88,0.65c0.46,0.3,0.82,0.32,1.64,0.68l0,0l0,0
		c0.4,0.16,0.63,0.37,0.74,0.6c0.11,0.22,0.12,0.46,0.02,0.72c-0.19,0.51-0.8,1.04-1.65,1.31l0,0l0,0c-0.41,0.13-0.78,0.43-1.2,0.68
		c-0.43,0.24-0.91,0.44-1.56,0.4c-0.28-0.02-0.5-0.07-0.69-0.15c-0.19-0.08-0.35-0.19-0.5-0.31c-0.3-0.24-0.56-0.55-0.95-0.77l0,0
		l0,0c-0.62-0.35-0.96-0.76-1.06-1.11C23.64,19.88,23.74,19.58,24.05,19.35z M24.29,43.52L24.29,43.52L24.29,43.52
		c-0.09,1.16-0.74,1.79-1.74,2.02c-1,0.23-2.36,0-3.71-0.71c0,0,0,0,0,0c-1.5-0.79-3.28-0.71-4.43-0.95
		c-0.57-0.12-0.95-0.3-1.12-0.63c-0.17-0.33-0.18-0.92,0.19-1.91l0,0l0,0c0.18-0.56,0.05-1.16-0.04-1.73
		c-0.09-0.57-0.13-1.09,0.06-1.45l0,0c0.25-0.48,0.62-0.65,1.07-0.82c0.45-0.16,0.99-0.29,1.42-0.72l0,0l0,0
		c0.39-0.41,0.69-0.93,1.03-1.3c0.29-0.31,0.58-0.52,1.02-0.52c0.01,0,0.01,0,0.02,0c0.08,0,0.16,0.01,0.25,0.02
		c0.58,0.09,1.09,0.5,1.58,1.16l1.42,2.58l0,0l0,0c0.38,0.79,1.17,1.65,1.85,2.53C23.84,41.96,24.36,42.84,24.29,43.52z
		 M24.17,41.65c-0.19-0.29-0.4-0.58-0.62-0.87c-0.14-0.18-0.28-0.37-0.43-0.55c0.28,0,0.52-0.05,0.71-0.13
		c0.24-0.11,0.41-0.28,0.49-0.51c0.17-0.45,0-1.08-0.54-1.81c-0.53-0.72-1.44-1.54-2.77-2.36c0,0,0,0,0,0
		c-0.98-0.61-1.52-1.35-1.78-2.16c-0.26-0.81-0.22-1.68-0.02-2.55c0.38-1.66,1.35-3.27,1.97-4.28c0.17-0.12,0.06,0.23-0.63,1.51
		c-0.62,1.17-1.77,3.86-0.19,5.97c0.04-1.5,0.4-3.02,1-4.45c0.87-1.98,2.7-5.42,2.85-8.16c0.08,0.05,0.33,0.23,0.45,0.29
		c0,0,0,0,0,0c0.34,0.2,0.59,0.49,0.91,0.75c0.33,0.26,0.74,0.49,1.35,0.53c0.06,0,0.12,0.01,0.17,0.01c0.64,0,1.13-0.21,1.55-0.44
		c0.45-0.26,0.81-0.54,1.15-0.65c0,0,0,0,0,0c0.72-0.22,1.29-0.62,1.61-1.09c0.56,2.2,1.86,5.38,2.69,6.93
		c0.44,0.82,1.33,2.57,1.71,4.68c0.24-0.01,0.51,0.03,0.79,0.1c1-2.59-0.85-5.37-1.69-6.14c-0.34-0.33-0.36-0.48-0.19-0.47
		c0.91,0.81,2.11,2.43,2.55,4.27c0.2,0.84,0.24,1.72,0.03,2.59c0.1,0.04,0.21,0.09,0.32,0.14c1.6,0.78,2.19,1.46,1.91,2.38
		c-0.09,0-0.19,0-0.28,0c-0.01,0-0.02,0-0.03,0c0.23-0.73-0.28-1.27-1.65-1.89c-1.42-0.62-2.55-0.56-2.74,0.7
		c-0.01,0.07-0.02,0.13-0.03,0.2c-0.11,0.04-0.21,0.08-0.32,0.14c-0.67,0.36-1.03,1.03-1.23,1.84c-0.2,0.81-0.26,1.79-0.32,2.89
		c0,0,0,0,0,0c-0.03,0.55-0.26,1.3-0.49,2.1C30.14,42.8,26.91,43.52,24.17,41.65z M42.82,40.82c-0.02,0.36-0.28,0.64-0.77,0.93
		c-0.98,0.59-2.7,1.1-3.81,2.44c-0.96,1.14-2.13,1.77-3.16,1.85s-1.92-0.35-2.44-1.4l0,0l0,0c-0.33-0.62-0.19-1.59,0.08-2.62
		c0.27-1.03,0.67-2.08,0.72-2.94v0c0.06-1.1,0.12-2.06,0.3-2.8c0.18-0.74,0.48-1.24,0.99-1.52c0.02-0.01,0.05-0.03,0.07-0.04
		c0.06,0.95,0.53,1.92,1.36,2.13c0.91,0.24,2.23-0.54,2.78-1.18c0.11,0,0.22-0.01,0.32-0.01c0.49-0.01,0.9,0.02,1.31,0.38l0,0l0,0
		c0.32,0.27,0.47,0.79,0.61,1.36c0.13,0.58,0.24,1.2,0.63,1.65l0,0l0,0C42.6,39.89,42.84,40.46,42.82,40.82z"/>
	<path id="path28396-7" d="M27.51,18.27c0.03,0.09,0.17,0.07,0.26,0.12c0.07,0.04,0.13,0.12,0.21,0.12c0.08,0,0.2-0.03,0.21-0.11
		c0.01-0.1-0.14-0.17-0.23-0.21c-0.12-0.05-0.28-0.07-0.4-0.01C27.53,18.21,27.5,18.24,27.51,18.27L27.51,18.27z"/>
	<path id="path5461" d="M26.66,18.27c-0.03,0.09-0.17,0.07-0.26,0.12c-0.07,0.04-0.13,0.12-0.21,0.12c-0.08,0-0.2-0.03-0.21-0.11
		c-0.01-0.1,0.14-0.17,0.23-0.21c0.12-0.05,0.28-0.07,0.4-0.01C26.64,18.21,26.67,18.24,26.66,18.27L26.66,18.27z"/>
</g>
</svg>
