<?xml version="1.0" encoding="utf-8"?>
<!-- Generator: Adobe Illustrator 24.3.0, SVG Export Plug-In . SVG Version: 6.00 Build 0)  -->
<svg version="1.1" id="Layer_1" xmlns="http://www.w3.org/2000/svg" xmlns:xlink="http://www.w3.org/1999/xlink" x="0px" y="0px"
	 viewBox="0 0 56 56" style="enable-background:new 0 0 56 56;" xml:space="preserve">
<path d="M7.25,32.71h1.63v-4.24c0-0.84,0.55-1.44,1.33-1.44c0.76,0,1.23,0.48,1.23,1.25v4.44h1.58v-4.28c0-0.83,0.54-1.4,1.32-1.4
	c0.8,0,1.24,0.48,1.24,1.33v4.35h1.63v-4.75c0-1.39-0.9-2.31-2.26-2.31c-1,0-1.82,0.54-2.16,1.39h-0.04
	c-0.25-0.89-0.95-1.39-1.93-1.39c-0.94,0-1.67,0.53-1.97,1.33H8.81v-1.2H7.25L7.25,32.71L7.25,32.71z M20.77,31.6
	c-0.71,0-1.18-0.36-1.18-0.93c0-0.55,0.45-0.9,1.24-0.95l1.6-0.1v0.53C22.43,30.98,21.69,31.6,20.77,31.6L20.77,31.6z M20.28,32.83
	c0.89,0,1.76-0.46,2.16-1.22h0.03v1.1h1.57v-4.77c0-1.39-1.12-2.3-2.84-2.3c-1.76,0-2.87,0.93-2.94,2.22h1.51
	c0.1-0.58,0.59-0.95,1.37-0.95c0.8,0,1.29,0.42,1.29,1.14v0.5l-1.83,0.1c-1.69,0.1-2.63,0.84-2.63,2.07
	C17.97,31.98,18.94,32.83,20.28,32.83L20.28,32.83z M31.18,28.26c-0.11-1.46-1.24-2.61-3.07-2.61c-2.01,0-3.32,1.39-3.32,3.61
	c0,2.25,1.31,3.6,3.33,3.6c1.74,0,2.93-1.02,3.06-2.57h-1.54c-0.15,0.78-0.69,1.25-1.51,1.25c-1.03,0-1.7-0.84-1.7-2.29
	c0-1.42,0.66-2.29,1.69-2.29c0.87,0,1.39,0.56,1.52,1.29L31.18,28.26L31.18,28.26z M36.21,23.13c-2.75,0-4.48,1.88-4.48,4.87
	s1.73,4.87,4.48,4.87c2.74,0,4.47-1.87,4.47-4.87S38.95,23.13,36.21,23.13z M36.21,24.57c1.68,0,2.75,1.33,2.75,3.44
	c0,2.1-1.07,3.43-2.75,3.43c-1.69,0-2.75-1.33-2.75-3.43C33.46,25.9,34.52,24.57,36.21,24.57L36.21,24.57z M41.36,30.06
	c0.07,1.74,1.5,2.81,3.67,2.81c2.28,0,3.72-1.12,3.72-2.91c0-1.4-0.81-2.2-2.72-2.63l-1.08-0.25c-1.16-0.27-1.63-0.64-1.63-1.27
	c0-0.78,0.72-1.31,1.78-1.31c1.08,0,1.82,0.53,1.89,1.41h1.61c-0.04-1.66-1.41-2.78-3.49-2.78c-2.05,0-3.51,1.13-3.51,2.8
	c0,1.35,0.82,2.18,2.56,2.58l1.22,0.29c1.19,0.28,1.67,0.67,1.67,1.35c0,0.78-0.79,1.35-1.93,1.35c-1.15,0-2.02-0.57-2.12-1.44
	L41.36,30.06L41.36,30.06z"/>
</svg>
