<svg width="145" height="38" viewBox="0 0 145 38" fill="none" xmlns="http://www.w3.org/2000/svg">
<path d="M8.22653 4.4692H11.5797V1.04883H0V4.4692H3.28987V25.7469H0V29.1785H11.5723V25.7469H8.21908V4.4692H8.22653Z" fill="#CF0010"/>
<path d="M95.5923 7.39321C94.2439 7.36446 92.9036 7.60951 91.651 8.1138C90.3985 8.6181 89.2592 9.37133 88.3009 10.3287C86.3114 12.2907 85.3203 15.0383 85.3203 18.4925C85.3203 21.9467 86.33 24.6943 88.3009 26.6563C90.277 28.5435 92.8965 29.5924 95.6176 29.5861C98.3387 29.5798 100.953 28.5188 102.921 26.6224C104.884 24.6379 105.879 21.9053 105.879 18.4925C105.879 15.0796 104.873 12.2907 102.899 10.3287C101.939 9.36949 100.797 8.61519 99.5416 8.11084C98.2863 7.60649 96.9431 7.36243 95.5923 7.39321ZM99.2771 23.9312C98.8654 24.5371 98.3114 25.0307 97.6645 25.3678C97.0176 25.7049 96.298 25.8751 95.5699 25.8632C94.7933 25.8952 94.0232 25.7077 93.3464 25.3219C92.6697 24.936 92.1133 24.3672 91.7398 23.6794C90.9686 22.3601 90.5774 20.6725 90.5774 18.6616C90.5774 13.6175 92.2577 11.0579 95.5737 11.0579C96.3221 11.0414 97.062 11.2212 97.7209 11.5796C98.3799 11.938 98.9353 12.4627 99.333 13.1026C100.186 14.3693 100.615 16.1283 100.615 18.3309C100.596 20.8304 100.168 22.7097 99.2771 23.9237V23.9312ZM112.768 13.3131V7.92318H105.946V11.2045H107.925V29.1332H112.854V21.6159C112.854 19.6426 112.966 17.9964 113.599 16.5944C114.247 15.1172 115.108 14.1325 116.155 13.6777C117.269 13.2843 118.439 13.0762 119.62 13.0613V7.58115C117.362 7.58115 113.953 9.9115 112.768 13.3131Z" fill="black"/>
<path d="M18.6669 9.8251C20.3882 8.32164 22.1431 7.56991 23.883 7.56991C27.3741 7.56991 29.0618 10.1709 29.0618 15.5194V29.1333H24.1662V16.0607C24.1662 14.7113 23.9985 13.8243 23.6445 13.2718C23.436 12.9612 23.1506 12.7111 22.8166 12.5462C22.4826 12.3814 22.1117 12.3076 21.7407 12.3321C20.4702 12.3321 19.1736 12.8621 17.8845 13.907L17.6572 14.0987V29.1333H12.7504V11.2045H10.2578V7.92322H17.6535V10.7046L18.6669 9.8251Z" fill="#CF0010"/>
<path d="M36.3197 7.75408H40.9508V11.2083H36.2861V29.1784H31.7556V11.2045H29.5425V7.75033H31.7556V6.79187C31.6957 5.02199 32.2652 3.28886 33.3614 1.90563C34.3748 0.695349 36.0849 0 38.1006 0C39.503 0.00588425 40.8896 0.298699 42.1766 0.86073V3.68723C40.772 2.86033 39.1326 2.7814 38.1378 3.18357C37.0425 3.62709 36.3197 4.34875 36.3197 6.45359V7.75408Z" fill="#CF0010"/>
<path d="M46.2473 8.1148C47.4996 7.61127 48.8392 7.36593 50.187 7.39325C51.5374 7.36348 52.88 7.60764 54.135 8.11125C55.3901 8.61487 56.5321 9.36767 57.4933 10.325C59.4679 12.287 60.4739 15.0759 60.4739 18.4888C60.4739 21.9016 59.4754 24.6342 57.5156 26.6187C55.5481 28.5151 52.9335 29.5761 50.2123 29.5824C47.4912 29.5887 44.8718 28.5398 42.8957 26.6526C40.921 24.6905 39.915 21.943 39.915 18.4888C39.915 15.0346 40.9061 12.287 42.8957 10.325C43.8553 9.36985 44.995 8.61833 46.2473 8.1148Z" fill="#CF0010"/>
<path d="M52.2534 25.3706C52.9037 25.0335 53.4608 24.5388 53.8749 23.931V23.9234C54.7691 22.7094 55.2125 18.3306 55.2125 18.3306C55.2125 18.3306 54.7766 14.369 53.9197 13.1023C53.5223 12.463 52.9674 11.9386 52.3092 11.5802C51.651 11.2218 50.9119 11.0418 50.1641 11.0576C46.8444 11.0576 45.1641 13.6172 45.1641 18.6613C45.1641 20.6722 45.5553 22.3598 46.334 23.6791C46.7056 24.3651 47.2595 24.9329 47.9335 25.3187C48.6075 25.7045 49.3748 25.8929 50.1492 25.8629C50.8801 25.877 51.6032 25.7078 52.2534 25.3706Z" fill="white"/>
<path d="M119.191 3.72853H120.976V29.1783H125.968V0.172852H119.191V3.72853ZM138.058 0.172852V3.72853H139.985V9.43415C139.407 8.79762 138.706 8.2879 137.924 7.93676C137.143 7.58563 136.298 7.4006 135.443 7.39321C133.129 7.39321 131.154 8.38549 129.56 10.325C127.965 12.2644 127.142 15.0345 127.142 18.4887C127.142 21.9429 127.954 24.6905 129.556 26.6525C131.158 28.6145 133.129 29.5842 135.439 29.5842C136.292 29.5704 137.134 29.3836 137.914 29.0349C138.695 28.6863 139.397 28.1828 139.981 27.5546V29.1295H144.992V0.187886H138.058V0.172852ZM139.489 23.9237C138.666 25.2092 137.567 25.8557 136.225 25.8557C134.735 25.8557 133.591 25.1227 132.85 23.6794C132.164 22.3601 131.821 20.6725 131.821 18.6616C131.821 13.6175 133.312 11.0579 136.225 11.0579C137.615 11.0579 138.729 11.742 139.534 13.1026C140.279 14.3693 140.651 16.1283 140.651 18.3309C140.67 20.8304 140.271 22.7097 139.493 23.9237H139.489ZM88.606 4.70578V0.947132H80.5658V4.70578H82.8012L79.1723 21.2438L75.3348 0.962167V0.935856H68.7997V4.6945H71.3631V4.79223L67.8906 21.2739L63.9562 4.70578H66.3631V0.947132H57.0039V4.70578H58.9711C58.9711 4.70578 65.1522 28.6371 65.2677 29.0317H69.299L73.0248 12.4035L76.6723 29.043H81.024C81.147 28.6408 86.5158 4.71705 86.5158 4.71705H88.5874L88.606 4.70578Z" fill="black"/>
</svg>
