<svg xmlns="http://www.w3.org/2000/svg" xmlns:xlink="http://www.w3.org/1999/xlink" viewBox="0 0 56 56"><defs><mask id="a" x="15.5" y="13.93" width="25.01" height="28.13" maskUnits="userSpaceOnUse"><path d="M40.5,13.93h-25v28h25Zm-6,12.34-3.89,0a2.4,2.4,0,0,0-2.47-2.11c-2.25,0-2.78,2.42-2.78,3.93,0,1,.39,3.91,2.78,3.91a2.21,2.21,0,0,0,2.48-2.25l3.71.21c0,1.95-1.19,5.4-6.17,5.4-3.08,0-7-1.79-7-7.27s4-7.39,7-7.39A6.13,6.13,0,0,1,34.47,26.27Z" fill="#c4c4c4" fill-rule="evenodd"/></mask></defs><g mask="url(#a)"><path d="M40.5,22.21A2.49,2.49,0,0,0,40.2,21a2.43,2.43,0,0,0-.91-.89l-10-5.76a2.44,2.44,0,0,0-2.66,0c-1.32.78-7.95,4.59-9.93,5.73A2.3,2.3,0,0,0,15.5,22.2V33.8A2.42,2.42,0,0,0,15.79,35a2.37,2.37,0,0,0,.92.91c2,1.14,8.61,5,9.93,5.73a2.44,2.44,0,0,0,2.66,0l10-5.76a2.32,2.32,0,0,0,1.21-2.14Z" opacity="0.9" style="isolation:isolate"/><path d="M29.28,14.34a2.45,2.45,0,0,0-2.65,0c-1.33.78-7.95,4.58-9.92,5.72a2.29,2.29,0,0,0-1.21,2.13V33.77A2.42,2.42,0,0,0,15.79,35a2.3,2.3,0,0,0,.92.91l2,1.13L37,18.76Z"/></g></svg>