<svg xmlns="http://www.w3.org/2000/svg" viewBox="0 0 56 56">
	<polygon points="31.53,28.4 33.44,28.4 33.92,26.14 32.02,26.14 	"/>
	<path d="M28,14c-7.73,0-14,6.27-14,14s6.27,14,14,14s14-6.27,14-14S35.73,14,28,14z M27.42,32.67
		c-0.93,0.45-1.96,0.67-3,0.63c-0.68,0.03-1.36-0.09-2-0.34c-0.64-0.26-1.21-0.65-1.69-1.14c-0.95-1.07-1.45-2.47-1.38-3.9
		c-0.03-0.77,0.09-1.53,0.36-2.25c0.26-0.72,0.67-1.38,1.2-1.94c0.51-0.53,1.13-0.94,1.82-1.21c0.68-0.27,1.41-0.4,2.15-0.38
		c0.87-0.03,1.73,0.12,2.54,0.43v1.35c-0.79-0.44-1.67-0.66-2.57-0.64c-0.56-0.02-1.11,0.08-1.63,0.29
		c-0.52,0.22-0.98,0.54-1.37,0.95c-0.8,0.91-1.22,2.11-1.15,3.32c-0.06,1.15,0.32,2.28,1.07,3.16c0.37,0.38,0.81,0.69,1.3,0.89
		c0.49,0.2,1.01,0.3,1.54,0.28c0.99,0.02,1.97-0.23,2.82-0.73L27.42,32.67z M36.82,26.14h-1.97l-0.47,2.26h2.12l-0.2,0.8h-2.03
		l-0.66,3h-1l0.65-3h-1.89l-0.63,3h-0.93l0.64-3h-2l0.15-0.8h2l0.46-2.27h-2.08l0.15-0.79h2.03l0.64-3h1l-0.63,3h1.9l0.64-3h0.93
		l-0.64,3h1.99L36.82,26.14z"/>
</svg>
