<svg xmlns="http://www.w3.org/2000/svg" viewBox="0 0 56 56">
<path style="opacity:0.9" d="M40.5,22.21c0-0.42-0.1-0.84-0.3-1.21c-0.22-0.37-0.53-0.68-0.91-0.89l-10-5.76c-0.81-0.53-1.85-0.53-2.66,0
	c-1.32,0.78-7.95,4.59-9.93,5.73c-0.77,0.42-1.24,1.24-1.2,2.12v11.6c-0.01,0.42,0.09,0.83,0.29,1.2c0.22,0.38,0.53,0.7,0.92,0.91
	c2,1.14,8.61,5,9.93,5.73c0.81,0.53,1.85,0.53,2.66,0l10-5.76c0.78-0.42,1.25-1.25,1.21-2.14L40.5,22.21z M28.14,32
	c1.21,0.15,2.31-0.71,2.46-1.92c0.01-0.11,0.02-0.22,0.02-0.33l3.71,0.21c0,1.95-1.19,5.4-6.17,5.4c-3.08,0-7-1.79-7-7.27
	c0-5.48,4-7.39,7-7.39c3.25-0.11,6.02,2.33,6.31,5.57h-3.86c-0.15-1.24-1.22-2.16-2.47-2.11c-2.25,0-2.78,2.42-2.78,3.93
	C25.36,29.09,25.75,32,28.14,32z"/>
	<path d="M21.16,28.09c0-5.48,4-7.39,7-7.39c1.9-0.06,3.64,0.75,4.81,2.09L37,18.76l-7.72-4.42c-0.81-0.52-1.84-0.52-2.65,0
		c-1.33,0.78-7.95,4.58-9.92,5.72c-0.78,0.42-1.25,1.25-1.21,2.13v11.58c-0.01,0.43,0.09,0.85,0.29,1.23
		c0.21,0.39,0.53,0.7,0.92,0.91l2,1.13l4.03-4.03C21.79,31.88,21.16,30.28,21.16,28.09z"/>
	<path d="M28.14,24.16c-2.25,0-2.78,2.42-2.78,3.93c0,0.43,0.07,1.21,0.34,1.96l4.64-4.63C29.92,24.64,29.08,24.13,28.14,24.16z"/>
</svg>
