<svg xmlns="http://www.w3.org/2000/svg" viewBox="0 0 56 56">
<path d="M40.19,21L28,28l12.19,7c0.18-0.3,0.29-0.65,0.32-1V22C40.48,21.65,40.37,21.3,40.19,21z M36.33,28.46h-0.92v0.93h-0.93
	v-0.93h-0.93v-0.92h0.93v-0.93h0.93v0.93h0.92V28.46z M38.92,28.46v0.93H38v-0.93h-1v-0.92h1v-0.93h0.88v0.93h0.93l0.04,0.92H38.92z
	"/>
<path style="opacity:0.9" d="M28,28l-3.6,2.07c0.35,0.62,0.86,1.16,1.52,1.54c2,1.15,4.55,0.46,5.69-1.53l3.61,2.09
	c-1.49,2.59-4.25,4.18-7.24,4.18c-3.09-0.01-5.78-1.7-7.21-4.2L15.81,35c0.18,0.33,0.45,0.61,0.77,0.81l10.33,6
	c0.68,0.35,1.49,0.35,2.17,0l10.34-6c0.32-0.2,0.58-0.48,0.76-0.81L28,28z"/>
<path style="opacity:0.8" d="M19.67,28c-0.01-2.99,1.59-5.75,4.18-7.24c3.99-2.29,9.08-0.92,11.37,3.07l-3.61,2.09
	c-0.37-0.64-0.9-1.17-1.53-1.53c-2-1.15-4.55-0.46-5.69,1.53c-0.77,1.33-0.7,2.9,0.01,4.15L28,28l12.18-7
	c-0.18-0.33-0.44-0.61-0.76-0.81l-10.34-6c-0.68-0.35-1.49-0.35-2.17,0l-10.33,6c-0.63,0.4-1.03,1.07-1.09,1.81v12
	c0.03,0.35,0.14,0.7,0.32,1l4.96-2.85C20.07,30.93,19.67,29.51,19.67,28z"/>
</svg>
