<svg xmlns="http://www.w3.org/2000/svg" xmlns:xlink="http://www.w3.org/1999/xlink" version="1.0" viewBox="0 0 56 56"><defs><linearGradient id="c"><stop offset="0" stop-opacity=".198"/><stop offset="1" stop-opacity=".823"/></linearGradient><linearGradient id="b"><stop offset="0" stop-color="#fff"/><stop offset="1" stop-color="#fff" stop-opacity=".333"/></linearGradient><linearGradient id="a"><stop offset="0" stop-color="#f2f2f0" stop-opacity=".135"/><stop offset="1" stop-color="#eeeeec" stop-opacity=".396"/></linearGradient><linearGradient id="d" x1="27.248" x2="44.496" y1="33.563" y2="47.031" gradientTransform="matrix(.4714 0 0 -.46751 -2.768 55.879)" gradientUnits="userSpaceOnUse" spreadMethod="reflect" xlink:href="#a"/></defs><path d="M12.793 17.306c-.382.048-.681.353-.682.722l.024 18.844a.7.7 0 000 .082.614.614 0 000 .146c.004.018.014.037.02.055a.31.31 0 000 .01c.004.017.004.036.01.054v.018a.726.726 0 00.029.055v.009c.013.018.033.037.049.054a.31.31 0 000 .01.726.726 0 00.03.054v.018c.018.015.038.024.058.037v.018a.616.616 0 00.058.055.616.616 0 00.04.036.39.39 0 00.01 0c.035.03.076.058.117.082h.02c.018.01.038.019.058.027h.01c.018.01.039.02.058.027.029.006.06.006.088.01.048.008.098.017.147.017h.078l7.217-.029c2.063-.003 3.444-.038 4.267-.143h.02c.787-.109 1.621-.31 2.528-.605 1.577-.493 2.975-1.221 4.177-2.194 1.177-.943 2.09-2.058 2.73-3.314a8.582 8.582 0 00.962-3.958c-.003-1.915-.582-3.708-1.745-5.321-1.162-1.614-2.75-2.85-4.702-3.668-1.985-.841-4.574-1.225-7.785-1.22l-7.793.012c-.033 0-.065-.004-.098 0zm4.195 3.878l3.36-.005c1.57-.003 2.686.045 3.32.132a9.415 9.415 0 012.09.562c.739.282 1.382.626 1.936 1.055v.018c1.521 1.165 2.238 2.565 2.242 4.419.003 1.898-.69 3.376-2.172 4.616a7.218 7.218 0 01-1.523.96c-.528.246-1.218.458-2.089.64-.82.165-2.068.259-3.69.261l-3.458.006-.016-12.664z" font-family="Gill Sans MT" font-size="64" font-weight="400" style="line-height:125%;text-align:start"/><path d="M40.614 23.898a5.487 5.03 0 11-10.973 0 5.487 5.03 0 1110.973 0z"/><path fill="url(#d)" d="M12.538 40.188h29.965c1.364 0 2.462-1.182 2.462-2.65v-4.242c-10.703-4.117-26.199-6.323-34.888-6.392V37.54c0 1.467 1.097 2.649 2.46 2.649z"/><path d="M43.143 18.37a1.763 1.616 0 11-3.526 0 1.763 1.616 0 113.526 0z"/></svg>