<svg xmlns="http://www.w3.org/2000/svg" preserveAspectRatio="xMidYMid" viewBox="0 0 56 56"><path fill-opacity=".4" d="M21.103 20.408l-1.958-1.958.009 14.154.023.662c.01.31.068.662.164 1.026l15.514 5.47 3.878-1.718.002-.004-17.632-17.632"/><path fill-opacity=".2" d="M19.341 34.292c0-.005-.003-.013-.003-.02 0 .007 0 .013.003.02zm19.392 3.752l-3.877 1.719-15.514-5.47c.296 1.137.952 2.415 1.658 3.113l5.063 5.035 11.257.015 1.415-4.416z"/><path fill-opacity=".6" d="M13.115 27.559c-.501.535-.252 1.639.555 2.452l3.482 3.51 2.19.77a4.667 4.667 0 01-.165-1.025l-.024-.662-.008-14.154z"/><path d="M34.983 18.632a4.846 4.846 0 00-1.03-.16l-.699-.024-14.109.001 19.592 19.59h.002l1.72-3.882-5.477-15.525"/><path fill-opacity=".8" d="M34.964 18.629c.009 0 .015.003.02.004h-.001c-.004-.003-.01-.003-.018-.004zm3.131 1.665c-.711-.716-1.972-1.368-3.111-1.661l5.475 15.524-1.721 3.883h-.002l4.205-1.343.009-11.528z"/><path fill-opacity=".3" d="M34.216 16.456l-3.51-3.483c-.811-.805-1.915-1.054-2.45-.555l-9.11 6.031 14.108-.001.7.023c.316.01.665.068 1.029.161z"/></svg>