<svg width="46" height="17" viewBox="0 0 46 17" fill="none" xmlns="http://www.w3.org/2000/svg">
    <g opacity="0.5">
        <path d="M1.76972 16.8886C1.3172 16.8886 0.932556 16.7379 0.615784 16.4363C0.299012 16.1269 0.140625 15.7596 0.140625 15.3344C0.140625 14.9013 0.299012 14.5302 0.615784 14.2208C0.932556 13.9115 1.3172 13.7568 1.76972 13.7568C2.22979 13.7568 2.61821 13.9115 2.93498 14.2208C3.25929 14.5302 3.42145 14.9013 3.42145 15.3344C3.42145 15.7596 3.25929 16.1269 2.93498 16.4363C2.61821 16.7379 2.22979 16.8886 1.76972 16.8886Z" fill="#231044"/>
        <path d="M19.8624 16.6337H16.9209L9.17143 4.40786C8.97536 4.09853 8.81312 3.77754 8.68498 3.44505H8.61705C8.6774 3.80084 8.70757 4.56253 8.70757 5.7301V16.6337H6.10547V0H9.23922L16.7286 11.9359C17.0454 12.4309 17.249 12.7711 17.3396 12.9566H17.3848C17.3094 12.5159 17.2716 11.7697 17.2716 10.7179V0H19.8624V16.6337Z" fill="#231044"/>
        <path d="M32.529 16.6337H23.4219V0H32.167V2.34316H26.1145V7.05249H31.6919V9.384H26.1145V14.3022H32.529V16.6337Z" fill="#231044"/>
        <path d="M45.476 2.34316H40.815V16.6337H38.1223V2.34316H33.4727V0H45.476V2.34316Z" fill="#231044"/>
    </g>
</svg>
