<svg xmlns="http://www.w3.org/2000/svg" viewBox="0 0 56 56"><path d="M10.23,24.9c-.08,0-.1,0-.05-.11l.42-.55a.37.37,0,0,1,.22-.1H18.1c.08,0,.11.05.06.12l-.33.53a.3.3,0,0,1-.22.11Z"/><path d="M7.16,26.77c-.07,0-.1-.05,0-.11l.42-.54A.34.34,0,0,1,7.76,26h9.29a.1.1,0,0,1,.1.14l-.17.49a.18.18,0,0,1-.18.13Z"/><path d="M12.1,28.64c-.08,0-.11-.05-.07-.12l.29-.52a.23.23,0,0,1,.2-.12H16.6a.13.13,0,0,1,.12.14l0,.49a.14.14,0,0,1-.15.13Z"/><path d="M33.24,24.54c-1.28.31-2.16.58-3.42.89-.31.08-.33.11-.59-.19a2.8,2.8,0,0,0-1-.78,3.54,3.54,0,0,0-3.68.3,4.38,4.38,0,0,0-2.08,3.88,3.2,3.2,0,0,0,2.75,3.2,3.76,3.76,0,0,0,3.47-1.33c.19-.22.35-.47.56-.75H25.36c-.43,0-.52-.26-.38-.61.26-.62.75-1.7,1-2.23a.57.57,0,0,1,.5-.33h7.42c0,.55,0,1.11-.12,1.65a8.51,8.51,0,0,1-1.67,4,8.41,8.41,0,0,1-5.79,3.46,7.21,7.21,0,0,1-5.47-1.35,6.44,6.44,0,0,1-2.59-4.52,8,8,0,0,1,1.72-6,9.07,9.07,0,0,1,5.71-3.52,7.07,7.07,0,0,1,5.39,1,6.46,6.46,0,0,1,2.36,2.88C33.55,24.38,33.47,24.48,33.24,24.54Z"/><path d="M40,35.81A7.58,7.58,0,0,1,35,34a6.42,6.42,0,0,1-2.2-3.94,7.75,7.75,0,0,1,1.66-6.15,8.59,8.59,0,0,1,5.7-3.41A7.5,7.5,0,0,1,46,21.57a6.28,6.28,0,0,1,2.86,4.54A7.87,7.87,0,0,1,46.49,33a9.21,9.21,0,0,1-4.89,2.6C41.06,35.72,40.51,35.75,40,35.81Zm4.86-8.24a6,6,0,0,0-.06-.67,3.37,3.37,0,0,0-4.16-2.72,4.42,4.42,0,0,0-3.56,3.54,3.37,3.37,0,0,0,1.87,3.85,3.72,3.72,0,0,0,3.33-.13A4.42,4.42,0,0,0,44.83,27.57Z"/></svg>