<svg version="1.1" xmlns="http://www.w3.org/2000/svg" viewBox="0 0 56 56">
<path d="M10.2,24.9c-0.1,0-0.1,0-0.1-0.1l0.4-0.5c0.1-0.1,0.1-0.1,0.2-0.1h7.3c0.1,0,0.1,0,0.1,0.1l-0.3,0.5
	c-0.1,0.1-0.1,0.1-0.2,0.1L10.2,24.9z"/>
<path d="M7.2,26.8c-0.1,0-0.1,0,0-0.1l0.4-0.5c0-0.1,0.1-0.1,0.2-0.1H17c0.1,0,0.1,0,0.1,0.1c0,0,0,0,0,0L17,26.6
	c0,0.1-0.1,0.1-0.2,0.1L7.2,26.8z"/>
<path d="M12.1,28.6c-0.1,0-0.1,0-0.1-0.1l0.3-0.5c0-0.1,0.1-0.1,0.2-0.1h4.1c0.1,0,0.1,0.1,0.1,0.1c0,0,0,0,0,0v0.5
	c0,0.1-0.1,0.1-0.1,0.1c0,0,0,0,0,0L12.1,28.6z"/>
<path d="M48.9,26.1c-0.2-1.9-1.3-3.5-2.9-4.5c-1.7-1.1-3.8-1.5-5.8-1.1c-2.3,0.3-4.3,1.6-5.7,3.4c-0.7,0.8-1.1,1.7-1.4,2.7h-6.6
	c-0.2,0-0.4,0.1-0.5,0.3c-0.2,0.5-0.7,1.6-1,2.2c-0.1,0.3,0,0.6,0.4,0.6h3.9c-0.2,0.3-0.4,0.5-0.6,0.8c-0.8,1-2.2,1.5-3.5,1.3
	c-1.6-0.2-2.8-1.6-2.8-3.2c-0.1-1.6,0.7-3.1,2.1-3.9c1.1-0.8,2.5-0.9,3.7-0.3c0.4,0.2,0.7,0.4,1,0.8c0.3,0.3,0.3,0.3,0.6,0.2
	c1.3-0.3,2.1-0.6,3.4-0.9c0.2-0.1,0.3-0.2,0.2-0.3C33,23,32.1,22,31.1,21.3c-1.6-1-3.5-1.4-5.4-1c-2.3,0.4-4.3,1.7-5.7,3.5
	c-1.4,1.7-2,3.8-1.7,6c0.2,1.8,1.1,3.4,2.6,4.5c1.6,1.2,3.5,1.7,5.5,1.4c2.3-0.3,4.4-1.5,5.8-3.5c0.3-0.4,0.6-0.9,0.9-1.4
	c0.3,1.2,1,2.4,2,3.2c1.4,1.2,3.2,1.8,5,1.8c0.5-0.1,1.1-0.1,1.6-0.2c1.9-0.3,3.6-1.3,4.9-2.6C48.4,31.2,49.2,28.7,48.9,26.1z
	 M44.8,27.6c-0.1,1.7-1,3.2-2.5,3.9c-1,0.6-2.3,0.6-3.3,0.1c-1.5-0.7-2.2-2.3-1.9-3.8c0.3-1.8,1.8-3.2,3.6-3.5c0.1,0,0.2,0,0.3-0.1
	c1.8-0.3,3.6,0.9,3.9,2.8C44.8,27.1,44.9,27.3,44.8,27.6L44.8,27.6z"/>
</svg>
