<svg xmlns="http://www.w3.org/2000/svg" viewBox="0 0 56 56"><path d="M36.49,40.6A3.89,3.89,0,0,0,40,42.79c1.48,0,2.42-.75,2.42-1.78,0-1.24-1-1.68-2.59-2.4L39,38.22c-2.58-1.11-4.29-2.5-4.29-5.45,0-2.71,2-4.77,5.22-4.77A5.25,5.25,0,0,1,45,30.89L42.18,32.7a2.43,2.43,0,0,0-2.3-1.55,1.56,1.56,0,0,0-1.7,1.55c0,1.09.66,1.53,2.19,2.2l.89.38C44.29,36.6,46,37.94,46,41c0,3.26-2.52,5-5.91,5a6.82,6.82,0,0,1-6.49-3.7Zm-12.59.31c.56,1,1.07,1.86,2.3,1.86s1.91-.47,1.91-2.27V28.21h3.56V40.55c0,3.74-2.16,5.44-5.32,5.44A5.52,5.52,0,0,1,21,42.69Z"/></svg>