<svg xmlns="http://www.w3.org/2000/svg" viewBox="0 0 56 56"><path d="M23,38.49s-1.47.86,1,1.14a22,22,0,0,0,8-.33,13.85,13.85,0,0,0,2.12,1C26.55,43.55,17.06,40.14,23,38.49Z"/><path d="M22,34.29s-1.65,1.22.87,1.48a31.24,31.24,0,0,0,10.25-.49,4.64,4.64,0,0,0,1.58,1C25.66,38.9,15.54,36.45,22,34.29Z"/><path d="M29.78,27.16c1.86,2.13-.48,4.05-.48,4.05s4.7-2.43,2.54-5.47c-2-2.83-3.56-4.24,4.81-9.09C36.65,16.65,23.51,19.93,29.78,27.16Z"/><path d="M39.72,41.6s1.09.9-1.19,1.59c-4.34,1.31-18.06,1.71-21.87.05-1.37-.59,1.2-1.42,2-1.59A4.83,4.83,0,0,1,20,41.5c-1.52-1.08-9.84,2.1-4.22,3C31.09,47,43.7,43.4,39.72,41.6Z"/><path d="M23.67,29.94s-7,1.65-2.47,2.25a52.23,52.23,0,0,0,9.22-.09c2.89-.25,5.79-.77,5.79-.77a12.34,12.34,0,0,0-1.75.94c-7.09,1.87-20.78,1-16.84-.91A13.17,13.17,0,0,1,23.67,29.94Z"/><path d="M36.18,36.93c7.21-3.74,3.88-7.34,1.55-6.85a5.57,5.57,0,0,0-.82.22,1.34,1.34,0,0,1,.61-.48c4.6-1.61,8.14,4.77-1.48,7.3A.59.59,0,0,0,36.18,36.93Z"/><path d="M31.84,8.81s4,4-3.78,10.12c-6.23,4.92-1.42,7.73,0,10.94-3.64-3.29-6.31-6.18-4.52-8.87C26.17,17.06,33.45,15.14,31.84,8.81Z"/><path d="M24.38,47.07c6.91.45,17.53-.24,17.78-3.51,0,0-.49,1.24-5.72,2.22A56.88,56.88,0,0,1,19,46.05S19.83,46.78,24.38,47.07Z"/></svg>