<svg xmlns="http://www.w3.org/2000/svg" viewBox="0 0 56 56"><path d="M13.21,22.54h5.57A4.32,4.32,0,0,1,22.32,24a4.71,4.71,0,0,1,.73,3.8,7.52,7.52,0,0,1-.64,2.16,6.51,6.51,0,0,1-1.33,1.91,4.66,4.66,0,0,1-2.22,1.37,10.46,10.46,0,0,1-2.45.29H13.92l-.79,3.94H10.25Zm2.43,2.37L14.4,31.13a1,1,0,0,0,.25,0h.29a10.68,10.68,0,0,0,3.32-.39c.88-.29,1.48-1.3,1.78-3,.25-1.45,0-2.29-.75-2.51a9.12,9.12,0,0,0-2.76-.31l-.47,0h-.44Z"/><path d="M26.34,18.58H29.2l-.81,4H31a5.19,5.19,0,0,1,3.15.87c.71.56.92,1.61.63,3.16l-1.4,6.91h-2.9l1.33-6.6a1.86,1.86,0,0,0-.13-1.47A1.76,1.76,0,0,0,30.22,25l-2.3,0-1.7,8.53H23.35Z"/><path d="M37.82,22.54h5.57A4.32,4.32,0,0,1,46.93,24a4.71,4.71,0,0,1,.73,3.8A7.52,7.52,0,0,1,47,29.91a6.51,6.51,0,0,1-1.33,1.91,4.66,4.66,0,0,1-2.22,1.37,10.46,10.46,0,0,1-2.45.29H38.53l-.79,3.94H34.85Zm2.43,2.37L39,31.13a1,1,0,0,0,.24,0h.3a10.68,10.68,0,0,0,3.32-.39c.88-.29,1.48-1.3,1.78-3,.25-1.45,0-2.29-.75-2.51a9.12,9.12,0,0,0-2.76-.31l-.47,0h-.44Z"/></svg>