<svg xmlns="http://www.w3.org/2000/svg" viewBox="0 0 56 56"><path d="M43.42,32.16a1.6,1.6,0,0,0-1.31-1,3.17,3.17,0,0,0-1,.06,9.69,9.69,0,0,1-1.61.21,30.69,30.69,0,0,0,3.28-7.79c1.09-4.2.51-6.12-.17-7A9.41,9.41,0,0,0,35,13a13.91,13.91,0,0,0-4,.55,16.37,16.37,0,0,0-2.3-.21,7.57,7.57,0,0,0-4,1,18.21,18.21,0,0,0-2.83-.71c-2.77-.45-5-.1-6.64,1.05-2,1.4-2.9,3.83-2.73,7.21a41.76,41.76,0,0,0,1.6,7.46,26.37,26.37,0,0,0,1.73,4.4,5.52,5.52,0,0,0,2.79,2.91,2.76,2.76,0,0,0,2.72-.59,2.38,2.38,0,0,0,.57.49A3.47,3.47,0,0,0,23,37a5.75,5.75,0,0,0,3.76-.22c0,.19,0,.38,0,.54s0,.52,0,.76a13.25,13.25,0,0,0,.51,3.76s0,.13.06.2h0a4.65,4.65,0,0,0,1.13,2A3.38,3.38,0,0,0,30.9,45,5.57,5.57,0,0,0,32,44.84a5.27,5.27,0,0,0,3.52-2c.93-1.32,1.38-3.3,1.46-6.42l0-.26,0-.16.22,0h0a8.59,8.59,0,0,0,3.61-.62C41.65,35,44,33.8,43.42,32.16Zm-.88.24c-.13-.42-.58-.55-1.31-.4-2.19.45-3,.14-3.23-.05a30,30,0,0,0,3.85-8.62,16,16,0,0,0,.57-3.71,4,4,0,0,0-.58-2.51,8.54,8.54,0,0,0-6.9-3.22,11.91,11.91,0,0,0-4,.63,10.47,10.47,0,0,0-2.25-.29,6.59,6.59,0,0,0-3.85,1.06,17.59,17.59,0,0,0-3.13-.82c-2.53-.4-4.54-.1-6,.92-1.71,1.21-2.5,3.38-2.35,6.45A40,40,0,0,0,15,29.07c1.22,4,2.55,6.26,3.94,6.73a1.93,1.93,0,0,0,.56.09,2.35,2.35,0,0,0,1.79-1c.79-1,1.61-1.88,2.46-2.78a3.93,3.93,0,0,0,1.77.47v0h0l-.31.39h0c-.43.54-.52.65-1.9.93h0c-.39.09-1.43.3-1.44,1s1.23,1.13,1.37,1.16a5.56,5.56,0,0,0,1.42.19,4.17,4.17,0,0,0,2.86-1.07c0,2.84.09,5.63.43,6.48h0A3.27,3.27,0,0,0,31,44.13a5.2,5.2,0,0,0,1-.12c2.24-.48,3.22-1.47,3.6-3.66.2-1.17.55-4,.71-5.46a4.31,4.31,0,0,0,1.27.16,7.41,7.41,0,0,0,2.87-.55C41.34,34.12,42.81,33.2,42.54,32.4ZM37.19,22.28a10.34,10.34,0,0,1-.13,1.26A12,12,0,0,0,36.9,25,10.63,10.63,0,0,0,37,26.7h0a5.94,5.94,0,0,1-.27,3.4c-.08-.16-.16-.32-.23-.48s-.21-.42-.41-.78h0c-.78-1.39-2.6-4.65-1.67-6C34.72,22.47,35.42,22.06,37.19,22.28Zm-2.14-7.49a7.54,7.54,0,0,1,6.09,2.87c1.11,1.42-.11,7.88-3.66,13.45L37.37,31l0-.06a6.31,6.31,0,0,0,.57-4.33,12.12,12.12,0,0,1-.11-1.54,12.76,12.76,0,0,1,.15-1.37A9,9,0,0,0,38.08,22a.58.58,0,0,0,0-.24,9.58,9.58,0,0,0-2.18-4.09A9.89,9.89,0,0,0,32.45,15,11.16,11.16,0,0,1,35.05,14.79ZM20.56,34.31c-.72.86-1.21.69-1.37.64h0c-1.06-.36-2.29-2.59-3.38-6.14a40.43,40.43,0,0,1-1.53-7c-.13-2.74.53-4.64,2-5.67,2.35-1.67,6.22-.67,7.78-.16l0,0,0,0c-2.55,2.58-2.49,7-2.48,7.25a4.07,4.07,0,0,0,0,.44h0a18.52,18.52,0,0,1-.1,3.68,4.67,4.67,0,0,0,1.23,3.89l.32.3C22.52,32.06,21.57,33.09,20.56,34.31Zm2.73-3.64a3.77,3.77,0,0,1-1-3.15,18.71,18.71,0,0,0,.1-3.85v0h0c0-.1,0-.19,0-.26a4.91,4.91,0,0,1,3.34-1,1.37,1.37,0,0,1,1.05,1.17c.73,3.4.09,4.82-.42,6h0c-.11.24-.21.46-.29.69l-.07.18h0a12.38,12.38,0,0,0-.42,1.26,3.16,3.16,0,0,1-2.28-1Zm.13,4.6a2.14,2.14,0,0,1-.6-.26,3,3,0,0,1,.64-.19c1.61-.33,1.86-.57,2.41-1.26.13-.16.27-.34.46-.56h0c.3-.33.43-.27.67-.17h0a1,1,0,0,1,.47.6.64.64,0,0,1-.06.56A3.56,3.56,0,0,1,23.42,35.27Zm8.47,7.87a2.41,2.41,0,0,1-3.14-1.74c-.3-.75-.45-4.1-.35-7.81a.32.32,0,0,0,0-.14l-.06-.27a1.77,1.77,0,0,0-1-1.17h0a1.31,1.31,0,0,0-.91-.11,10,10,0,0,1,.39-1.17l.07-.18c.07-.2.16-.4.26-.62h0c.53-1.19,1.27-2.83.47-6.52a2.34,2.34,0,0,0-2.82-1.91,6.38,6.38,0,0,0-2.15.68l-.25.13c.12-1.4.55-4,2.19-5.65a5.36,5.36,0,0,1,4.08-1.52,8.64,8.64,0,0,1,6.6,3.15,10,10,0,0,1,1.8,3.09c-1.67-.17-2.8.16-3.38,1-1.25,1.79.69,5.26,1.62,6.92.17.31.31.57.36.69a6.4,6.4,0,0,0,1,1.58,2.91,2.91,0,0,1,.24.31c-.5.14-1.41.48-1.33,2.16-.07.84-.54,4.79-.78,6.19-.32,1.84-1,2.53-2.91,2.94Zm8.27-9.45a6.61,6.61,0,0,1-2.21.46A2.78,2.78,0,0,1,36.47,34c0-1.05.34-1.16.76-1.27h0l.18-.06.13.09c.73.48,2,.53,3.87.15h0A5.05,5.05,0,0,1,40.16,33.69ZM25.58,22.88a1.18,1.18,0,0,0-.77.11.26.26,0,0,0-.11.19.55.55,0,0,0,.13.36,1,1,0,0,0,.64.39h.1a.82.82,0,0,0,.78-.53c0-.28-.37-.47-.77-.53Zm10.78,0c0-.22-.43-.29-.8-.23s-.74.22-.71.44a.78.78,0,0,0,.71.47h.09a.91.91,0,0,0,.52-.28A.58.58,0,0,0,36.36,22.89Z" fill-rule="evenodd"/></svg>