<svg xmlns="http://www.w3.org/2000/svg" viewBox="0 0 56 56"><path d="M27.91,15.06c-6.6,0-6.19,2.85-6.19,2.85v3H28v.89H19.2S15,21.3,15,28s3.7,6.43,3.7,6.43h2.2v-3.1a3.51,3.51,0,0,1,3.63-3.7h6.24s3.51.05,3.51-3.38V18.52S34.81,15.06,27.91,15.06Zm-3.48,2a1.14,1.14,0,1,1-1.14,1.14A1.14,1.14,0,0,1,24.43,17Z"/><path d="M28.09,40.94c6.6,0,6.19-2.85,6.19-2.85v-3H28v-.89h8.8S41,34.7,41,28s-3.7-6.43-3.7-6.43h-2.2v3.1a3.51,3.51,0,0,1-3.63,3.7H25.26s-3.51-.05-3.51,3.38v5.71S21.19,40.94,28.09,40.94Zm3.48-2a1.14,1.14,0,1,1,1.14-1.14A1.14,1.14,0,0,1,31.57,39Z"/></svg>