<svg xmlns="http://www.w3.org/2000/svg" viewBox="0 0 56 56"><path d="M28,38c-9.62,0-17.42-5.3-17.42-11.83S18.38,14.38,28,14.38s17.42,5.3,17.42,11.83S37.62,38,28,38Zm2.67-19c-7.31,0-13.24,3.62-13.24,8.08s5.93,8.09,13.24,8.09,12.7-2.48,12.7-8.09S38,19,30.67,19Z" fill-rule="evenodd" opacity="0.5" style="isolation:isolate"/><path d="M37.11,32.7a12.7,12.7,0,0,1,1.67.64,3.08,3.08,0,0,1,.84.61,2.42,2.42,0,0,1,.39.56l4.15,7.1H37.45l-3.14-6a7.67,7.67,0,0,0-1-1.45,1.08,1.08,0,0,0-.8-.36H30.88v7.78H24.94V21.73H36.87s5.43.09,5.43,5.34S37.11,32.7,37.11,32.7ZM34.53,26h-3.6v3.38h3.6a1.65,1.65,0,0,0,1.66-1.72A1.56,1.56,0,0,0,34.53,26Z" fill-rule="evenodd"/></svg>