<svg xmlns="http://www.w3.org/2000/svg" viewBox="0 0 56 56"><path d="M17.86,31.58l-.53-1.28L16,27.12A.12.12,0,0,1,16,27l2.72-4.67a1,1,0,0,1,.16-.2l4.93-4.59a.8.8,0,0,1,.26-.16l4.18-1.54a.12.12,0,0,1,.13,0l3.5,2.45a.08.08,0,0,1,0,.11L30.15,24a.24.24,0,0,1-.06.11l-6.66,6.18a.24.24,0,0,1-.11.06l-5.41,1.22Z"/><path d="M21.83,40.52l2.25-9,8.58,3.3-.09.06a28.66,28.66,0,0,1-3.3,2.61,18.52,18.52,0,0,1-5.43,2.56,18.27,18.27,0,0,1-1.95.42Z"/><path d="M31.39,24.91l8.44-.19c-.1.24-.18.47-.28.7a23.34,23.34,0,0,1-3.21,5.42c-.68.87-1.4,1.7-2.14,2.51,0,0,0,0,0,.06C33.24,30.56,32.31,27.75,31.39,24.91Z"/><path d="M24.69,30.62l5.68-5.27c.93,2.85,1.86,5.68,2.79,8.54Z"/><path d="M40.22,26.69q-.47,6-.92,12c-.08-.22-.27-.33-.42-.47l-4.19-3.72,0,0,.06-.07c.74-.81,1.47-1.63,2.16-2.48a26.32,26.32,0,0,0,3.06-4.7c.1-.18.18-.37.27-.55Z"/><path d="M40.31,23.07c-2.26-1.65-4.5-3.28-6.76-4.91l.06,0,4-2.23h.07a4.38,4.38,0,0,1,2.58,2.56,5.25,5.25,0,0,1,.33,1.42,7.92,7.92,0,0,1-.14,2.43C40.42,22.54,40.37,22.79,40.31,23.07Z"/><path d="M26.69,40.26a26.78,26.78,0,0,0,7.16-5l.53.48q2,1.76,4,3.54a1,1,0,0,0,.34.18Z"/><path d="M31.37,23.81q.75-2.4,1.51-4.78l6.31,4.58v0Z"/><path d="M20.82,39.94q-1.28-3.66-2.56-7.32l4.69-1c-.71,2.8-1.41,5.58-2.11,8.37Z"/><path d="M17.42,33.54c.82,2.36,1.64,4.7,2.46,7.05l-.38-.05A5.83,5.83,0,0,1,17.83,40,4.17,4.17,0,0,1,16,38.2a5.53,5.53,0,0,1-.49-1.38.1.1,0,0,1,0-.09c.6-1,1.21-2.09,1.82-3.13Z"/><path d="M29.69,15.41h6.52l-.06,0L32.64,17.4a.09.09,0,0,1-.11,0l-2.81-2Z"/><path d="M15.35,34.89V28.44l0,.1c.5,1.19,1,2.38,1.51,3.57a.14.14,0,0,1,0,.14l-1.5,2.58Z"/></svg>