<svg xmlns="http://www.w3.org/2000/svg" viewBox="0 0 56 56"><path d="M42.39,27.64l-1.23-.76,0-.35,1-1a.42.42,0,0,0-.14-.71l-1.34-.5L40.59,24l.84-1.16a.46.46,0,0,0,0-.41.44.44,0,0,0-.33-.26l-1.41-.23a3.24,3.24,0,0,1-.17-.32l.59-1.3a.43.43,0,0,0,0-.41.4.4,0,0,0-.37-.19l-1.44.05-.22-.28.33-1.4a.44.44,0,0,0-.51-.51l-1.4.33-.28-.22,0-1.44a.4.4,0,0,0-.19-.37.41.41,0,0,0-.4,0l-1.31.6-.32-.18-.23-1.41a.42.42,0,0,0-.66-.28L32,15.41l-.35-.1L31.16,14a.42.42,0,0,0-.31-.27.43.43,0,0,0-.39.13l-1,1-.35,0-.76-1.23a.42.42,0,0,0-.72,0l-.76,1.23-.35,0-1-1a.44.44,0,0,0-.39-.13.42.42,0,0,0-.32.27l-.5,1.35-.35.1-1.16-.84a.46.46,0,0,0-.41-.05.44.44,0,0,0-.26.33l-.23,1.41-.32.18-1.3-.6a.43.43,0,0,0-.41,0,.4.4,0,0,0-.19.37l.05,1.44-.28.22-1.4-.33a.44.44,0,0,0-.51.51l.33,1.4-.22.28-1.44-.05a.42.42,0,0,0-.37.19.43.43,0,0,0,0,.41l.6,1.3-.18.32-1.41.23a.44.44,0,0,0-.33.26.46.46,0,0,0,.05.41L15.41,24c0,.12-.07.23-.1.35l-1.35.5a.42.42,0,0,0-.27.31.45.45,0,0,0,.13.4l1,1,0,.35-1.23.76a.42.42,0,0,0,0,.72l1.23.76,0,.35-1,1a.43.43,0,0,0-.13.39.42.42,0,0,0,.27.31l1.35.5c0,.12.06.23.1.35l-.84,1.16a.46.46,0,0,0-.05.41.44.44,0,0,0,.33.26l1.41.23.18.32-.6,1.31a.41.41,0,0,0,0,.4.4.4,0,0,0,.37.19l1.44,0,.22.28-.33,1.4a.44.44,0,0,0,.51.51l1.4-.33.28.22-.05,1.44a.4.4,0,0,0,.19.37.43.43,0,0,0,.41,0l1.3-.59.32.17.23,1.41a.44.44,0,0,0,.26.33.46.46,0,0,0,.41,0L24,40.59l.35.1.5,1.35a.42.42,0,0,0,.32.27.44.44,0,0,0,.39-.13l1-1,.35,0,.76,1.23a.42.42,0,0,0,.72,0l.76-1.23.35,0,1,1a.43.43,0,0,0,.39.13.42.42,0,0,0,.31-.27l.5-1.35.35-.1,1.16.84a.46.46,0,0,0,.41,0,.44.44,0,0,0,.26-.33l.23-1.41.32-.17,1.31.59a.41.41,0,0,0,.4,0,.4.4,0,0,0,.19-.37l0-1.44.28-.22,1.4.33a.44.44,0,0,0,.51-.51l-.33-1.4.22-.28,1.44,0a.4.4,0,0,0,.37-.19.41.41,0,0,0,0-.4l-.59-1.31c0-.11.11-.21.17-.32l1.41-.23a.44.44,0,0,0,.33-.26.46.46,0,0,0,0-.41L40.59,32c0-.12.07-.23.1-.35l1.35-.5a.42.42,0,0,0,.27-.31.43.43,0,0,0-.13-.39l-1-1,0-.35,1.23-.76a.42.42,0,0,0,0-.72ZM34.19,37.8a.86.86,0,0,1,.36-1.69.86.86,0,1,1-.36,1.69ZM33.77,35a.79.79,0,0,0-.93.61l-.44,2a10.67,10.67,0,0,1-8.89,0l-.44-2a.78.78,0,0,0-.94-.6l-1.79.38a10.61,10.61,0,0,1-.92-1.09h8.71c.1,0,.17,0,.17-.11V31.05c0-.09-.07-.11-.17-.11H25.58V29h2.76A1.74,1.74,0,0,1,30,30.46c.11.43.35,1.82.51,2.27s.83,1.51,1.54,1.51h4.35l.15,0a10.92,10.92,0,0,1-1,1.16ZM21.72,37.76a.87.87,0,1,1,.66-1A.87.87,0,0,1,21.72,37.76ZM18.41,24.35a.86.86,0,1,1-1.58.7.86.86,0,0,1,1.58-.7Zm-1,2.41,1.86-.83a.78.78,0,0,0,.4-1L19.28,24h1.51v6.81H17.74a10.26,10.26,0,0,1-.34-4.07Zm8.18-.66v-2h3.6c.19,0,1.32.22,1.32,1.06s-.87,1-1.58,1Zm13.09,1.81c0,.26,0,.53,0,.79h-1.1c-.11,0-.15.07-.15.18v.5c0,1.18-.67,1.44-1.25,1.51s-1.18-.24-1.25-.58a3.78,3.78,0,0,0-1.74-2.92c1.07-.68,2.19-1.69,2.19-3a3.44,3.44,0,0,0-1.68-2.82,4.8,4.8,0,0,0-2.29-.75H20.05a10.76,10.76,0,0,1,6-3.37l1.34,1.4a.78.78,0,0,0,1.11,0L30,17.42a10.69,10.69,0,0,1,7.3,5.2l-1,2.31a.79.79,0,0,0,.41,1l2,.88A9.28,9.28,0,0,1,38.67,27.91ZM27.36,16.23a.87.87,0,0,1,1.19,1.26.86.86,0,0,1-1.22,0A.87.87,0,0,1,27.36,16.23ZM37.5,24.39a.87.87,0,1,1,.44,1.15A.87.87,0,0,1,37.5,24.39Z"/></svg>