<svg xmlns="http://www.w3.org/2000/svg" preserveAspectRatio="xMidYMid" viewBox="0 0 56 56"><path d="M31.842 13.223c14.545 9.891 9.84 20.8 9.84 20.8s4.136 4.67 2.464 8.754c0 0-1.706-2.86-4.566-2.86-2.758 0-4.377 2.86-9.926 2.86-12.356 0-18.198-10.322-18.198-10.322 11.132 7.324 18.732 2.137 18.732 2.137-5.015-2.913-15.682-16.837-15.682-16.837 9.288 7.91 13.304 9.995 13.304 9.995-2.396-1.982-9.116-11.667-9.116-11.667 5.376 5.446 16.06 13.046 16.06 13.046 3.033-8.41-2.912-15.906-2.912-15.906z"/></svg>