<svg xmlns="http://www.w3.org/2000/svg" viewBox="0 0 56 56"><path d="M17.555 20.734l4.905-1.453-3.27 3.996z"/><path d="M14.104 36.537V19.281h8.356l-2.362 1.998-.908 1.998H18.1v9.264h1.635l-1.998.908-1.453 3.088z" shape-rendering="crispEdges"/><path d="M14.83 34.54l4.905-1.999-3.451 3.996z"/><g><path d="M20.825 23.277l3.451-3.996 1.09 2.543z"/><path d="M20.825 23.277l3.451-2.18v-1.816h9.99v3.996z" shape-rendering="crispEdges"/><path d="M30.452 34.176l4.723-1.635-3.451 3.996z"/><path d="M21.733 36.537v-3.996h13.442l-2.906 1.635-.545 2.361z" shape-rendering="crispEdges"/><path d="M41.351 15.285L23.55 36.537l-8.901 4.178L32.45 19.281z"/></g><g><path d="M36.265 23.459l3.451-4.178-.181 3.27z"/><path d="M38.081 21.824l1.635-2.543h2.18v17.256H33.36l2.543-2.18.908-1.816h1.09V23.46h-1.635z" shape-rendering="crispEdges"/><path d="M33.359 36.537l3.451-3.996.908 2.725z"/></g></svg>