<svg width="173" height="40" viewBox="0 0 173 40" fill="none" xmlns="http://www.w3.org/2000/svg">
    <g clip-path="url(#clip0)">
        <path d="M19.4236 39.9998C14.3931 39.947 9.98675 38.106 6.29566 34.6034C3.12034 31.5906 1.12091 27.8896 0.350427 23.5974C-0.659901 17.9687 0.522353 12.7835 3.87384 8.12812C6.6671 4.25184 10.3858 1.63177 15.0639 0.563466C21.9197 -1.00309 27.9328 0.766147 32.9972 5.57561C36.0855 8.50815 38.0128 12.1353 38.7684 16.3219C40.632 26.6312 34.3344 36.5542 24.4667 39.3347C22.8515 39.7908 21.198 39.9702 19.4236 39.9998ZM30.6348 19.8963C30.6157 19.5733 30.5945 19.1468 30.5626 18.7224C30.5457 18.4944 30.5138 18.2685 30.4799 18.0426C30.015 15.0869 28.6991 12.5808 26.4025 10.6342C23.9191 8.52926 21.0346 7.69743 17.8083 8.22313C15.1445 8.65805 12.971 10.005 11.2773 12.0741C9.125 14.7005 8.25052 17.7344 8.53918 21.1061C8.76842 23.7768 9.78511 26.1161 11.5659 28.1155C15.6433 32.6863 22.3145 33.0347 26.7718 28.8882C29.3443 26.4919 30.569 23.4876 30.6348 19.8963Z" fill="black"/>
        <path d="M94.4277 31.0471C97.0342 29.8648 99.5919 28.7078 102.147 27.5487C102.882 30.3525 104.883 31.6593 107.503 32.1597C109.252 32.4933 111.011 32.3962 112.701 31.7269C113.388 31.4546 114.031 31.1083 114.585 30.6122C114.989 30.249 115.311 29.831 115.53 29.3327C116.044 28.1631 115.774 26.9407 114.813 26.0941C114.333 25.6718 113.762 25.4206 113.163 25.2179C111.436 24.6352 109.661 24.234 107.885 23.8329C105.688 23.3367 103.516 22.7435 101.489 21.7385C100.766 21.3796 100.044 20.9954 99.3796 20.5372C96.9727 18.8799 95.5866 16.5511 95.2916 13.6862C94.8395 9.29051 96.6564 5.81959 100.091 3.16151C102.313 1.43872 104.894 0.511876 107.685 0.165629C110.835 -0.222844 113.891 0.131849 116.821 1.36272C119.1 2.32334 121.063 3.72311 122.59 5.68658C122.785 5.93993 122.957 6.21229 123.135 6.47831C123.167 6.52687 123.184 6.58387 123.224 6.68099C121.123 8.08498 119.03 9.48263 116.916 10.8972C116.797 10.7599 116.697 10.6481 116.602 10.534C115.214 8.90626 113.497 7.82952 111.353 7.51916C109.801 7.29325 108.26 7.38193 106.781 7.93297C105.363 8.4629 104.317 9.38552 103.854 10.8718C103.697 11.3743 103.659 11.8874 103.693 12.4088C103.727 12.9029 103.939 13.3357 104.302 13.6524C104.724 14.0219 105.174 14.3744 105.658 14.6595C106.879 15.3773 108.222 15.8164 109.583 16.1796C111.813 16.7771 114.055 17.3344 116.286 17.9361C117.141 18.1663 117.999 18.4217 118.814 18.7595C121.373 19.8194 123.324 21.5464 124.262 24.1876C125.306 27.137 125.107 30.0379 123.515 32.7762C122.163 35.1007 120.181 36.7686 117.808 37.9952C115.774 39.0467 113.594 39.623 111.319 39.8637C108.25 40.191 105.265 39.8405 102.385 38.7342C99.9973 37.8158 97.9745 36.3675 96.3253 34.4145C95.5909 33.5447 95.022 32.5735 94.5997 31.5179C94.5445 31.3785 94.4957 31.2371 94.4277 31.0471Z" fill="black"/>
        <path d="M51.6161 31.0246C54.1525 29.8739 56.7102 28.7149 59.2997 27.541C59.3379 27.6761 59.3697 27.7732 59.3931 27.8725C59.5862 28.7275 60.0107 29.4538 60.6093 30.0914C61.4816 31.0182 62.5514 31.6432 63.7655 31.9683C65.731 32.4961 67.7028 32.475 69.6428 31.8015C70.3262 31.5651 70.963 31.2357 71.5297 30.7797C72.0009 30.3996 72.383 29.9499 72.6398 29.401C73.2171 28.168 72.903 26.8443 71.8311 25.9955C71.3684 25.6303 70.8378 25.4002 70.2817 25.2144C68.6983 24.6866 67.0809 24.2875 65.4508 23.9328C63.2348 23.4494 61.0444 22.8709 58.9813 21.9102C58.179 21.5366 57.3894 21.1164 56.6529 20.6308C54.2225 19.0326 52.8387 16.7334 52.4502 13.898C51.9493 10.254 53.2101 7.14407 55.6956 4.50921C57.5677 2.52252 59.9216 1.29587 62.5493 0.616045C66.6819 -0.452254 70.7232 -0.14401 74.6032 1.65901C76.6854 2.62597 78.4747 3.99407 79.8501 5.85409C80.0305 6.099 80.1918 6.35657 80.3977 6.66059C78.2858 8.07303 76.1951 9.47068 74.0598 10.9C73.9452 10.7712 73.8391 10.6509 73.7329 10.5284C72.4764 9.05688 70.9375 8.02658 69.0209 7.61911C67.4035 7.27497 65.7946 7.35309 64.2091 7.83023C63.4365 8.06458 62.7488 8.45306 62.1566 9.0041C61.2418 9.85493 60.8215 10.9211 60.8024 12.1457C60.7918 12.8445 61.1166 13.4061 61.6345 13.86C62.2373 14.3878 62.9292 14.7784 63.6572 15.1078C65.0857 15.7517 66.5906 16.1571 68.1018 16.5498C70.2923 17.1177 72.4828 17.6941 74.6626 18.3021C76.4944 18.813 78.1117 19.7166 79.4426 21.0847C80.8668 22.5479 81.6712 24.3044 81.9238 26.3186C82.3929 30.0703 81.0366 33.1253 78.3155 35.6504C76.2503 37.5653 73.8008 38.7645 71.0691 39.4147C67.1658 40.3437 63.3219 40.16 59.5586 38.7497C57.4148 37.9474 55.581 36.6701 54.0018 35.0296C53.0276 34.0162 52.2804 32.8529 51.7477 31.5566C51.701 31.4447 51.6585 31.3307 51.6224 31.2146C51.6055 31.1724 51.6161 31.1238 51.6161 31.0246Z" fill="black"/>
        <path d="M170.126 5.93046C168.507 7.85382 166.896 9.76663 165.257 11.7111C165.123 11.6034 165.009 11.5105 164.892 11.4219C164.221 10.9152 163.574 10.3768 162.876 9.91019C161.316 8.86723 159.558 8.38164 157.703 8.18951C155.886 8.00161 154.12 8.18951 152.435 8.90101C148.931 10.3789 146.672 12.9863 145.7 16.6198C144.618 20.6734 145.354 24.4209 148.007 27.7208C149.663 29.7793 151.822 31.0904 154.436 31.5844C156.678 32.0088 158.856 31.7069 160.965 30.8687C162.893 30.1023 164.499 28.8757 165.966 27.4463C166.251 27.1698 166.531 26.889 166.813 26.6103C166.821 26.6018 166.841 26.6018 166.919 26.5807C168.694 28.2254 170.491 29.8912 172.302 31.5675C172.236 31.6689 172.194 31.7491 172.136 31.8188C169.591 34.9498 166.509 37.3566 162.693 38.7838C160.535 39.5924 158.3 40.0126 155.997 39.9894C151.032 39.9387 146.764 38.1272 143.183 34.7534C139.895 31.6562 137.881 27.8412 137.176 23.3948C136.119 16.7317 137.934 10.894 142.55 5.96846C145.403 2.92402 148.943 0.998549 153.076 0.310277C158.652 -0.618679 163.723 0.59952 168.163 4.15489C168.77 4.64259 169.339 5.17885 169.923 5.694C169.993 5.75734 170.044 5.83334 170.126 5.93046Z" fill="black"/>
    </g>
    <defs>
        <clipPath id="clip0">
            <rect width="172.308" height="40" fill="white"/>
        </clipPath>
    </defs>
</svg>
