<svg width="199" height="56" viewBox="0 0 199 56" fill="none" xmlns="http://www.w3.org/2000/svg">
    <path d="M8.81962 25.392C6.87828 25.392 5.24495 24.9533 3.91962 24.076C2.59428 23.2173 1.66095 22.0413 1.11962 20.548L4.42362 18.616C5.18895 20.6133 6.69162 21.612 8.93162 21.612C10.0143 21.612 10.8076 21.416 11.3116 21.024C11.8156 20.632 12.0676 20.1373 12.0676 19.54C12.0676 18.8493 11.7596 18.308 11.1436 17.916C10.5276 17.5427 9.42628 17.132 7.83962 16.684C6.96228 16.4227 6.22495 16.1613 5.62762 15.9C5.01162 15.6387 4.40495 15.284 3.80762 14.836C3.19162 14.4067 2.72495 13.856 2.40762 13.184C2.09028 12.512 1.93162 11.728 1.93162 10.832C1.93162 9.05867 2.56628 7.64 3.83562 6.576C5.08628 5.53067 6.59828 5.008 8.37162 5.008C9.95828 5.008 11.3583 5.39067 12.5716 6.156C13.7663 6.94 14.6996 8.02267 15.3716 9.404L12.1236 11.28C11.3396 9.6 10.089 8.76 8.37162 8.76C7.56895 8.76 6.94362 8.93733 6.49562 9.292C6.02895 9.66533 5.79562 10.1413 5.79562 10.72C5.79562 11.336 6.05695 11.8307 6.57962 12.204C7.08362 12.596 8.06362 13.016 9.51962 13.464C10.117 13.6507 10.5743 13.7907 10.8916 13.884C11.1903 13.996 11.6103 14.1547 12.1516 14.36C12.6743 14.584 13.085 14.7893 13.3836 14.976C13.6636 15.1627 13.9903 15.4147 14.3636 15.732C14.737 16.0493 15.0263 16.376 15.2316 16.712C15.4183 17.048 15.5863 17.4493 15.7356 17.916C15.8663 18.4013 15.9316 18.924 15.9316 19.484C15.9316 21.2947 15.2783 22.732 13.9716 23.796C12.6463 24.86 10.929 25.392 8.81962 25.392ZM24.9478 25.392C22.8758 25.392 21.1305 24.6733 19.7118 23.236C18.2745 21.8173 17.5558 20.072 17.5558 18C17.5558 15.928 18.2745 14.1733 19.7118 12.736C21.1305 11.3173 22.8758 10.608 24.9478 10.608C27.0198 10.608 28.7745 11.3173 30.2118 12.736C31.6492 14.1733 32.3678 15.928 32.3678 18C32.3678 20.072 31.6492 21.8173 30.2118 23.236C28.7745 24.6733 27.0198 25.392 24.9478 25.392ZM24.9478 21.864C26.0305 21.864 26.9358 21.5 27.6638 20.772C28.3918 20.044 28.7558 19.12 28.7558 18C28.7558 16.88 28.3918 15.956 27.6638 15.228C26.9358 14.5 26.0305 14.136 24.9478 14.136C23.8652 14.136 22.9692 14.5 22.2598 15.228C21.5318 15.956 21.1678 16.88 21.1678 18C21.1678 19.12 21.5318 20.044 22.2598 20.772C22.9692 21.5 23.8652 21.864 24.9478 21.864ZM34.9088 4.56H38.5208V25H34.9088V4.56ZM48.4908 25.392C46.4188 25.392 44.6735 24.6733 43.2548 23.236C41.8175 21.8173 41.0988 20.072 41.0988 18C41.0988 15.928 41.8175 14.1733 43.2548 12.736C44.6735 11.3173 46.4188 10.608 48.4908 10.608C50.5628 10.608 52.3175 11.3173 53.7548 12.736C55.1921 14.1733 55.9108 15.928 55.9108 18C55.9108 20.072 55.1921 21.8173 53.7548 23.236C52.3175 24.6733 50.5628 25.392 48.4908 25.392ZM48.4908 21.864C49.5735 21.864 50.4788 21.5 51.2068 20.772C51.9348 20.044 52.2988 19.12 52.2988 18C52.2988 16.88 51.9348 15.956 51.2068 15.228C50.4788 14.5 49.5735 14.136 48.4908 14.136C47.4081 14.136 46.5121 14.5 45.8028 15.228C45.0748 15.956 44.7108 16.88 44.7108 18C44.7108 19.12 45.0748 20.044 45.8028 20.772C46.5121 21.5 47.4081 21.864 48.4908 21.864ZM73.9358 10.608C75.5411 10.608 76.8291 11.1307 77.7998 12.176C78.7518 13.2213 79.2278 14.6213 79.2278 16.376V25H75.6158V16.628C75.6158 15.788 75.4105 15.1347 74.9998 14.668C74.5891 14.2013 74.0105 13.968 73.2638 13.968C72.4425 13.968 71.8078 14.2387 71.3598 14.78C70.8931 15.3213 70.6598 16.1053 70.6598 17.132V25H67.0478V16.628C67.0478 15.788 66.8425 15.1347 66.4318 14.668C66.0211 14.2013 65.4425 13.968 64.6958 13.968C63.8931 13.968 63.2585 14.2387 62.7918 14.78C62.3065 15.3213 62.0638 16.1053 62.0638 17.132V25H58.4518V11H62.0638V12.484C62.9038 11.2333 64.2011 10.608 65.9558 10.608C67.6731 10.608 68.9425 11.28 69.7638 12.624C70.6971 11.28 72.0878 10.608 73.9358 10.608ZM88.9596 25.392C86.8876 25.392 85.1422 24.6733 83.7236 23.236C82.2862 21.8173 81.5676 20.072 81.5676 18C81.5676 15.928 82.2862 14.1733 83.7236 12.736C85.1422 11.3173 86.8876 10.608 88.9596 10.608C91.0316 10.608 92.7862 11.3173 94.2236 12.736C95.6609 14.1733 96.3796 15.928 96.3796 18C96.3796 20.072 95.6609 21.8173 94.2236 23.236C92.7862 24.6733 91.0316 25.392 88.9596 25.392ZM88.9596 21.864C90.0422 21.864 90.9476 21.5 91.6756 20.772C92.4036 20.044 92.7676 19.12 92.7676 18C92.7676 16.88 92.4036 15.956 91.6756 15.228C90.9476 14.5 90.0422 14.136 88.9596 14.136C87.8769 14.136 86.9809 14.5 86.2716 15.228C85.5436 15.956 85.1796 16.88 85.1796 18C85.1796 19.12 85.5436 20.044 86.2716 20.772C86.9809 21.5 87.8769 21.864 88.9596 21.864ZM106.705 10.608C108.235 10.608 109.505 11.1213 110.513 12.148C111.502 13.1747 111.997 14.5933 111.997 16.404V25H108.385V16.852C108.385 15.9187 108.133 15.2 107.629 14.696C107.125 14.2107 106.453 13.968 105.613 13.968C104.679 13.968 103.933 14.2573 103.373 14.836C102.813 15.4147 102.533 16.2827 102.533 17.44V25H98.9206V11H102.533V12.568C103.41 11.2613 104.801 10.608 106.705 10.608ZM137.229 5.4V25H133.393V16.88H126.113V25H122.249V5.4H126.113V13.184H133.393V5.4H137.229ZM153.694 11L148.598 25C147.87 27.016 146.908 28.4813 145.714 29.396C144.5 30.292 142.998 30.6933 141.206 30.6V27.24C142.176 27.2587 142.951 27.0533 143.53 26.624C144.09 26.1947 144.538 25.504 144.874 24.552L139.134 11H143.082L146.722 20.408L149.83 11H153.694ZM164.121 25L159.025 18.644V25H155.413V5.4H159.025V17.16L163.841 11H168.153L162.525 17.916L168.321 25H164.121ZM173.176 19.484C173.661 21.2387 174.977 22.116 177.124 22.116C178.505 22.116 179.55 21.6493 180.26 20.716L183.172 22.396C181.79 24.3933 179.756 25.392 177.068 25.392C174.753 25.392 172.896 24.692 171.496 23.292C170.096 21.892 169.396 20.128 169.396 18C169.396 15.8907 170.086 14.1267 171.468 12.708C172.849 11.308 174.622 10.608 176.788 10.608C178.841 10.608 180.54 11.3173 181.884 12.736C183.209 14.1547 183.872 15.9093 183.872 18C183.872 18.4667 183.825 18.9613 183.732 19.484H173.176ZM180.26 16.684C180.054 15.732 179.634 15.0227 179 14.556C178.346 14.0893 177.609 13.856 176.788 13.856C175.817 13.856 175.014 14.0987 174.38 14.584C173.745 15.088 173.325 15.788 173.12 16.684H180.26ZM189.725 14.976C189.725 15.3493 189.977 15.648 190.481 15.872C190.967 16.1147 191.564 16.32 192.273 16.488C192.983 16.6747 193.692 16.8987 194.401 17.16C195.111 17.44 195.717 17.8973 196.221 18.532C196.707 19.1667 196.949 19.96 196.949 20.912C196.949 22.3493 196.417 23.4507 195.353 24.216C194.271 25 192.927 25.392 191.321 25.392C188.447 25.392 186.487 24.2813 185.441 22.06L188.577 20.296C188.988 21.5093 189.903 22.116 191.321 22.116C192.609 22.116 193.253 21.7147 193.253 20.912C193.253 20.5387 193.011 20.2307 192.525 19.988C192.021 19.764 191.415 19.5587 190.705 19.372C189.996 19.1853 189.287 18.952 188.577 18.672C187.868 18.392 187.271 17.944 186.785 17.328C186.281 16.7307 186.029 15.9747 186.029 15.06C186.029 13.6787 186.543 12.5867 187.569 11.784C188.577 11 189.837 10.608 191.349 10.608C192.488 10.608 193.524 10.86 194.457 11.364C195.391 11.8867 196.128 12.624 196.669 13.576L193.589 15.256C193.141 14.304 192.395 13.828 191.349 13.828C190.883 13.828 190.5 13.9307 190.201 14.136C189.884 14.3413 189.725 14.6213 189.725 14.976Z" fill="#231044"/>
    <path d="M21.3316 38.984V43.07H26.6776V44.654H21.3316V50H19.6576V37.4H26.9116V38.984H21.3316ZM33.0069 50.234C31.6869 50.234 30.5709 49.778 29.6589 48.866C28.7349 47.954 28.2729 46.832 28.2729 45.5C28.2729 44.168 28.7349 43.046 29.6589 42.134C30.5709 41.222 31.6869 40.766 33.0069 40.766C34.3269 40.766 35.4489 41.222 36.3729 42.134C37.2969 43.046 37.7589 44.168 37.7589 45.5C37.7589 46.832 37.2969 47.954 36.3729 48.866C35.4489 49.778 34.3269 50.234 33.0069 50.234ZM33.0069 48.704C33.9069 48.704 34.6629 48.398 35.2749 47.786C35.8869 47.174 36.1929 46.412 36.1929 45.5C36.1929 44.588 35.8869 43.826 35.2749 43.214C34.6629 42.602 33.9069 42.296 33.0069 42.296C32.1189 42.296 31.3689 42.602 30.7569 43.214C30.1449 43.826 29.8389 44.588 29.8389 45.5C29.8389 46.412 30.1449 47.174 30.7569 47.786C31.3689 48.398 32.1189 48.704 33.0069 48.704ZM41.171 42.512C41.687 41.396 42.623 40.838 43.979 40.838V42.476C43.211 42.44 42.551 42.644 41.999 43.088C41.447 43.532 41.171 44.246 41.171 45.23V50H39.605V41H41.171V42.512ZM55.2312 40.766C56.2392 40.766 57.0552 41.09 57.6792 41.738C58.3032 42.398 58.6152 43.286 58.6152 44.402V50H57.0492V44.456C57.0492 43.76 56.8692 43.22 56.5092 42.836C56.1492 42.452 55.6692 42.26 55.0692 42.26C54.3972 42.26 53.8632 42.482 53.4672 42.926C53.0592 43.382 52.8552 44.072 52.8552 44.996V50H51.2892V44.456C51.2892 43.76 51.1212 43.22 50.7852 42.836C50.4372 42.452 49.9692 42.26 49.3812 42.26C48.7212 42.26 48.1752 42.488 47.7432 42.944C47.2992 43.4 47.0772 44.084 47.0772 44.996V50H45.5112V41H47.0772V42.206C47.6892 41.246 48.5832 40.766 49.7592 40.766C50.9712 40.766 51.8532 41.276 52.4052 42.296C53.0292 41.276 53.9712 40.766 55.2312 40.766ZM61.8846 46.22C62.0406 47.024 62.4126 47.648 63.0006 48.092C63.5766 48.536 64.2906 48.758 65.1426 48.758C66.3306 48.758 67.1946 48.32 67.7346 47.444L69.0666 48.2C68.1906 49.556 66.8706 50.234 65.1066 50.234C63.6786 50.234 62.5206 49.784 61.6326 48.884C60.7326 47.996 60.2826 46.868 60.2826 45.5C60.2826 44.144 60.7206 43.016 61.5966 42.116C62.4726 41.216 63.6066 40.766 64.9986 40.766C66.3186 40.766 67.3986 41.228 68.2386 42.152C69.0666 43.088 69.4806 44.21 69.4806 45.518C69.4806 45.746 69.4626 45.98 69.4266 46.22H61.8846ZM64.9986 42.242C64.1586 42.242 63.4626 42.476 62.9106 42.944C62.3586 43.424 62.0166 44.06 61.8846 44.852H67.8966C67.7646 44 67.4286 43.352 66.8886 42.908C66.3486 42.464 65.7186 42.242 64.9986 42.242ZM72.8468 42.512C73.3628 41.396 74.2988 40.838 75.6548 40.838V42.476C74.8868 42.44 74.2268 42.644 73.6748 43.088C73.1228 43.532 72.8468 44.246 72.8468 45.23V50H71.2808V41H72.8468V42.512ZM87.771 50.234C85.863 50.234 84.291 49.604 83.055 48.344C81.807 47.084 81.183 45.536 81.183 43.7C81.183 41.864 81.807 40.316 83.055 39.056C84.291 37.796 85.863 37.166 87.771 37.166C88.923 37.166 89.985 37.442 90.957 37.994C91.917 38.546 92.667 39.29 93.207 40.226L91.749 41.072C91.389 40.376 90.855 39.818 90.147 39.398C89.427 38.99 88.635 38.786 87.771 38.786C86.319 38.786 85.137 39.254 84.225 40.19C83.301 41.126 82.839 42.296 82.839 43.7C82.839 45.092 83.301 46.256 84.225 47.192C85.137 48.128 86.319 48.596 87.771 48.596C88.635 48.596 89.427 48.386 90.147 47.966C90.855 47.558 91.389 47.012 91.749 46.328L93.207 47.156C92.679 48.092 91.929 48.836 90.957 49.388C89.985 49.952 88.923 50.234 87.771 50.234ZM103.026 38.984H99.3003V50H97.6443V38.984H93.9363V37.4H103.026V38.984ZM109.812 50.234C107.988 50.234 106.446 49.598 105.186 48.326C103.926 47.054 103.296 45.512 103.296 43.7C103.296 41.876 103.926 40.328 105.186 39.056C106.446 37.796 107.988 37.166 109.812 37.166C111.636 37.166 113.184 37.796 114.456 39.056C115.716 40.328 116.346 41.876 116.346 43.7C116.346 45.512 115.716 47.054 114.456 48.326C113.184 49.598 111.636 50.234 109.812 50.234ZM109.812 48.596C111.192 48.596 112.35 48.122 113.286 47.174C114.21 46.238 114.672 45.08 114.672 43.7C114.672 42.308 114.21 41.138 113.286 40.19C112.35 39.254 111.192 38.786 109.812 38.786C108.432 38.786 107.28 39.254 106.356 40.19C105.42 41.138 104.952 42.308 104.952 43.7C104.952 45.08 105.42 46.238 106.356 47.174C107.28 48.122 108.432 48.596 109.812 48.596ZM127.773 37.4C129.489 37.4 130.917 38.006 132.057 39.218C133.185 40.442 133.749 41.936 133.749 43.7C133.749 45.464 133.185 46.952 132.057 48.164C130.917 49.388 129.489 50 127.773 50H122.859V37.4H127.773ZM127.773 48.416C129.057 48.416 130.107 47.966 130.923 47.066C131.739 46.166 132.147 45.044 132.147 43.7C132.147 42.356 131.739 41.234 130.923 40.334C130.107 39.434 129.057 38.984 127.773 38.984H124.533V48.416H127.773ZM139.847 50.234C138.527 50.234 137.411 49.778 136.499 48.866C135.575 47.954 135.113 46.832 135.113 45.5C135.113 44.168 135.575 43.046 136.499 42.134C137.411 41.222 138.527 40.766 139.847 40.766C141.167 40.766 142.289 41.222 143.213 42.134C144.137 43.046 144.599 44.168 144.599 45.5C144.599 46.832 144.137 47.954 143.213 48.866C142.289 49.778 141.167 50.234 139.847 50.234ZM139.847 48.704C140.747 48.704 141.503 48.398 142.115 47.786C142.727 47.174 143.033 46.412 143.033 45.5C143.033 44.588 142.727 43.826 142.115 43.214C141.503 42.602 140.747 42.296 139.847 42.296C138.959 42.296 138.209 42.602 137.597 43.214C136.985 43.826 136.679 44.588 136.679 45.5C136.679 46.412 136.985 47.174 137.597 47.786C138.209 48.398 138.959 48.704 139.847 48.704ZM150.675 50.234C149.319 50.234 148.191 49.778 147.291 48.866C146.391 47.966 145.941 46.844 145.941 45.5C145.941 44.156 146.391 43.028 147.291 42.116C148.191 41.216 149.319 40.766 150.675 40.766C151.563 40.766 152.361 40.976 153.069 41.396C153.777 41.828 154.305 42.404 154.653 43.124L153.339 43.88C153.111 43.4 152.763 43.016 152.295 42.728C151.815 42.44 151.275 42.296 150.675 42.296C149.775 42.296 149.025 42.602 148.425 43.214C147.813 43.826 147.507 44.588 147.507 45.5C147.507 46.4 147.813 47.156 148.425 47.768C149.025 48.38 149.775 48.686 150.675 48.686C151.275 48.686 151.815 48.542 152.295 48.254C152.775 47.978 153.141 47.6 153.393 47.12L154.725 47.894C154.341 48.602 153.789 49.166 153.069 49.586C152.349 50.018 151.551 50.234 150.675 50.234ZM161.941 50L157.837 45.734V50H156.271V37.4H157.837V44.978L161.725 41H163.741L159.439 45.356L163.885 50H161.941ZM165.613 46.22C165.769 47.024 166.141 47.648 166.729 48.092C167.305 48.536 168.019 48.758 168.871 48.758C170.059 48.758 170.923 48.32 171.463 47.444L172.795 48.2C171.919 49.556 170.599 50.234 168.835 50.234C167.407 50.234 166.249 49.784 165.361 48.884C164.461 47.996 164.011 46.868 164.011 45.5C164.011 44.144 164.449 43.016 165.325 42.116C166.201 41.216 167.335 40.766 168.727 40.766C170.047 40.766 171.127 41.228 171.967 42.152C172.795 43.088 173.209 44.21 173.209 45.518C173.209 45.746 173.191 45.98 173.155 46.22H165.613ZM168.727 42.242C167.887 42.242 167.191 42.476 166.639 42.944C166.087 43.424 165.745 44.06 165.613 44.852H171.625C171.493 44 171.157 43.352 170.617 42.908C170.077 42.464 169.447 42.242 168.727 42.242ZM176.575 42.512C177.091 41.396 178.027 40.838 179.383 40.838V42.476C178.615 42.44 177.955 42.644 177.403 43.088C176.851 43.532 176.575 44.246 176.575 45.23V50H175.009V41H176.575V42.512Z" fill="#231044"/>
</svg>
