<svg width="82" height="81" viewBox="0 0 82 81" fill="none" xmlns="http://www.w3.org/2000/svg">
    <g clip-path="url(#clip0)">
        <path d="M81.3076 0H0.307617V81H81.3076V0Z" fill="#FB651E"/>
        <path d="M38.0767 45.7997L24.1738 19.7532H30.5273L38.7064 36.2348C38.8329 36.529 38.9785 36.8328 39.1462 37.146C39.3139 37.4593 39.4594 37.7852 39.586 38.1205C39.6714 38.2471 39.7315 38.361 39.7758 38.4654C39.817 38.5698 39.8612 38.6648 39.9024 38.747C40.1112 39.1679 40.3011 39.576 40.4687 39.9747C40.6364 40.3734 40.782 40.7404 40.9086 41.0758C41.2439 40.3639 41.611 39.5982 42.0096 38.7787C42.4083 37.9623 42.8165 37.1112 43.2373 36.2316L51.543 19.75H57.4566L43.4271 46.1098V62.9078H38.0799V45.7997H38.0767Z" fill="white"/>
    </g>
    <defs>
        <clipPath id="clip0">
            <rect width="81" height="81" fill="white" transform="translate(0.307617)"/>
        </clipPath>
    </defs>
</svg>
