<svg width="121" height="23" viewBox="0 0 121 23" fill="none" xmlns="http://www.w3.org/2000/svg">
<path fill-rule="evenodd" clip-rule="evenodd" d="M13.6984 16.321L12.0486 14.6503C11.422 15.2349 10.7886 15.698 10.1478 16.0392C9.50768 16.3801 8.74183 16.5506 7.85089 16.5506C7.15465 16.5506 6.51081 16.4151 5.9191 16.1435C5.32739 15.8719 4.8157 15.4997 4.38404 15.0261C3.95237 14.5528 3.61848 13.9995 3.38151 13.3661C3.14483 12.7328 3.02677 12.0538 3.02677 11.3303C3.02677 10.6063 3.14483 9.93098 3.38151 9.30441C3.61848 8.67812 3.95237 8.13184 4.38404 7.66529C4.8157 7.19902 5.32739 6.83023 5.9191 6.55864C6.51081 6.28733 7.15465 6.15154 7.85089 6.15154C8.68604 6.15154 9.43104 6.31861 10.0853 6.65274C10.7398 6.98659 11.3594 7.42525 11.9438 7.96815L13.5939 6.06815C13.2459 5.73401 12.877 5.42777 12.4871 5.14914C12.0974 4.87078 11.6728 4.63047 11.2132 4.42875C10.7536 4.22674 10.249 4.07038 9.69899 3.9591C9.14899 3.84753 8.53981 3.79175 7.87174 3.79175C6.75792 3.79175 5.74159 3.99037 4.82275 4.38705C3.90363 4.78373 3.11017 5.32663 2.44182 6.01574C1.77347 6.70486 1.25502 7.50864 0.885909 8.42766C0.516795 9.34639 0.33252 10.3279 0.33252 11.372C0.33252 12.4299 0.520458 13.4183 0.896334 14.3373C1.27221 15.2557 1.79094 16.0527 2.45225 16.7281C3.11355 17.4031 3.89658 17.9356 4.80161 18.3255C5.70665 18.7154 6.69537 18.9101 7.76721 18.9101C8.44964 18.9101 9.07263 18.8509 9.63644 18.7326C10.2003 18.6143 10.719 18.4404 11.1924 18.2108C11.6657 17.9809 12.1078 17.7093 12.5186 17.3963C12.9292 17.083 13.3225 16.7244 13.6984 16.321Z" fill="#231044"/>
<path fill-rule="evenodd" clip-rule="evenodd" d="M46.8349 7.93013C46.8349 7.44385 47.0425 7.03065 47.4581 6.69054C47.8734 6.34986 48.4552 6.1798 49.2028 6.1798C49.8675 6.1798 50.5252 6.30854 51.1759 6.56545C51.8269 6.82237 52.4846 7.19396 53.1491 7.67996L54.52 5.74243C53.7726 5.14512 52.9728 4.69032 52.1212 4.37803C51.2693 4.06546 50.3106 3.90918 49.2443 3.90918C48.5244 3.90918 47.8597 4.00981 47.2538 4.21135C46.6446 4.41261 46.1256 4.70072 45.6926 5.07569C45.2599 5.45094 44.9206 5.89871 44.6715 6.41957C44.4257 6.94042 44.301 7.52031 44.301 8.15922C44.301 8.83973 44.4083 9.41624 44.623 9.88846C44.8376 10.3607 45.1526 10.7635 45.5612 11.0969C45.9695 11.4302 46.4784 11.7079 47.0806 11.9303C47.6865 12.1526 48.3756 12.3536 49.1543 12.5343C49.8331 12.701 50.3832 12.8607 50.8091 13.0133C51.2314 13.1662 51.5638 13.3295 51.8096 13.503C52.0517 13.6767 52.2181 13.8675 52.3081 14.0758C52.398 14.2844 52.4429 14.5202 52.4429 14.7842C52.4429 15.3539 52.2111 15.8053 51.7473 16.1384C51.2833 16.4721 50.6567 16.6385 49.8675 16.6385C48.9537 16.6385 48.1365 16.4752 47.4166 16.1488C46.6964 15.8225 45.9835 15.3539 45.277 14.7426L43.7402 16.5761C44.6126 17.3676 45.5612 17.9545 46.5857 18.3365C47.6105 18.7185 48.6836 18.9094 49.805 18.9094C50.5667 18.9094 51.2662 18.8121 51.9031 18.6179C52.5365 18.4231 53.0835 18.1384 53.5335 17.7634C53.987 17.3884 54.3401 16.9303 54.5962 16.3886C54.849 15.8469 54.977 15.2288 54.977 14.5343C54.977 13.9232 54.8767 13.3919 54.6758 12.9405C54.4748 12.4891 54.1772 12.0936 53.7897 11.7529C53.4018 11.4128 52.9103 11.1244 52.3218 10.8883C51.7336 10.6525 51.0549 10.4371 50.2932 10.2426C49.5974 10.0759 49.0263 9.91601 48.5729 9.76338C48.1228 9.61075 47.7697 9.44407 47.5099 9.26333C47.2538 9.08287 47.0775 8.88836 46.9803 8.68007C46.8836 8.4715 46.8349 8.22162 46.8349 7.93013Z" fill="#231044"/>
<path fill-rule="evenodd" clip-rule="evenodd" d="M75.266 8.13608V18.5546H77.8038V4.02686H75.0785L70.6476 10.8965L66.2167 4.02686H63.4917V18.5546H66.0295V8.17753L70.585 14.985H70.6684L75.266 8.13608Z" fill="#231044"/>
<path d="M99.13 11.372C99.13 12.082 99.0085 12.7537 98.7652 13.3873C98.5222 14.0206 98.1853 14.5703 97.7542 15.0365C97.3236 15.5028 96.8058 15.8719 96.2014 16.1435C95.5968 16.4151 94.9333 16.5506 94.2108 16.5506C93.488 16.5506 92.8209 16.4114 92.2095 16.133C91.5981 15.8544 91.0733 15.4786 90.6357 15.0055C90.1981 14.532 89.8575 13.9786 89.6143 13.3453C89.3713 12.712 89.2495 12.04 89.2495 11.3303C89.2495 10.6201 89.3713 9.94845 89.6143 9.31511C89.8575 8.6815 90.1945 8.13184 90.6253 7.66529C91.0562 7.19902 91.5739 6.83023 92.1783 6.55864C92.7827 6.28733 93.4464 6.15154 94.1689 6.15154C94.8917 6.15154 95.5588 6.29071 96.1702 6.56935C96.7814 6.8477 97.3062 7.22353 97.7438 7.69684C98.1817 8.16987 98.5222 8.72348 98.7652 9.35681C99.0085 9.99014 99.13 10.6621 99.13 11.372ZM101.819 11.3303C101.819 10.3 101.631 9.32554 101.256 8.40653C100.881 7.48808 100.36 6.68739 99.693 6.00532C99.0259 5.32296 98.2269 4.78373 97.2955 4.38705C96.3646 3.99037 95.3364 3.79175 94.2108 3.79175C93.085 3.79175 92.0568 3.99375 91.1256 4.39747C90.1945 4.8012 89.3884 5.34747 88.7075 6.03659C88.0264 6.72571 87.4988 7.52977 87.1233 8.4485C86.7481 9.36723 86.5605 10.3417 86.5605 11.372C86.5605 12.4021 86.7481 13.3763 87.1233 14.2953C87.4988 15.2143 88.0196 16.0147 88.6867 16.6968C89.3535 17.3789 90.1528 17.9184 91.084 18.3151C92.0149 18.7117 93.0431 18.9101 94.1689 18.9101C95.2945 18.9101 96.3229 18.7081 97.2539 18.3046C98.1853 17.9009 98.9911 17.3546 99.6722 16.6652C100.353 15.9764 100.881 15.1723 101.256 14.2536C101.631 13.3349 101.819 12.3604 101.819 11.3303Z" fill="#231044"/>
<path fill-rule="evenodd" clip-rule="evenodd" d="M112.483 7.93013C112.483 7.44385 112.691 7.03065 113.106 6.69054C113.522 6.34986 114.103 6.1798 114.851 6.1798C115.516 6.1798 116.174 6.30854 116.824 6.56545C117.475 6.82237 118.133 7.19396 118.798 7.67996L120.168 5.74243C119.421 5.14512 118.621 4.69032 117.769 4.37803C116.918 4.06546 115.959 3.90918 114.893 3.90918C114.173 3.90918 113.508 4.00981 112.902 4.21135C112.293 4.41261 111.774 4.70072 111.341 5.07569C110.908 5.45094 110.569 5.89871 110.32 6.41957C110.074 6.94042 109.949 7.52031 109.949 8.15922C109.949 8.83973 110.057 9.41624 110.271 9.88846C110.486 10.3607 110.801 10.7635 111.209 11.0969C111.618 11.4302 112.127 11.7079 112.729 11.9303C113.335 12.1526 114.024 12.3536 114.803 12.5343C115.481 12.701 116.032 12.8607 116.458 13.0133C116.88 13.1662 117.212 13.3295 117.458 13.503C117.7 13.6767 117.867 13.8675 117.957 14.0758C118.046 14.2844 118.092 14.5202 118.092 14.7842C118.092 15.3539 117.859 15.8053 117.396 16.1384C116.932 16.4721 116.305 16.6385 115.516 16.6385C114.602 16.6385 113.785 16.4752 113.065 16.1488C112.345 15.8225 111.632 15.3539 110.925 14.7426L109.389 16.5761C110.261 17.3676 111.209 17.9545 112.234 18.3365C113.259 18.7185 114.332 18.9094 115.453 18.9094C116.215 18.9094 116.914 18.8121 117.552 18.6179C118.185 18.4231 118.732 18.1384 119.182 17.7634C119.635 17.3884 119.988 16.9303 120.245 16.3886C120.497 15.8469 120.625 15.2288 120.625 14.5343C120.625 13.9232 120.525 13.3919 120.324 12.9405C120.123 12.4891 119.826 12.0936 119.438 11.7529C119.05 11.4128 118.559 11.1244 117.97 10.8883C117.382 10.6525 116.703 10.4371 115.942 10.2426C115.246 10.0759 114.675 9.91601 114.221 9.76338C113.771 9.61075 113.418 9.44407 113.158 9.26333C112.902 9.08287 112.726 8.88836 112.629 8.68007C112.532 8.4715 112.483 8.22162 112.483 7.93013Z" fill="#231044"/>
<path d="M31.1101 6.93585L24.1564 13.8799C24.0667 13.7061 23.9858 13.5251 23.9133 13.3373C23.6704 12.7064 23.549 12.037 23.549 11.33C23.549 10.6224 23.6704 9.95331 23.9133 9.32237C24.1564 8.69115 24.4931 8.14357 24.9237 7.67878C25.3543 7.21427 25.8718 6.84688 26.4758 6.57631C27.0801 6.30603 27.7432 6.17075 28.4652 6.17075C29.1876 6.17075 29.8543 6.3094 30.4651 6.58698C30.6922 6.68999 30.9072 6.80618 31.1101 6.93585ZM30.4965 16.1249C29.8922 16.3955 29.2292 16.5305 28.5071 16.5305C27.7848 16.5305 27.1181 16.3918 26.507 16.1145C26.2802 16.0113 26.0652 15.8951 25.8625 15.7651L32.816 8.82166C32.9056 8.99511 32.9866 9.17586 33.0591 9.36391C33.3019 9.99485 33.4234 10.6642 33.4234 11.3715C33.4234 12.0788 33.3019 12.7479 33.0591 13.3791C32.816 14.0101 32.4792 14.5577 32.0486 15.0222C31.618 15.4867 31.1009 15.8544 30.4965 16.1249ZM31.5486 18.2779C32.4792 17.8757 33.2848 17.3315 33.9653 16.6447C34.6457 15.9585 35.1733 15.1575 35.5483 14.2422C35.9235 13.3269 36.111 12.3561 36.111 11.33C36.111 10.3036 35.9235 9.33276 35.5483 8.41722C35.3259 7.8744 35.0522 7.37313 34.7272 6.91312L39.25 2.39689L37.4528 0.602295L32.9163 5.13228C32.509 4.85498 32.0669 4.61529 31.5902 4.41293C30.6596 4.01774 29.632 3.81987 28.5071 3.81987C27.382 3.81987 26.3544 4.02111 25.4238 4.42331C24.4931 4.82551 23.6876 5.36972 23.0071 6.05624C22.3266 6.74275 21.7988 7.54378 21.4238 8.45904C21.0489 9.3743 20.8614 10.3451 20.8614 11.3715C20.8614 12.3977 21.0489 13.3682 21.4238 14.2837C21.6464 14.8268 21.9202 15.3281 22.2451 15.7884L17.7227 20.3041L19.5198 22.0987L24.0561 17.569C24.4633 17.8463 24.9055 18.086 25.3822 18.2883C26.3128 18.6835 27.3404 18.8811 28.4652 18.8811C29.5904 18.8811 30.618 18.6798 31.5486 18.2779Z" fill="#231044"/>
</svg>
