<svg width="151" height="33" viewBox="0 0 151 33" fill="none" xmlns="http://www.w3.org/2000/svg">
<path d="M43.6841 23.4987V9.66083C43.6841 9.00461 44.2404 8.44824 44.9252 8.44824C45.5814 8.44824 46.1235 9.00461 46.1235 9.66083V22.657H52.5146C53.0995 22.657 53.6131 23.1135 53.6131 23.6984C53.6131 24.3118 53.0995 24.7968 52.5146 24.7968H44.9965C44.1406 24.7826 43.6841 24.3261 43.6841 23.4987Z" fill="#231044"/>
<path d="M58.3486 23.6837V9.64619C58.3486 8.98996 58.905 8.43359 59.5898 8.43359C60.246 8.43359 60.7881 8.98996 60.7881 9.64619V23.6837C60.7881 24.34 60.246 24.8963 59.5898 24.8963C58.905 24.9106 58.3486 24.34 58.3486 23.6837Z" fill="#231044"/>
<path d="M77.6346 24.2686L69.0181 12.3282V23.6837C69.0181 24.34 68.476 24.8963 67.8197 24.8963C67.135 24.8963 66.5786 24.34 66.5786 23.6837V10.0456C66.5786 9.17542 67.2776 8.43359 68.1906 8.43359C68.7042 8.43359 69.1893 8.67611 69.4746 9.08982L77.9199 20.7164V9.64619C77.9199 8.98996 78.462 8.43359 79.1182 8.43359C79.803 8.43359 80.3594 8.98996 80.3594 9.64619V23.3841C80.3594 24.2116 79.6746 24.8963 78.8472 24.8963C78.3479 24.9106 77.9057 24.6823 77.6346 24.2686Z" fill="#231044"/>
<path d="M98.2934 23.7414C98.2934 24.3691 97.8084 24.9112 97.1807 24.9112C96.8668 24.9112 96.5672 24.8399 96.3247 24.5688L90.1476 17.7783L88.5927 19.4331V23.6843C88.5927 24.3405 88.0506 24.8969 87.3801 24.8969C86.7238 24.8969 86.1675 24.3405 86.1675 23.6843V9.64678C86.1675 8.99055 86.7238 8.43419 87.3801 8.43419C88.0648 8.43419 88.5927 8.99055 88.5927 9.64678V16.6513L95.7398 8.79083C95.9823 8.51978 96.2819 8.41992 96.5958 8.41992C97.2092 8.41992 97.737 8.90496 97.737 9.53265C97.737 9.81797 97.6657 10.089 97.4232 10.3173L91.7739 16.3232L97.9796 22.9425C98.165 23.185 98.2934 23.4703 98.2934 23.7414Z" fill="#231044"/>
<path d="M103.202 23.4985V9.84618C103.202 9.01876 103.658 8.56226 104.514 8.56226H113.131C113.716 8.56226 114.229 9.04729 114.229 9.66072C114.229 10.2456 113.716 10.7021 113.131 10.7021H105.641V15.4526H112.959C113.544 15.4526 114.058 15.9091 114.058 16.494C114.058 17.1075 113.544 17.5925 112.959 17.5925H105.641V22.6569H113.131C113.716 22.6569 114.229 23.1134 114.229 23.6983C114.229 24.3117 113.716 24.7967 113.131 24.7967H104.514C103.672 24.7825 103.202 24.326 103.202 23.4985Z" fill="#231044"/>
<path d="M131.422 23.7839C131.422 24.2974 130.965 24.8966 130.28 24.8966C129.867 24.8966 129.481 24.6969 129.253 24.383L125.187 18.5198H121.764V23.684C121.764 24.3402 121.222 24.8966 120.565 24.8966C119.881 24.8966 119.324 24.3402 119.324 23.684V9.84618C119.324 9.01876 119.781 8.56226 120.637 8.56226H126.158C129.253 8.56226 131.365 10.5595 131.365 13.5553C131.365 16.2801 129.667 17.835 127.741 18.2202L131.165 23.042C131.322 23.199 131.422 23.3987 131.422 23.7839ZM121.764 16.3942H125.844C127.598 16.3942 128.854 15.2529 128.854 13.541C128.854 11.8434 127.584 10.6879 125.844 10.6879H121.764V16.3942Z" fill="#231044"/>
<path d="M136.56 23.4985V9.84618C136.56 9.01876 137.016 8.56226 137.872 8.56226H142.351C147.416 8.56226 150.768 12.0146 150.768 16.6938C150.768 21.3872 147.416 24.7967 142.351 24.7967H137.872C137.016 24.7825 136.56 24.326 136.56 23.4985ZM142.351 22.6426C146.103 22.6426 148.258 19.9606 148.258 16.6795C148.258 13.3413 146.16 10.7021 142.351 10.7021H138.999V22.6426H142.351Z" fill="#231044"/>
<path d="M33.7539 6.16675V19.5195L36.2219 20.9318V7.59333L33.7539 6.16675Z" fill="#231044"/>
<path d="M0.789062 20.9318L3.25705 19.5195V6.16675L0.789062 7.59333V20.9318Z" fill="#231044"/>
<path d="M12.8457 20.8046L24.1727 27.3383V24.4994L13.5733 18.3794L12.8457 18.7931V18.8074V20.8046Z" fill="#231044"/>
<path d="M24.8133 31.1163L12.8443 24.2117V27.0506L16.0399 28.8908L12.2024 31.1163C11.9456 31.259 11.9456 31.6441 12.2024 31.7868L14.0854 32.871L18.5078 30.3174L22.9302 32.871L24.8133 31.7868C25.0701 31.6441 25.0701 31.2732 24.8133 31.1163Z" fill="#231044"/>
<path d="M33.7539 14.127V25.9534C33.7539 26.2529 34.082 26.4384 34.3388 26.2957L36.0222 25.3257C36.1363 25.2543 36.2219 25.1259 36.2219 24.9833V12.7004L33.7539 14.127Z" fill="#231044"/>
<path d="M28.9355 29.4192L30.519 28.5062C30.7044 28.4063 30.8043 28.2066 30.8043 28.0069V15.8381L28.3506 17.2647V29.0911C28.3506 29.3764 28.6644 29.5618 28.9355 29.4192Z" fill="#231044"/>
<path d="M22.9282 32.8715L25.1965 31.5591C25.3106 31.4877 25.3962 31.3593 25.3962 31.2167V18.9338L22.9425 20.3604V32.8715H22.9282Z" fill="#231044"/>
<path d="M11.8176 31.5731L14.0859 32.8856V20.3887L11.6322 18.9622V31.245C11.6179 31.3734 11.6892 31.5018 11.8176 31.5731Z" fill="#231044"/>
<path d="M6.4943 28.5068L8.0778 29.4198C8.33459 29.5624 8.6627 29.377 8.6627 29.0774V17.251L6.20898 15.8245V27.9932C6.20898 28.2072 6.30884 28.3926 6.4943 28.5068Z" fill="#231044"/>
<path d="M1.08864 25.3827L2.67215 26.2957C2.92893 26.4384 3.25705 26.2529 3.25705 25.9534V14.127L0.789062 12.7004V24.8692C0.789062 25.0831 0.903189 25.2686 1.08864 25.3827Z" fill="#231044"/>
<path d="M36.226 7.59297L33.758 6.16639L29.3356 8.71997L26.3826 7.02234L30.2343 4.79687C30.4911 4.65422 30.4911 4.26904 30.2343 4.12638L28.6508 3.21337C28.4654 3.11351 28.2514 3.11351 28.0659 3.21337L23.9288 5.59576L20.9758 3.89813L24.8276 1.67266C25.0844 1.53001 25.0844 1.14483 24.8276 1.00217L23.2441 0.0891612C23.0586 -0.0106993 22.8446 -0.0106993 22.6592 0.0891612L18.5221 2.47155L14.385 0.0748954C14.1996 -0.0249651 13.9856 -0.0249651 13.8001 0.0748954L12.2024 1.00217C11.9456 1.14483 11.9456 1.53001 12.2024 1.67266L33.758 14.1267L36.2117 12.7001L31.7893 10.1465L36.226 7.59297Z" fill="#231044"/>
<path d="M8.37581 3.21235L6.77804 4.12536C6.52125 4.26802 6.52125 4.65319 6.77804 4.79585L28.3337 17.2499L30.8016 15.8233L8.9607 3.21235C8.77525 3.11249 8.547 3.11249 8.37581 3.21235Z" fill="#231044"/>
<path d="M0.789062 7.59333L5.22572 10.1469L0.789062 12.7147L3.25704 14.1271L7.67944 11.5735L10.6325 13.2711L6.21006 15.839L8.66378 17.2513L13.1004 14.6977L16.0392 16.3953L11.6168 18.9632L14.0848 20.3755L18.5072 17.8219L22.9296 20.3755L25.3976 18.9632L3.25704 6.16675L0.789062 7.59333Z" fill="#231044"/>
</svg>
