<svg width="108" height="25" viewBox="0 0 108 25" fill="none" xmlns="http://www.w3.org/2000/svg">
<path fill-rule="evenodd" clip-rule="evenodd" d="M26.4155 20.4599H28.3967V23.7512H22.191V15.2565C22.191 12.6383 21.3325 11.6307 19.6495 11.6307C17.6023 11.6307 16.7778 13.1081 16.7778 15.2235V20.494H18.758V23.7843H12.5193V15.2565C12.5193 12.6383 11.6607 11.6307 9.97778 11.6307C7.93158 11.6307 7.10607 13.1081 7.10607 15.2235V20.494H9.94475V23.7843H0.900391V20.494H2.88161V11.9342H0.900391V8.64286H7.1391V10.9266C8.03064 9.31499 9.58153 8.34142 11.6607 8.34142C13.8071 8.34142 15.7872 9.38209 16.5137 11.5987C17.3381 9.58341 19.0221 8.34142 21.3655 8.34142C24.0391 8.34142 26.4815 9.98711 26.4815 13.5789V20.4609H26.4155V20.4599ZM38.1334 20.7624C35.8231 20.7624 34.6343 18.7481 34.6343 16.1289C34.6343 13.2753 35.9871 11.6307 38.1665 11.6307C40.1796 11.6307 41.7976 13.0069 41.7976 16.0618C41.7976 18.9835 40.3447 20.7624 38.1334 20.7624ZM38.2325 8.34035C32.8853 8.34035 30.2437 12.0003 30.2437 16.4314C30.2437 21.2662 33.4137 24.1198 38.0014 24.1198C42.7552 24.1198 46.1872 21.0649 46.1872 16.2301C46.1872 12.0003 43.5796 8.34035 38.2325 8.34035ZM59.5231 18.1442L62.8891 18.4797L61.9656 23.7843H48.9928L48.5646 21.5016L56.7494 11.9332H52.0957L51.4353 14.2829L48.3665 13.9474L48.8938 8.64286H61.9325L62.2627 10.9255L54.0109 20.494H58.8297L59.5221 18.1442H59.5231ZM66.026 23.7843H70.4816V18.3455H66.026V23.7843ZM66.026 14.0806H70.4816V8.64286H66.026V14.0816V14.0806ZM83.8495 0.686035L77.4137 23.7502H73.2212L79.6591 0.686035H83.8506H83.8495ZM92.4987 0.686035L86.0608 23.7502H81.8683L88.3062 0.686035H92.4976H92.4987ZM98.208 20.9988C96.9213 20.9988 96.459 20.2255 96.459 19.252C96.459 17.6063 97.7798 17.1706 99.2977 17.1706C99.99 17.1706 100.751 17.2707 101.443 17.3719C101.344 19.89 99.7269 20.9978 98.208 20.9978V20.9988ZM107.318 21.0979C107.116 21.1617 106.905 21.1958 106.692 21.1991C105.999 21.1991 105.668 20.8966 105.668 20.0242V13.4777C105.668 10.0191 102.962 8.34035 99.7599 8.34035C97.3175 8.34035 95.9967 8.64286 93.3892 9.71762L92.8608 13.2082L96.2609 13.5778L96.7562 11.8661C97.4485 11.4965 98.143 11.4293 99.0335 11.4293C101.443 11.4293 101.476 13.2753 101.476 14.8198V15.3236C100.665 15.2269 99.8497 15.182 99.0335 15.1894C95.6335 15.1894 92.1024 16.0628 92.1024 19.7888C92.1024 22.9449 94.5438 24.1198 96.6901 24.1198C99.0995 24.1198 100.618 22.6424 101.476 21.0979C101.674 22.9449 102.764 24.1198 104.744 24.1198C105.668 24.1198 106.626 23.8514 107.417 23.4146L107.318 21.0979Z" fill="#231044"/>
</svg>
