<svg width="116" height="31" viewBox="0 0 116 31" fill="none" xmlns="http://www.w3.org/2000/svg">
<path fill-rule="evenodd" clip-rule="evenodd" d="M42.3366 9.71815L42.4327 11.4351C43.5286 10.1071 44.9674 9.44319 46.7484 9.44319C49.8346 9.44319 51.4055 11.2148 51.4602 14.758V24.5751H48.1326V14.9501C48.1326 14.0073 47.9295 13.3098 47.5233 12.8559C47.1171 12.4029 46.4524 12.1763 45.5298 12.1763C44.1871 12.1763 43.1865 12.7856 42.5303 14.0026V24.5751H39.2012V9.71815H42.3382H42.3366ZM61.3789 24.8501C59.2698 24.8501 57.5592 24.1846 56.2492 22.8528C54.9385 21.5209 54.2831 19.747 54.2831 17.5317V17.1201C54.2831 15.6375 54.5682 14.3119 55.1392 13.1449C55.7095 11.9779 56.5117 11.0695 57.5435 10.4188C58.5754 9.7697 59.726 9.44475 60.9961 9.44475C63.0138 9.44475 64.5737 10.09 65.6735 11.3804C66.7749 12.6716 67.3248 14.4971 67.3248 16.8592V18.2051H57.6388C57.7404 19.4314 58.1481 20.4016 58.8652 21.1155C59.5823 21.8295 60.4845 22.1865 61.571 22.1865C63.0958 22.1865 64.3378 21.5694 65.297 20.3329L67.0912 22.0498C66.4976 22.9371 65.7055 23.6261 64.7151 24.1158C63.7238 24.6056 62.6123 24.8501 61.3797 24.8501H61.3789ZM60.9821 12.1224C60.0681 12.1224 59.3315 12.4427 58.7699 13.0832C58.2075 13.7238 57.8498 14.6166 57.6943 15.7609H64.037V15.5133C63.9636 14.3963 63.6668 13.5527 63.1466 12.9801C62.6256 12.4083 61.9046 12.1224 60.9821 12.1224ZM74.0776 6.10779V9.71893H76.6944V12.1904H74.0776V20.4836C74.0776 21.0507 74.1901 21.46 74.4135 21.7123C74.6369 21.9638 75.0368 22.0896 75.6125 22.0896C76.0045 22.0885 76.395 22.0424 76.7764 21.9521V24.5337C76.0187 24.7446 75.2884 24.8493 74.5846 24.8493C72.028 24.8493 70.7493 23.4355 70.7493 20.607V12.1896H68.309V9.71815H70.7477V6.107H74.0761L74.0776 6.10779ZM82.777 24.5759H79.4479V3.48555H82.777V24.5759ZM89.9415 24.5759H86.6123V9.71893H89.9415V24.5759ZM86.4069 5.86017C86.4069 5.34853 86.5686 4.92282 86.8928 4.58381C87.2177 4.24558 87.6809 4.07608 88.2832 4.07608C88.8862 4.07608 89.3517 4.24558 89.6814 4.58381C90.0095 4.92282 90.1735 5.34853 90.1735 5.86095C90.1735 6.364 90.0095 6.78268 89.6814 7.117C89.3517 7.45132 88.8862 7.61848 88.2832 7.61848C87.6809 7.61848 87.2177 7.45132 86.8928 7.117C86.5686 6.78346 86.4069 6.364 86.4069 5.86095V5.86017ZM94.736 24.5759V12.1896H92.4755V9.71815H94.736V8.35899C94.736 6.71081 95.1922 5.43914 96.1054 4.54163C97.0193 3.6449 98.2972 3.19653 99.9407 3.19653C100.526 3.19653 101.147 3.27855 101.804 3.44337L101.722 6.05233C101.302 5.97436 100.876 5.93773 100.448 5.94297C98.8588 5.94297 98.0644 6.76159 98.0644 8.40039V9.71815H101.078V12.1896H98.0644V24.5751H94.736V24.5759ZM108.695 19.7978L111.708 9.71893H115.256L109.367 26.8279C108.462 29.3267 106.928 30.5765 104.763 30.5765C104.279 30.5765 103.745 30.4937 103.16 30.3289V27.7473L103.791 27.7887C104.631 27.7887 105.263 27.6356 105.688 27.3286C106.112 27.0224 106.448 26.5077 106.695 25.7843L107.174 24.5072L101.968 9.71893H105.558L108.695 19.7978Z" fill="#231044"/>
<path d="M22.4261 10.6222L22.4152 10.6175C22.4089 10.6152 22.4027 10.6128 22.3972 10.6074C22.3883 10.5978 22.3816 10.5862 22.3778 10.5736C22.374 10.561 22.3732 10.5477 22.3754 10.5347L22.9792 6.84314L25.8107 9.6755L22.8659 10.9284C22.8577 10.9317 22.8489 10.9333 22.8401 10.9331H22.8284C22.8245 10.9308 22.8206 10.9276 22.8128 10.9198C22.7032 10.7978 22.5721 10.6969 22.4261 10.6222ZM26.5333 10.3973L29.5609 13.4249C30.1897 14.0545 30.5045 14.3685 30.6193 14.7325C30.6365 14.7864 30.6506 14.8403 30.6615 14.8958L23.426 11.8314C23.4221 11.8298 23.4182 11.8282 23.4142 11.8267C23.3853 11.815 23.3518 11.8017 23.3518 11.772C23.3518 11.7424 23.3861 11.7283 23.415 11.7166L23.4244 11.7127L26.5333 10.3973ZM30.5381 15.8675C30.3819 16.1612 30.0772 16.4658 29.5617 16.9821L26.1482 20.3949L21.7333 19.4755L21.7098 19.4708C21.6708 19.4646 21.6294 19.4575 21.6294 19.4224C21.6126 19.2403 21.5585 19.0635 21.4705 18.9032C21.3825 18.7429 21.2624 18.6024 21.1177 18.4905C21.0998 18.4725 21.1045 18.4444 21.1099 18.4186C21.1099 18.4147 21.1099 18.4108 21.1115 18.4077L21.9418 13.3101L21.945 13.2929C21.9496 13.2538 21.9567 13.2085 21.9918 13.2085C22.1698 13.1864 22.3415 13.1291 22.4971 13.0399C22.6526 12.9507 22.7889 12.8314 22.8979 12.6891C22.905 12.6813 22.9096 12.6727 22.919 12.668C22.944 12.6563 22.9737 12.668 22.9995 12.6789L30.5373 15.8675H30.5381ZM25.3632 21.1799L19.75 26.7931L20.7108 20.8878L20.7123 20.88C20.7131 20.8721 20.7147 20.8643 20.717 20.8573C20.7248 20.8386 20.7451 20.8307 20.7647 20.8229L20.774 20.819C20.9844 20.7293 21.1705 20.5909 21.3169 20.4152C21.3357 20.3933 21.3583 20.3722 21.3872 20.3683C21.3947 20.3671 21.4024 20.3671 21.4099 20.3683L25.3624 21.1807L25.3632 21.1799ZM18.5619 27.9812L17.9292 28.6139L10.9342 18.5046C10.9317 18.5009 10.9291 18.4972 10.9264 18.4936C10.9155 18.4788 10.9037 18.4639 10.9061 18.4468C10.9061 18.4343 10.9147 18.4233 10.9233 18.4139L10.9311 18.4038C10.9522 18.3725 10.9701 18.3413 10.9897 18.3077L11.0053 18.2804L11.0076 18.278C11.0186 18.2593 11.0287 18.2413 11.0475 18.2312C11.0639 18.2233 11.0865 18.2265 11.1045 18.2304L18.854 19.8286C18.8757 19.8319 18.8961 19.8408 18.9134 19.8543C18.9236 19.8645 18.9259 19.8754 18.9282 19.8879C18.9823 20.0925 19.0829 20.2817 19.2222 20.4409C19.3615 20.6001 19.5357 20.725 19.7312 20.8057C19.7531 20.8167 19.7437 20.8409 19.7336 20.8667C19.7285 20.878 19.7246 20.8897 19.7219 20.9018C19.6242 21.4955 18.7869 26.6025 18.5619 27.9812ZM17.2402 29.302C16.7739 29.7637 16.4989 30.0082 16.1881 30.1066C15.8815 30.2035 15.5526 30.2035 15.246 30.1066C14.882 29.991 14.5672 29.677 13.9384 29.0474L6.91376 22.0227L8.74862 19.1771C8.75722 19.163 8.76581 19.1505 8.77987 19.1404C8.7994 19.1263 8.82752 19.1326 8.85095 19.1404C9.2721 19.2675 9.72428 19.2445 10.1304 19.0756C10.1515 19.0677 10.1726 19.0623 10.189 19.0771C10.1972 19.0846 10.2046 19.093 10.2109 19.1021L17.2402 29.302ZM6.23574 21.3455L4.62506 19.734L7.80737 18.3765C7.8155 18.3729 7.82427 18.371 7.83314 18.371C7.8597 18.371 7.87533 18.3975 7.88939 18.4218C7.92137 18.471 7.95524 18.5189 7.99093 18.5655L8.00109 18.578C8.01046 18.5913 8.00421 18.6045 7.99484 18.617L6.23731 21.3455H6.23574ZM3.91111 19.0209L1.87238 16.9821C1.52556 16.6353 1.27404 16.3838 1.09906 16.1674L7.29807 17.4532C7.30586 17.4546 7.31367 17.4559 7.32151 17.4571C7.35978 17.4633 7.40196 17.4703 7.40196 17.5063C7.40196 17.5453 7.35588 17.5633 7.31682 17.5781L7.29885 17.586L3.91111 19.0209ZM0.744433 15.1192C0.751498 14.9878 0.775119 14.8579 0.814735 14.7325C0.930341 14.3685 1.24435 14.0545 1.87394 13.4249L4.4829 10.8159C5.68414 12.5593 6.88864 14.3004 8.09638 16.0393C8.11747 16.0674 8.14091 16.0987 8.11669 16.1221C8.00265 16.2479 7.8886 16.3854 7.80815 16.5346C7.79942 16.5537 7.78598 16.5704 7.76909 16.583C7.75894 16.5892 7.748 16.5869 7.73629 16.5845H7.73472L0.743652 15.1184L0.744433 15.1192ZM5.18122 10.1176L8.68848 6.60958C9.01889 6.75409 10.2195 7.26104 11.292 7.71409C12.1043 8.05779 12.8448 8.37024 13.0776 8.47178C13.1011 8.48116 13.1221 8.49053 13.1323 8.51396C13.1385 8.52802 13.1354 8.54599 13.1323 8.56083C13.0768 8.81405 13.085 9.0771 13.1563 9.32634C13.2276 9.57558 13.3598 9.80319 13.5408 9.98873C13.5643 10.0122 13.5408 10.0457 13.5205 10.0747L13.5096 10.0911L9.94765 15.6081C9.93828 15.6238 9.92968 15.637 9.91406 15.6472C9.89532 15.6589 9.86876 15.6534 9.84688 15.648C9.70835 15.6117 9.56593 15.5923 9.42273 15.5902C9.29463 15.5902 9.15559 15.6136 9.01499 15.6394H9.0142C8.99858 15.6417 8.98452 15.6449 8.97202 15.6355C8.95822 15.6242 8.94635 15.6107 8.93687 15.5956L5.18122 10.1176ZM9.39774 5.9011L13.9392 1.35964C14.568 0.730832 14.8828 0.416039 15.2468 0.301213C15.5533 0.204283 15.8823 0.204283 16.1888 0.301213C16.5528 0.416039 16.8676 0.730832 17.4964 1.35964L18.4807 2.34386L15.2499 7.3454C15.2419 7.35996 15.231 7.37273 15.2179 7.38289C15.1984 7.39617 15.171 7.39071 15.1476 7.38289C14.8929 7.30561 14.6233 7.29154 14.362 7.3419C14.1007 7.39226 13.8555 7.50553 13.6478 7.67191C13.6267 7.69378 13.5955 7.68128 13.5689 7.66957C13.1471 7.486 9.86641 6.09951 9.39696 5.90032L9.39774 5.9011ZM19.1665 3.02968L22.1488 6.01202L21.4302 10.4629V10.4746C21.4295 10.4847 21.4274 10.4947 21.4239 10.5043C21.4161 10.5199 21.4005 10.523 21.3849 10.5277C21.2312 10.5742 21.0865 10.6463 20.9568 10.741C20.9513 10.7449 20.946 10.7494 20.9412 10.7542C20.9326 10.7636 20.924 10.7722 20.91 10.7738C20.8985 10.7741 20.8871 10.7723 20.8764 10.7683L16.3318 8.83735L16.3232 8.83344C16.2943 8.82173 16.2599 8.80767 16.2599 8.77798C16.2332 8.52473 16.1505 8.28059 16.0178 8.06325C15.9959 8.02732 15.9717 7.98983 15.9904 7.95312L19.1665 3.02968ZM16.0935 9.75127L20.3538 11.5557C20.3772 11.5666 20.403 11.5768 20.4132 11.601C20.4172 11.6155 20.4172 11.6309 20.4132 11.6455C20.4007 11.708 20.3897 11.7791 20.3897 11.8509V11.9704C20.3897 12.0001 20.3593 12.0126 20.3311 12.0243L20.3226 12.0275C19.6477 12.3157 10.8475 16.0682 10.8342 16.0682C10.8209 16.0682 10.8069 16.0682 10.7936 16.0549C10.7702 16.0315 10.7936 15.9987 10.8147 15.969C10.8184 15.9639 10.8221 15.9587 10.8256 15.9534L14.3266 10.5324L14.3329 10.523C14.3532 10.4902 14.3766 10.4535 14.4141 10.4535L14.4493 10.459C14.5289 10.4699 14.5992 10.4801 14.6703 10.4801C15.2015 10.4801 15.6936 10.2215 15.9904 9.77939C15.9975 9.76758 16.0065 9.75702 16.017 9.74814C16.0381 9.73252 16.0693 9.74033 16.0935 9.75127ZM11.2146 16.9259L20.8069 12.8351C20.8069 12.8351 20.8209 12.8351 20.8342 12.8484C20.8865 12.9008 20.931 12.9359 20.974 12.9687L20.9951 12.982C21.0146 12.9929 21.0342 13.0054 21.0357 13.0257C21.0357 13.0336 21.0357 13.0382 21.0342 13.0453L20.2132 18.0937L20.2101 18.114C20.2046 18.153 20.1991 18.1976 20.1624 18.1976C19.9433 18.2124 19.7312 18.2803 19.5443 18.3956C19.3574 18.5109 19.2015 18.67 19.0899 18.8592L19.086 18.8654C19.0751 18.8834 19.0649 18.9006 19.047 18.91C19.0306 18.9178 19.0095 18.9146 18.9923 18.9107L11.3427 17.3329C11.3349 17.3313 11.224 16.9275 11.2154 16.9267L11.2146 16.9259Z" fill="#231044"/>
</svg>
