<svg width="163" height="29" viewBox="0 0 163 29" fill="none" xmlns="http://www.w3.org/2000/svg">
<path d="M25.4006 22.0948H22.0965C19.6367 22.0948 17.5285 20.4739 16.7552 18.2048L18.6181 17.5564C19.1102 19.0327 20.4803 20.1138 22.0973 20.1138H25.4014C26.5606 20.1138 27.5448 19.1054 27.5448 17.8798C27.5448 16.4753 26.1037 16.1152 24.5922 15.8989L21.5349 15.4302C19.461 15.1427 16.6138 14.4585 16.6138 11.4691C16.6138 9.16323 18.4416 7.25416 20.6912 7.25416H23.9954C26.4559 7.25416 28.5642 8.875 29.3024 11.1442L27.4745 11.7925C26.9473 10.3162 25.6116 9.27181 23.9954 9.27181H20.6912C19.5313 9.27181 18.5478 10.2443 18.5478 11.4691C18.5478 13.0173 20.41 13.3055 21.8864 13.5219L24.8039 13.9179C27.0879 14.2421 29.4781 15.1787 29.4781 17.8806C29.4781 20.2216 27.6854 22.0948 25.4006 22.0948ZM46.3129 15.5028C46.3129 19.1413 43.4306 22.0955 39.8811 22.0955C38.1939 22.0955 36.577 21.4472 35.3819 20.2216V28.2188H33.4501V7.29088H35.3834V9.16323C36.577 7.96986 38.1941 7.29681 39.8819 7.29088C43.4321 7.29088 46.3137 10.2802 46.3137 13.9179V15.5036L46.3129 15.5028ZM44.3796 13.9179C44.3796 11.3605 42.3409 9.30774 39.8811 9.30774C37.4206 9.30774 35.3819 11.3605 35.3819 13.9179V15.5036C35.3819 18.0243 37.4206 20.1138 39.8811 20.1138C42.3417 20.1138 44.3804 18.0243 44.3804 15.5028V13.9179H44.3796ZM60.0553 22.0948V20.6887C59.0354 21.5876 57.7246 22.0868 56.3652 22.094H53.2368C50.9872 22.094 49.1601 20.1849 49.1601 17.915C49.1601 15.6106 51.0231 13.7008 53.2376 13.7008H57.947C58.9312 13.7008 60.0904 13.5571 60.0904 12.3323C60.0904 10.135 58.2282 9.30618 56.4004 9.30618H54.853C53.2712 9.30618 51.866 10.3146 51.3379 11.8277L49.5109 11.1793C50.3193 8.87422 52.4635 7.32524 54.8538 7.32524H56.3996C59.3523 7.32524 62.0237 8.98201 62.0237 12.3323V22.1299H60.0553V22.0932V22.0948ZM57.9119 15.6825H53.2017C52.0425 15.6825 51.0583 16.6917 51.0583 17.9165C51.0583 19.1046 52.0425 20.113 53.2017 20.113H56.3301C58.3688 20.113 60.0201 18.3844 60.0201 16.2949V15.3224C59.3523 15.6114 58.65 15.6825 57.9111 15.6825H57.9119ZM75.9769 11.937C75.2388 10.3521 73.657 9.30774 71.9346 9.30774C69.4741 9.30774 67.4361 11.3972 67.4361 13.9179V15.5036C67.4361 18.0243 69.4749 20.1138 71.9354 20.1138C73.657 20.1138 75.2388 19.1054 75.9769 17.4486L77.7337 18.3126C77.2273 19.434 76.4068 20.3847 75.3713 21.0496C74.3359 21.7145 73.13 22.065 71.8995 22.0588C68.35 22.0588 65.4677 19.1054 65.4677 15.4669V13.882C65.4677 10.2443 68.35 7.29088 71.8995 7.29088C74.3952 7.29088 76.6448 8.73127 77.7337 11.0364L75.9762 11.937H75.9769ZM93.1281 15.6833H82.233C82.3384 18.1688 84.3061 20.1138 86.6963 20.1138C88.4187 20.1138 90.0005 19.1054 90.7379 17.4486L92.4954 18.3126C91.989 19.434 91.1685 20.3847 90.133 21.0496C89.0976 21.7145 87.8917 22.065 86.6612 22.0588C83.1117 22.0588 80.2294 19.1054 80.2294 15.4669V13.882C80.2294 10.2443 83.1117 7.29088 86.6612 7.29088C90.2114 7.29088 93.093 10.2435 93.093 13.882V15.6833H93.1281ZM86.6963 9.30774C84.3061 9.30774 82.3033 11.2527 82.233 13.7024H91.1948C91.0542 11.2887 89.0866 9.30774 86.6963 9.30774ZM111.474 22.0948V11.9354C111.474 10.2795 110.209 9.30618 108.698 9.30618C107.327 9.30618 106.167 10.4951 106.167 11.9354V22.1291H104.199V11.9354C104.199 10.2795 102.934 9.30618 101.423 9.30618C100.017 9.30618 98.8569 10.4951 98.8569 11.9354V22.1291H96.9244V7.36274H98.8569V8.19073C99.7356 7.5424 100.579 7.36274 101.634 7.36274C102.97 7.36274 104.304 8.01107 105.148 9.09137C106.097 7.83063 107.398 7.36274 108.874 7.36274C111.369 7.36274 113.373 9.41553 113.373 11.9729V22.1666H111.474V22.0948ZM129.821 15.6833H118.926C119.031 18.1688 120.999 20.1138 123.389 20.1138C125.111 20.1138 126.693 19.1054 127.431 17.4486L129.188 18.3126C128.682 19.434 127.861 20.3847 126.826 21.0496C125.79 21.7145 124.584 22.065 123.354 22.0588C119.804 22.0588 116.922 19.1054 116.922 15.4669V13.882C116.922 10.2443 119.804 7.29088 123.354 7.29088C126.904 7.29088 129.786 10.2435 129.786 13.882V15.6833H129.821ZM123.389 9.30774C120.999 9.30774 118.996 11.2527 118.926 13.7024H127.888C127.748 11.2887 125.779 9.30774 123.389 9.30774ZM141.666 22.0948H138.362C135.902 22.0948 133.793 20.4739 133.019 18.2048L134.882 17.5564C135.374 19.0327 136.745 20.1138 138.362 20.1138H141.666C142.826 20.1138 143.809 19.1054 143.809 17.8798C143.809 16.4753 142.369 16.1152 140.857 15.8989L137.799 15.4302C135.726 15.1427 132.879 14.4585 132.879 11.4691C132.879 9.16323 134.707 7.25416 136.955 7.25416H140.26C142.72 7.25416 144.828 8.875 145.567 11.1442L143.739 11.7925C143.212 10.3162 141.877 9.27181 140.26 9.27181H136.955C135.796 9.27181 134.812 10.2443 134.812 11.4691C134.812 13.0173 136.674 13.3055 138.151 13.5219L141.068 13.9179C143.317 14.207 145.742 15.1427 145.742 17.8447C145.742 20.2216 143.95 22.094 141.666 22.094V22.0948ZM160.645 22.0948V13.9179C160.645 11.3605 158.606 9.30696 156.145 9.30696C153.686 9.30696 151.647 11.3605 151.647 13.9179V22.0948H149.714V0.914551H151.647V9.19916C152.84 8.00557 154.457 7.33226 156.145 7.32603C159.696 7.32603 162.577 10.2795 162.577 13.9179V22.0948H160.645Z" fill="#231044"/>
<path fill-rule="evenodd" clip-rule="evenodd" d="M0.95166 8.52326L1.42772 7.39648H7.89622L8.37229 8.52326L5.58798 11.3873L8.37229 14.2512L8.37147 15.1777L5.58979 18.0289L8.37222 20.8806L7.897 22.0082H1.42772L0.952477 20.8806L3.73454 18.029L0.952505 15.1778L0.95166 14.2512L3.73597 11.3873L0.95166 8.52326ZM4.66197 10.4347L6.32473 8.7244H2.99921L4.66197 10.4347ZM4.66197 12.3398L2.35455 14.7132L4.66214 17.0782L6.96942 14.7132L4.66197 12.3398ZM4.6622 18.9797L3.00309 20.6803H6.32151L4.6622 18.9797Z" fill="#231044"/>
</svg>
