<svg width="130" height="27" viewBox="0 0 130 27" fill="none" xmlns="http://www.w3.org/2000/svg">
<path d="M14.9159 0.916016L29.2537 26.3537H0.578125L14.9159 0.916016Z" fill="url(#paint0_linear)"/>
<path d="M48.8052 20.0389H60.3073V18.0422H51.6737L60.1667 5.92133V4.17773H48.9458V6.17444H57.2982L48.8052 18.2953V20.0389ZM72.3438 20.0389H82.6647V18.0422H74.6779V12.952H81.6242V10.9553H74.6779V6.17444H82.6647V4.17773H72.3438V20.0389ZM95.0949 20.0389H105.163V18.0422H101.31V6.17444H105.163V4.17773H95.0949V6.17444H98.9758V18.0422H95.0949V20.0389ZM121.727 20.0389H124.061V6.17444H129.461V4.17773H116.384V6.17444H121.727V20.0389Z" fill="#231044"/>
<defs>
<linearGradient id="paint0_linear" x1="33.475" y1="47.0302" x2="14.6619" y2="24.101" gradientUnits="userSpaceOnUse">
<stop stop-color="white"/>
<stop offset="1" stop-color="#231044"/>
</linearGradient>
</defs>
</svg>
