<svg width="94" height="93" viewBox="0 0 94 93" fill="none" xmlns="http://www.w3.org/2000/svg">
<path d="M15.9593 40.689C25.5523 40.689 31.7533 34.17 31.7533 20.655C31.7533 7.352 26.8243 0.408998 16.3833 0.408998C6.41927 0.408998 0.854274 7.405 0.854274 20.814C0.854274 34.435 6.04827 40.689 15.9593 40.689ZM16.2243 35.018C10.9243 35.018 7.69127 30.725 7.69127 20.708C7.69127 10.267 11.0833 6.027 16.2243 6.027C21.5243 6.027 24.9163 10.532 24.9163 20.708C24.9163 30.831 21.3653 35.018 16.2243 35.018ZM45.4919 40H52.1699V1.31H38.6019L37.5419 7.193H45.4919V40ZM78.1204 40.689C87.7134 40.689 93.9144 34.17 93.9144 20.655C93.9144 7.352 88.9854 0.408998 78.5444 0.408998C68.5804 0.408998 63.0154 7.405 63.0154 20.814C63.0154 34.435 68.2094 40.689 78.1204 40.689ZM78.3854 35.018C73.0854 35.018 69.8524 30.725 69.8524 20.708C69.8524 10.267 73.2444 6.027 78.3854 6.027C83.6854 6.027 87.0774 10.532 87.0774 20.708C87.0774 30.831 83.5264 35.018 78.3854 35.018ZM20.3893 92H27.0673V53.31H13.4993L12.4393 59.193H20.3893V92ZM53.0179 92.689C62.6109 92.689 68.8119 86.17 68.8119 72.655C68.8119 59.352 63.8829 52.409 53.4419 52.409C43.4779 52.409 37.9129 59.405 37.9129 72.814C37.9129 86.435 43.1069 92.689 53.0179 92.689ZM53.2829 87.018C47.9829 87.018 44.7499 82.725 44.7499 72.708C44.7499 62.267 48.1419 58.027 53.2829 58.027C58.5829 58.027 61.9749 62.532 61.9749 72.708C61.9749 82.831 58.4239 87.018 53.2829 87.018ZM82.5505 92H89.2285V53.31H75.6605L74.6005 59.193H82.5505V92Z" fill="white"/>
</svg>
