<svg width="93" height="92" id="Layer_1" data-name="Layer 1" xmlns="http://www.w3.org/2000/svg" viewBox="0 0 93 92" fill="white"><title>binary-icon</title><polygon points="46 40 53 40 53 0 39 0 38 6 46 6 46 40"/><path d="M77.6,0C67.61,0,62,7.19,62,20.5,62,34,67.23,40,77.16,40,86.78,40,93,33.53,93,20.11,93,6.89,88.08,0,77.6,0Zm-.2,34.4c-5.31,0-8.53-4.29-8.53-14.24C68.87,9.79,72.23,5.6,77.4,5.6S86.15,10,86.15,20.1,82.56,34.4,77.4,34.4Z"/><path d="M47.6,52C37.61,52,32,58.89,32,72.2,32,85.74,37.26,92,47.2,92,56.82,92,63,85.53,63,72.11,63,58.89,58.08,52,47.6,52Zm-.2,34.3c-5.32,0-8.53-4.25-8.53-14.2,0-10.37,3.37-14.5,8.53-14.5,5.32,0,8.75,4.45,8.75,14.56S52.55,86.3,47.4,86.3Z"/><path d="M15.5,0C5.51,0,0,7,0,20.26,0,33.79,5.16,40,15.1,40,24.72,40,31,33.53,31,20.11,31,6.89,26,0,15.5,0Zm-.09,34.37c-5.31,0-8.56-4.26-8.56-14.21,0-10.37,3.4-14.58,8.56-14.58,5.32,0,8.72,4.47,8.72,14.58S20.57,34.37,15.41,34.37Z"/><polygon points="15 92 22 92 22 52 8 52 7 58 15 58 15 92"/><polygon points="79 92 86 92 86 52 72 52 71 58 79 58 79 92"/></svg>