<svg width="133" height="88" viewBox="0 0 133 88" fill="none" xmlns="http://www.w3.org/2000/svg">
<path d="M3 26.9653C21.5915 59.5493 83.97 79.3816 111.012 35.7693" stroke="white" stroke-width="6" stroke-miterlimit="10"/>
<path d="M24.1575 48.3956C24.1888 35.2367 46.317 32.0723 46.317 32.0723L40.6206 41.9102C40.6206 41.9102 52.6707 39.5917 56.9899 35.2994C64.3138 39.1217 89.3216 46.4218 113.234 4C129.634 7.35239 136.019 32.0097 120.214 54.5678C103.75 78.0345 86.9742 82.8908 75.8631 83.5487C64.1573 74.4941 59.0556 72.9276 56.9899 72.5203C59.8381 80.541 60.871 84.614 60.871 84.614C51.2935 84.9273 39.6817 78.8804 32.1074 69.4812" stroke="white" stroke-width="6" stroke-miterlimit="10"/>
</svg>
