<svg width="133" height="88" fill="white" id="Layer_1" data-name="Layer 1" xmlns="http://www.w3.org/2000/svg" viewBox="0 0 133 88"><defs><style>.cls-1{fill:none;stroke:#fff;stroke-miterlimit:10;stroke-width:6px;}</style></defs><title>feather-icon</title><path class="cls-1" d="M3,27c18.62,32.55,80.92,52.56,108,9"/><path class="cls-1" d="M24,49c0-13.22,22-17,22-17L40,42s12.67-2.69,17-7c7.34,3.84,32.05,11.61,56-31,16,3,24.17,28.34,8.34,51C104.85,78.57,87.13,83.34,76,84,64.28,74.9,59.07,73.41,57,73c2.85,8.06,3,12,3,12-10,0-20.41-5.56-28-15"/></svg>