<svg width="149" height="35" viewBox="0 0 149 35" fill="none" xmlns="http://www.w3.org/2000/svg">
<rect width="80" height="35" rx="3" fill="url(#paint0_linear)" fill-opacity="0.08"/>
<rect x="0.5" y="0.5" width="79" height="34" rx="2.5" stroke="#231044" stroke-opacity="0.15"/>
<path opacity="0.2" d="M89.537 22.5V22.2918L89.3893 22.1451L84.7097 17.5L89.3893 12.8549L89.537 12.7082V12.5V3C89.537 1.61929 90.6563 0.5 92.037 0.5H146C147.381 0.5 148.5 1.61929 148.5 3V32C148.5 33.3807 147.381 34.5 146 34.5H92.037C90.6563 34.5 89.537 33.3807 89.537 32V22.5Z" stroke="#231044"/>
<g clip-path="url(#clip0)">
<path fill-rule="evenodd" clip-rule="evenodd" d="M20 8C14.4751 8 10 12.4751 10 18C10 22.4199 12.8668 26.1645 16.8386 27.4905C17.3358 27.5826 17.5199 27.2756 17.5199 27.0055C17.5199 26.7661 17.5138 26.14 17.5077 25.3051C14.7268 25.9067 14.1375 23.9668 14.1375 23.9668C13.6832 22.8128 13.0264 22.4997 13.0264 22.4997C12.1179 21.8797 13.0939 21.892 13.0939 21.892C14.0945 21.9656 14.6286 22.9233 14.6286 22.9233C15.5187 24.4518 16.9675 24.0098 17.5384 23.752C17.6304 23.1074 17.8883 22.6654 18.1707 22.4137C15.9546 22.1682 13.6219 21.3088 13.6219 17.4782C13.6219 16.3855 14.0086 15.4954 14.6532 14.7956C14.5488 14.5378 14.205 13.5249 14.7452 12.1498C14.7452 12.1498 15.5862 11.8797 17.4954 13.175C18.2934 12.954 19.1467 12.8435 20 12.8373C20.8471 12.8435 21.7066 12.954 22.5046 13.175C24.4137 11.8797 25.2548 12.1498 25.2548 12.1498C25.8011 13.5249 25.4573 14.5439 25.353 14.7956C25.9914 15.4954 26.3781 16.3855 26.3781 17.4782C26.3781 21.3211 24.0393 22.1621 21.8109 22.4137C22.167 22.7207 22.4923 23.3346 22.4923 24.2676C22.4923 25.6059 22.48 26.6802 22.48 27.0117C22.48 27.2818 22.6581 27.5887 23.1676 27.4905C27.1393 26.1645 30 22.4199 30 18.0061C30 12.4751 25.5249 8 20 8Z" fill="#231044"/>
</g>
<path d="M42.8238 23.208C41.7785 23.208 40.8878 22.9627 40.1518 22.472C39.4051 21.9813 38.8825 21.3093 38.5838 20.456L39.8638 19.72C40.3011 21.0747 41.2985 21.752 42.8558 21.752C43.6238 21.752 44.2105 21.592 44.6158 21.272C45.0211 20.9627 45.2238 20.5467 45.2238 20.024C45.2238 19.4907 45.0211 19.0907 44.6158 18.824C44.2105 18.5573 43.5331 18.2747 42.5838 17.976C42.1145 17.8267 41.7571 17.704 41.5118 17.608C41.2665 17.5227 40.9625 17.384 40.5998 17.192C40.2265 17.0107 39.9491 16.8187 39.7678 16.616C39.5865 16.424 39.4265 16.168 39.2878 15.848C39.1385 15.528 39.0638 15.1653 39.0638 14.76C39.0638 13.7893 39.4051 13.016 40.0878 12.44C40.7705 11.8747 41.6025 11.592 42.5838 11.592C43.4691 11.592 44.2425 11.816 44.9038 12.264C45.5545 12.712 46.0451 13.304 46.3758 14.04L45.1278 14.76C44.6478 13.608 43.7998 13.032 42.5838 13.032C41.9758 13.032 41.4851 13.1813 41.1118 13.48C40.7385 13.7787 40.5518 14.184 40.5518 14.696C40.5518 15.1867 40.7278 15.56 41.0798 15.816C41.4318 16.072 42.0398 16.3387 42.9038 16.616C43.2131 16.712 43.4318 16.7813 43.5598 16.824C43.6878 16.8667 43.8905 16.9413 44.1678 17.048C44.4345 17.1547 44.6318 17.24 44.7598 17.304C44.8878 17.368 45.0638 17.4587 45.2878 17.576C45.5011 17.6933 45.6611 17.8053 45.7678 17.912C45.8745 18.0187 46.0025 18.1467 46.1518 18.296C46.2905 18.456 46.3918 18.616 46.4558 18.776C46.5198 18.936 46.5785 19.1173 46.6318 19.32C46.6745 19.5333 46.6958 19.7573 46.6958 19.992C46.6958 20.9733 46.3385 21.752 45.6238 22.328C44.9091 22.9147 43.9758 23.208 42.8238 23.208ZM50.3034 16.344V20.68C50.3034 21.0747 50.3834 21.352 50.5434 21.512C50.6928 21.6827 50.9274 21.768 51.2474 21.768C51.5674 21.7787 51.9621 21.7733 52.4314 21.752V23C51.2154 23.16 50.3248 23.0587 49.7594 22.696C49.1941 22.344 48.9114 21.672 48.9114 20.68V16.344H47.3274V15H48.9114V13.176L50.3034 12.76V15H52.4314V16.344H50.3034ZM61.6892 15V23H60.2972V21.624C59.6039 22.68 58.5959 23.208 57.2732 23.208C56.1532 23.208 55.1985 22.7973 54.4092 21.976C53.6199 21.1653 53.2252 20.1733 53.2252 19C53.2252 17.8267 53.6199 16.8293 54.4092 16.008C55.1985 15.1973 56.1532 14.792 57.2732 14.792C58.5959 14.792 59.6039 15.32 60.2972 16.376V15H61.6892ZM57.4492 21.864C58.2599 21.864 58.9372 21.5867 59.4812 21.032C60.0252 20.488 60.2972 19.8107 60.2972 19C60.2972 18.1893 60.0252 17.5067 59.4812 16.952C58.9372 16.408 58.2599 16.136 57.4492 16.136C56.6492 16.136 55.9772 16.408 55.4332 16.952C54.8892 17.5067 54.6172 18.1893 54.6172 19C54.6172 19.8107 54.8892 20.488 55.4332 21.032C55.9772 21.5867 56.6492 21.864 57.4492 21.864ZM65.1902 16.344C65.6489 15.352 66.4809 14.856 67.6862 14.856V16.312C67.0035 16.28 66.4169 16.4613 65.9262 16.856C65.4355 17.2507 65.1902 17.8853 65.1902 18.76V23H63.7982V15H65.1902V16.344Z" fill="#231044"/>
<path d="M40.1518 22.472L40.2073 22.3888L40.2067 22.3884L40.1518 22.472ZM38.5838 20.456L38.534 20.3693L38.462 20.4107L38.4894 20.489L38.5838 20.456ZM39.8638 19.72L39.959 19.6893L39.921 19.5717L39.814 19.6333L39.8638 19.72ZM44.6158 21.272L44.5551 21.1925L44.5538 21.1935L44.6158 21.272ZM44.6158 18.824L44.5609 18.9075L44.6158 18.824ZM42.5838 17.976L42.5535 18.0713L42.5538 18.0714L42.5838 17.976ZM41.5118 17.608L41.5483 17.5148L41.5447 17.5135L41.5118 17.608ZM40.5998 17.192L40.6466 17.1036L40.6435 17.102L40.5998 17.192ZM39.7678 16.616L39.8424 16.5493L39.8405 16.5473L39.7678 16.616ZM39.2878 15.848L39.3796 15.8082L39.3784 15.8057L39.2878 15.848ZM40.0878 12.44L40.024 12.363L40.0233 12.3636L40.0878 12.44ZM44.9038 12.264L44.9605 12.1816L44.9599 12.1812L44.9038 12.264ZM46.3758 14.04L46.4258 14.1266L46.5041 14.0815L46.467 13.999L46.3758 14.04ZM45.1278 14.76L45.0355 14.7985L45.0793 14.9035L45.1778 14.8466L45.1278 14.76ZM41.1118 13.48L41.0493 13.4019L41.1118 13.48ZM41.0798 15.816L41.1386 15.7351L41.0798 15.816ZM42.9038 16.616L42.8732 16.7112L42.8742 16.7115L42.9038 16.616ZM43.5598 16.824L43.5282 16.9189H43.5282L43.5598 16.824ZM44.1678 17.048L44.205 16.9551L44.2037 16.9547L44.1678 17.048ZM44.7598 17.304L44.7151 17.3934L44.7151 17.3934L44.7598 17.304ZM45.2878 17.576L45.336 17.4884L45.3342 17.4874L45.2878 17.576ZM45.7678 17.912L45.6971 17.9827L45.7678 17.912ZM46.1518 18.296L46.2276 18.2303L46.2225 18.2253L46.1518 18.296ZM46.4558 18.776L46.363 18.8131L46.4558 18.776ZM46.6318 19.32L46.73 19.3004L46.7285 19.2946L46.6318 19.32ZM45.6238 22.328L45.5611 22.2501L45.5604 22.2507L45.6238 22.328ZM42.8238 23.108C41.7946 23.108 40.9241 22.8666 40.2073 22.3888L40.0963 22.5552C40.8516 23.0587 41.7624 23.308 42.8238 23.308V23.108ZM40.2067 22.3884C39.4786 21.91 38.9697 21.2558 38.6782 20.423L38.4894 20.489C38.7953 21.3628 39.3316 22.0527 40.0969 22.5556L40.2067 22.3884ZM38.6337 20.5427L39.9137 19.8067L39.814 19.6333L38.534 20.3693L38.6337 20.5427ZM39.7686 19.7507C39.9929 20.4453 40.3634 20.9734 40.8836 21.3267C41.4031 21.6795 42.0629 21.852 42.8558 21.852V21.652C42.0914 21.652 41.4739 21.4858 40.996 21.1613C40.5189 20.8373 40.1721 20.3494 39.959 19.6893L39.7686 19.7507ZM42.8558 21.852C43.6358 21.852 44.248 21.6898 44.6778 21.3505L44.5538 21.1935C44.1729 21.4942 43.6118 21.652 42.8558 21.652V21.852ZM44.6765 21.3515C45.1073 21.0227 45.3238 20.5769 45.3238 20.024H45.1238C45.1238 20.5164 44.935 20.9026 44.5551 21.1925L44.6765 21.3515ZM45.3238 20.024C45.3238 19.461 45.1074 19.0277 44.6708 18.7405L44.5609 18.9075C44.9349 19.1536 45.1238 19.5204 45.1238 20.024H45.3238ZM44.6708 18.7405C44.2532 18.4658 43.5648 18.1798 42.6138 17.8806L42.5538 18.0714C43.5015 18.3696 44.1677 18.6489 44.5609 18.9075L44.6708 18.7405ZM42.6141 17.8807C42.1454 17.7316 41.7905 17.6097 41.5483 17.5149L41.4754 17.7011C41.7238 17.7983 42.0835 17.9218 42.5535 18.0713L42.6141 17.8807ZM41.5447 17.5135C41.306 17.4306 41.007 17.2944 40.6466 17.1036L40.553 17.2804C40.9179 17.4736 41.2269 17.6148 41.479 17.7024L41.5447 17.5135ZM40.6435 17.102C40.2763 16.9237 40.0117 16.7386 39.8423 16.5493L39.6933 16.6827C39.8866 16.8988 40.1766 17.0976 40.5561 17.282L40.6435 17.102ZM39.8405 16.5473C39.6693 16.366 39.515 16.1208 39.3796 15.8082L39.1961 15.8878C39.3379 16.2152 39.5037 16.482 39.6951 16.6847L39.8405 16.5473ZM39.3784 15.8057C39.2361 15.5008 39.1638 15.1529 39.1638 14.76H38.9638C38.9638 15.1778 39.0408 15.5552 39.1972 15.8903L39.3784 15.8057ZM39.1638 14.76C39.1638 13.8159 39.4943 13.0716 40.1523 12.5164L40.0233 12.3636C39.316 12.9604 38.9638 13.7628 38.9638 14.76H39.1638ZM40.1516 12.517C40.8144 11.9682 41.6231 11.692 42.5838 11.692V11.492C41.5819 11.492 40.7266 11.7812 40.024 12.363L40.1516 12.517ZM42.5838 11.692C43.4514 11.692 44.2047 11.9112 44.8477 12.3468L44.9599 12.1812C44.2802 11.7208 43.4869 11.492 42.5838 11.492V11.692ZM44.8471 12.3464C45.4824 12.7838 45.9613 13.3613 46.2846 14.081L46.467 13.999C46.129 13.2467 45.6266 12.6402 44.9605 12.1816L44.8471 12.3464ZM46.3258 13.9534L45.0778 14.6734L45.1778 14.8466L46.4258 14.1266L46.3258 13.9534ZM45.2201 14.7215C44.9743 14.1315 44.6313 13.6824 44.188 13.3813C43.7445 13.0801 43.208 12.932 42.5838 12.932V13.132C43.1756 13.132 43.6711 13.2719 44.0756 13.5467C44.4803 13.8216 44.8013 14.2365 45.0355 14.7985L45.2201 14.7215ZM42.5838 12.932C41.9594 12.932 41.4448 13.0856 41.0493 13.4019L41.1743 13.5581C41.5255 13.2771 41.9922 13.132 42.5838 13.132V12.932ZM41.0493 13.4019C40.6504 13.7211 40.4518 14.1561 40.4518 14.696H40.6518C40.6518 14.2119 40.8265 13.8363 41.1743 13.5581L41.0493 13.4019ZM40.4518 14.696C40.4518 15.214 40.6395 15.6195 41.021 15.8969L41.1386 15.7351C40.8161 15.5005 40.6518 15.1594 40.6518 14.696H40.4518ZM41.021 15.8969C41.3867 16.1628 42.0076 16.4334 42.8733 16.7112L42.9344 16.5208C42.072 16.244 41.477 15.9812 41.1386 15.7351L41.021 15.8969ZM42.8742 16.7115C43.1835 16.8075 43.4013 16.8766 43.5282 16.9189L43.5914 16.7291C43.4623 16.6861 43.2428 16.6165 42.9335 16.5205L42.8742 16.7115ZM43.5282 16.9189C43.6539 16.9608 43.8547 17.0347 44.1319 17.1413L44.2037 16.9547C43.9262 16.8479 43.7217 16.7726 43.5914 16.7291L43.5282 16.9189ZM44.1307 17.1408C44.3968 17.2473 44.591 17.3314 44.7151 17.3934L44.8045 17.2146C44.6727 17.1486 44.4722 17.062 44.205 16.9552L44.1307 17.1408ZM44.7151 17.3934C44.8423 17.457 45.0176 17.5474 45.2414 17.6646L45.3342 17.4874C45.11 17.37 44.9334 17.279 44.8045 17.2146L44.7151 17.3934ZM45.2396 17.6636C45.4491 17.7788 45.5999 17.8855 45.6971 17.9827L45.8385 17.8413C45.7224 17.7251 45.5532 17.6078 45.336 17.4884L45.2396 17.6636ZM45.6971 17.9827C45.8038 18.0894 45.9318 18.2174 46.0811 18.3667L46.2225 18.2253C46.0732 18.076 45.9452 17.948 45.8385 17.8413L45.6971 17.9827ZM46.0762 18.3615C46.2092 18.5149 46.3039 18.6655 46.363 18.8131L46.5487 18.7389C46.4797 18.5665 46.3717 18.3971 46.2274 18.2305L46.0762 18.3615ZM46.363 18.8131C46.4252 18.9686 46.4826 19.1459 46.5351 19.3454L46.7285 19.2946C46.6744 19.0887 46.6145 18.9034 46.5487 18.7389L46.363 18.8131ZM46.5338 19.3396C46.575 19.546 46.5958 19.7634 46.5958 19.992H46.7958C46.7958 19.7513 46.7739 19.5207 46.7299 19.3004L46.5338 19.3396ZM46.5958 19.992C46.5958 20.9455 46.2504 21.6946 45.5611 22.2501L45.6866 22.4059C46.4266 21.8094 46.7958 21.0012 46.7958 19.992H46.5958ZM45.5604 22.2507C44.8676 22.8194 43.9585 23.108 42.8238 23.108V23.308C43.9931 23.308 44.9507 23.01 45.6873 22.4053L45.5604 22.2507ZM50.3034 16.344V16.244H50.2034V16.344H50.3034ZM50.5434 21.512L50.6189 21.446L50.6141 21.4413L50.5434 21.512ZM51.2474 21.768L51.2508 21.668H51.2474V21.768ZM52.4314 21.752H52.5314V21.6474L52.4269 21.6521L52.4314 21.752ZM52.4314 23L52.4445 23.0991L52.5314 23.0877V23H52.4314ZM49.7594 22.696L49.8134 22.6118L49.8123 22.6111L49.7594 22.696ZM48.9114 16.344H49.0114V16.244H48.9114V16.344ZM47.3274 16.344H47.2274V16.444H47.3274V16.344ZM47.3274 15V14.9H47.2274V15H47.3274ZM48.9114 15V15.1H49.0114V15H48.9114ZM48.9114 13.176L48.8828 13.0802L48.8114 13.1015V13.176H48.9114ZM50.3034 12.76H50.4034V12.6257L50.2748 12.6642L50.3034 12.76ZM50.3034 15H50.2034V15.1H50.3034V15ZM52.4314 15H52.5314V14.9H52.4314V15ZM52.4314 16.344V16.444H52.5314V16.344H52.4314ZM50.2034 16.344V20.68H50.4034V16.344H50.2034ZM50.2034 20.68C50.2034 21.0829 50.2841 21.3941 50.4727 21.5827L50.6141 21.4413C50.4828 21.3099 50.4034 21.0664 50.4034 20.68H50.2034ZM50.4682 21.5779C50.6433 21.778 50.9109 21.868 51.2474 21.868V21.668C50.944 21.668 50.7422 21.5873 50.6187 21.4461L50.4682 21.5779ZM51.2441 21.8679C51.5676 21.8787 51.9651 21.8733 52.436 21.8519L52.4269 21.6521C51.9591 21.6734 51.5672 21.6786 51.2508 21.6681L51.2441 21.8679ZM52.3314 21.752V23H52.5314V21.752H52.3314ZM52.4184 22.9009C51.2087 23.06 50.348 22.9548 49.8134 22.6118L49.7054 22.7802C50.3015 23.1625 51.2222 23.26 52.4445 23.0991L52.4184 22.9009ZM49.8123 22.6111C49.289 22.2853 49.0114 21.6556 49.0114 20.68H48.8114C48.8114 21.6884 49.0992 22.4027 49.7066 22.7809L49.8123 22.6111ZM49.0114 20.68V16.344H48.8114V20.68H49.0114ZM48.9114 16.244H47.3274V16.444H48.9114V16.244ZM47.4274 16.344V15H47.2274V16.344H47.4274ZM47.3274 15.1H48.9114V14.9H47.3274V15.1ZM49.0114 15V13.176H48.8114V15H49.0114ZM48.9401 13.2718L50.3321 12.8558L50.2748 12.6642L48.8828 13.0802L48.9401 13.2718ZM50.2034 12.76V15H50.4034V12.76H50.2034ZM50.3034 15.1H52.4314V14.9H50.3034V15.1ZM52.3314 15V16.344H52.5314V15H52.3314ZM52.4314 16.244H50.3034V16.444H52.4314V16.244ZM61.6892 15H61.7892V14.9H61.6892V15ZM61.6892 23V23.1H61.7892V23H61.6892ZM60.2972 23H60.1972V23.1H60.2972V23ZM60.2972 21.624H60.3972V21.2895L60.2136 21.5691L60.2972 21.624ZM54.4092 21.976L54.4813 21.9067L54.4808 21.9062L54.4092 21.976ZM54.4092 16.008L54.3375 15.9382L54.3371 15.9387L54.4092 16.008ZM60.2972 16.376L60.2136 16.4309L60.3972 16.7105V16.376H60.2972ZM60.2972 15V14.9H60.1972V15H60.2972ZM59.4812 21.032L59.4105 20.9613L59.4098 20.962L59.4812 21.032ZM59.4812 16.952L59.5526 16.882L59.5519 16.8813L59.4812 16.952ZM55.4332 16.952L55.3625 16.8813L55.3618 16.882L55.4332 16.952ZM55.4332 21.032L55.5046 20.962L55.5039 20.9613L55.4332 21.032ZM61.5892 15V23H61.7892V15H61.5892ZM61.6892 22.9H60.2972V23.1H61.6892V22.9ZM60.3972 23V21.624H60.1972V23H60.3972ZM60.2136 21.5691C59.5398 22.5954 58.5641 23.108 57.2732 23.108V23.308C58.6276 23.308 59.6679 22.7646 60.3808 21.6789L60.2136 21.5691ZM57.2732 23.108C56.1809 23.108 55.2521 22.7088 54.4813 21.9067L54.3371 22.0453C55.1449 22.8859 56.1255 23.308 57.2732 23.308V23.108ZM54.4808 21.9062C53.7104 21.115 53.3252 20.1483 53.3252 19H53.1252C53.1252 20.1983 53.5293 21.2157 54.3375 22.0458L54.4808 21.9062ZM53.3252 19C53.3252 17.8516 53.7104 16.8794 54.4813 16.0773L54.3371 15.9387C53.5293 16.7793 53.1252 17.8017 53.1252 19H53.3252ZM54.4808 16.0778C55.2516 15.2862 56.1805 14.892 57.2732 14.892V14.692C56.1259 14.692 55.1455 15.1085 54.3375 15.9382L54.4808 16.0778ZM57.2732 14.892C58.5641 14.892 59.5398 15.4046 60.2136 16.4309L60.3808 16.3211C59.6679 15.2354 58.6276 14.692 57.2732 14.692V14.892ZM60.3972 16.376V15H60.1972V16.376H60.3972ZM60.2972 15.1H61.6892V14.9H60.2972V15.1ZM57.4492 21.964C58.2854 21.964 58.9889 21.6768 59.5526 21.102L59.4098 20.962C58.8855 21.4966 58.2343 21.764 57.4492 21.764V21.964ZM59.5519 21.1027C60.1157 20.5389 60.3972 19.8356 60.3972 19H60.1972C60.1972 19.7857 59.9346 20.4371 59.4105 20.9613L59.5519 21.1027ZM60.3972 19C60.3972 18.1644 60.1158 17.4562 59.5526 16.882L59.4098 17.022C59.9346 17.5571 60.1972 18.2143 60.1972 19H60.3972ZM59.5519 16.8813C58.9881 16.3174 58.2848 16.036 57.4492 16.036V16.236C58.2349 16.236 58.8863 16.4986 59.4105 17.0227L59.5519 16.8813ZM57.4492 16.036C56.6238 16.036 55.926 16.3177 55.3625 16.8813L55.5039 17.0227C56.0283 16.4983 56.6745 16.236 57.4492 16.236V16.036ZM55.3618 16.882C54.7986 17.4562 54.5172 18.1644 54.5172 19H54.7172C54.7172 18.2143 54.9798 17.5571 55.5046 17.022L55.3618 16.882ZM54.5172 19C54.5172 19.8356 54.7986 20.5389 55.3625 21.1027L55.5039 20.9613C54.9797 20.4371 54.7172 19.7857 54.7172 19H54.5172ZM55.3618 21.102C55.9252 21.6765 56.6232 21.964 57.4492 21.964V21.764C56.6751 21.764 56.0292 21.4968 55.5046 20.962L55.3618 21.102ZM65.1902 16.344H65.0902L65.281 16.386L65.1902 16.344ZM67.6862 14.856H67.7862V14.756H67.6862V14.856ZM67.6862 16.312L67.6815 16.4119L67.7862 16.4168V16.312H67.6862ZM65.9262 16.856L65.9889 16.9339L65.9262 16.856ZM65.1902 23V23.1H65.2902V23H65.1902ZM63.7982 23H63.6982V23.1H63.7982V23ZM63.7982 15V14.9H63.6982V15H63.7982ZM65.1902 15H65.2902V14.9H65.1902V15ZM65.281 16.386C65.503 15.9058 65.8129 15.5503 66.2094 15.3139C66.6065 15.0771 67.0972 14.956 67.6862 14.956V14.756C67.0699 14.756 66.5418 14.8829 66.107 15.1421C65.6715 15.4017 65.3361 15.7902 65.0994 16.302L65.281 16.386ZM67.5862 14.856V16.312H67.7862V14.856H67.5862ZM67.6909 16.2121C66.9861 16.1791 66.3749 16.3668 65.8635 16.7781L65.9889 16.9339C66.4588 16.5559 67.021 16.3809 67.6815 16.4119L67.6909 16.2121ZM65.8635 16.7781C65.341 17.1983 65.0902 17.8675 65.0902 18.76H65.2902C65.2902 17.9032 65.53 17.303 65.9889 16.9339L65.8635 16.7781ZM65.0902 18.76V23H65.2902V18.76H65.0902ZM65.1902 22.9H63.7982V23.1H65.1902V22.9ZM63.8982 23V15H63.6982V23H63.8982ZM63.7982 15.1H65.1902V14.9H63.7982V15.1ZM65.0902 15V16.344H65.2902V15H65.0902Z" fill="#231044"/>
<path d="M105.229 16.392C106.082 16.552 106.781 16.92 107.325 17.496C107.869 18.072 108.141 18.8027 108.141 19.688C108.141 20.776 107.767 21.6347 107.021 22.264C106.274 22.8933 105.367 23.208 104.301 23.208C103.447 23.208 102.69 23.0107 102.029 22.616C101.367 22.232 100.898 21.672 100.621 20.936L101.869 20.2C102.199 21.2347 103.01 21.752 104.301 21.752C104.994 21.752 105.559 21.5707 105.997 21.208C106.434 20.8453 106.653 20.3387 106.653 19.688C106.653 19.0373 106.434 18.5253 105.997 18.152C105.559 17.7893 104.994 17.608 104.301 17.608H103.917L103.325 16.696L105.917 13.192H100.941V11.8H107.661V13.112L105.229 16.392ZM110.839 25.24H109.639L110.279 21.352H111.879L110.839 25.24ZM120.144 15.352C120.144 16.216 119.915 16.968 119.456 17.608H119.472L115.856 23H114.176L116.832 19.08C116.598 19.1013 116.416 19.112 116.288 19.112C115.158 19.112 114.235 18.76 113.52 18.056C112.795 17.3627 112.432 16.4613 112.432 15.352C112.432 14.2427 112.795 13.336 113.52 12.632C114.235 11.9387 115.158 11.592 116.288 11.592C117.419 11.592 118.347 11.9387 119.072 12.632C119.787 13.336 120.144 14.2427 120.144 15.352ZM113.904 15.352C113.904 16.056 114.128 16.6213 114.576 17.048C115.014 17.4853 115.584 17.704 116.288 17.704C116.992 17.704 117.568 17.4853 118.016 17.048C118.454 16.6213 118.672 16.056 118.672 15.352C118.672 14.648 118.454 14.0827 118.016 13.656C117.579 13.2293 117.003 13.016 116.288 13.016C115.584 13.016 115.014 13.2293 114.576 13.656C114.128 14.0827 113.904 14.648 113.904 15.352ZM129.074 15.352C129.074 16.216 128.844 16.968 128.386 17.608H128.402L124.786 23H123.106L125.762 19.08C125.527 19.1013 125.346 19.112 125.218 19.112C124.087 19.112 123.164 18.76 122.45 18.056C121.724 17.3627 121.362 16.4613 121.362 15.352C121.362 14.2427 121.724 13.336 122.45 12.632C123.164 11.9387 124.087 11.592 125.218 11.592C126.348 11.592 127.276 11.9387 128.002 12.632C128.716 13.336 129.074 14.2427 129.074 15.352ZM122.834 15.352C122.834 16.056 123.058 16.6213 123.506 17.048C123.943 17.4853 124.514 17.704 125.218 17.704C125.922 17.704 126.498 17.4853 126.946 17.048C127.383 16.6213 127.602 16.056 127.602 15.352C127.602 14.648 127.383 14.0827 126.946 13.656C126.508 13.2293 125.932 13.016 125.218 13.016C124.514 13.016 123.943 13.2293 123.506 13.656C123.058 14.0827 122.834 14.648 122.834 15.352ZM133.522 15.672C134.642 15.672 135.565 16.0187 136.29 16.712C137.015 17.416 137.378 18.3227 137.378 19.432C137.378 20.5413 137.015 21.448 136.29 22.152C135.565 22.856 134.642 23.208 133.522 23.208C132.391 23.208 131.469 22.856 130.754 22.152C130.029 21.448 129.666 20.5413 129.666 19.432C129.666 18.568 129.89 17.8213 130.338 17.192L133.938 11.8H135.634L132.994 15.704C133.229 15.6827 133.405 15.672 133.522 15.672ZM133.522 21.784C134.226 21.784 134.802 21.5653 135.25 21.128C135.687 20.7013 135.906 20.136 135.906 19.432C135.906 18.728 135.687 18.1627 135.25 17.736C134.802 17.3093 134.226 17.096 133.522 17.096C132.807 17.096 132.231 17.3093 131.794 17.736C131.357 18.1627 131.138 18.728 131.138 19.432C131.138 20.136 131.362 20.7013 131.81 21.128C132.247 21.5653 132.818 21.784 133.522 21.784Z" fill="#231044"/>
<path d="M105.229 16.392L105.148 16.3324L105.053 16.4608L105.21 16.4903L105.229 16.392ZM107.325 17.496L107.252 17.5647L107.325 17.496ZM107.021 22.264L107.085 22.3405L107.021 22.264ZM102.029 22.616L102.08 22.5301L102.079 22.5295L102.029 22.616ZM100.621 20.936L100.57 20.8499L100.497 20.8926L100.527 20.9713L100.621 20.936ZM101.869 20.2L101.964 20.1696L101.926 20.0502L101.818 20.1139L101.869 20.2ZM105.997 21.208L106.06 21.285L105.997 21.208ZM105.997 18.152L106.061 18.0759L106.06 18.075L105.997 18.152ZM103.917 17.608L103.833 17.6624L103.862 17.708H103.917V17.608ZM103.325 16.696L103.244 16.6365L103.203 16.6923L103.241 16.7504L103.325 16.696ZM105.917 13.192L105.997 13.2515L106.115 13.092H105.917V13.192ZM100.941 13.192H100.841V13.292H100.941V13.192ZM100.941 11.8V11.7H100.841V11.8H100.941ZM107.661 11.8H107.761V11.7H107.661V11.8ZM107.661 13.112L107.741 13.1716L107.761 13.145V13.112H107.661ZM105.21 16.4903C106.045 16.6468 106.724 17.0055 107.252 17.5647L107.397 17.4273C106.837 16.8345 106.119 16.4572 105.247 16.2937L105.21 16.4903ZM107.252 17.5647C107.776 18.1199 108.041 18.8249 108.041 19.688H108.241C108.241 18.7804 107.961 18.0241 107.397 17.4273L107.252 17.5647ZM108.041 19.688C108.041 20.7503 107.677 21.5795 106.956 22.1875L107.085 22.3405C107.857 21.6898 108.241 20.8017 108.241 19.688H108.041ZM106.956 22.1875C106.229 22.8002 105.346 23.108 104.301 23.108V23.308C105.388 23.308 106.319 22.9864 107.085 22.3405L106.956 22.1875ZM104.301 23.108C103.463 23.108 102.724 22.9146 102.08 22.5301L101.977 22.7019C102.656 23.1068 103.431 23.308 104.301 23.308V23.108ZM102.079 22.5295C101.438 22.1574 100.984 21.6158 100.714 20.9007L100.527 20.9713C100.812 21.7282 101.296 22.3066 101.978 22.7025L102.079 22.5295ZM100.671 21.0221L101.919 20.2861L101.818 20.1139L100.57 20.8499L100.671 21.0221ZM101.773 20.2304C101.945 20.767 102.243 21.1754 102.671 21.4483C103.097 21.7202 103.642 21.852 104.301 21.852V21.652C103.668 21.652 103.163 21.5252 102.778 21.2797C102.395 21.0352 102.123 20.6677 101.964 20.1696L101.773 20.2304ZM104.301 21.852C105.012 21.852 105.601 21.6656 106.06 21.285L105.933 21.131C105.517 21.4757 104.976 21.652 104.301 21.652V21.852ZM106.06 21.285C106.524 20.9004 106.753 20.3636 106.753 19.688H106.553C106.553 20.3137 106.344 20.7902 105.933 21.131L106.06 21.285ZM106.753 19.688C106.753 19.0124 106.524 18.4709 106.061 18.0759L105.932 18.2281C106.344 18.5798 106.553 19.0623 106.553 19.688H106.753ZM106.06 18.075C105.601 17.6944 105.012 17.508 104.301 17.508V17.708C104.976 17.708 105.517 17.8843 105.933 18.229L106.06 18.075ZM104.301 17.508H103.917V17.708H104.301V17.508ZM104 17.5536L103.408 16.6416L103.241 16.7504L103.833 17.6624L104 17.5536ZM103.405 16.7555L105.997 13.2515L105.836 13.1325L103.244 16.6365L103.405 16.7555ZM105.917 13.092H100.941V13.292H105.917V13.092ZM101.041 13.192V11.8H100.841V13.192H101.041ZM100.941 11.9H107.661V11.7H100.941V11.9ZM107.561 11.8V13.112H107.761V11.8H107.561ZM107.58 13.0524L105.148 16.3324L105.309 16.4516L107.741 13.1716L107.58 13.0524ZM110.839 25.24V25.34H110.915L110.935 25.2658L110.839 25.24ZM109.639 25.24L109.54 25.2238L109.521 25.34H109.639V25.24ZM110.279 21.352V21.252H110.194L110.18 21.3358L110.279 21.352ZM111.878 21.352L111.975 21.3778L112.009 21.252H111.878V21.352ZM110.839 25.14H109.639V25.34H110.839V25.14ZM109.737 25.2562L110.377 21.3682L110.18 21.3358L109.54 25.2238L109.737 25.2562ZM110.279 21.452H111.878V21.252H110.279V21.452ZM111.782 21.3262L110.742 25.2142L110.935 25.2658L111.975 21.3778L111.782 21.3262ZM119.456 17.608L119.375 17.5497L119.262 17.708H119.456V17.608ZM119.472 17.608L119.555 17.6637L119.66 17.508H119.472V17.608ZM115.856 23V23.1H115.91L115.939 23.0557L115.856 23ZM114.176 23L114.094 22.9439L113.988 23.1H114.176V23ZM116.832 19.08L116.915 19.1361L117.034 18.9613L116.823 18.9804L116.832 19.08ZM113.52 18.056L113.591 17.9848L113.589 17.9837L113.52 18.056ZM113.52 12.632L113.451 12.5602L113.451 12.5602L113.52 12.632ZM119.072 12.632L119.143 12.5608L119.141 12.5597L119.072 12.632ZM114.576 17.048L114.647 16.9773L114.645 16.9756L114.576 17.048ZM118.016 17.048L117.947 16.9764L117.947 16.9764L118.016 17.048ZM118.016 13.656L118.086 13.5844L118.016 13.656ZM114.576 13.656L114.645 13.7284L114.646 13.7276L114.576 13.656ZM120.044 15.352C120.044 16.1972 119.82 16.9284 119.375 17.5497L119.538 17.6663C120.01 17.0076 120.244 16.2348 120.244 15.352H120.044ZM119.456 17.708H119.472V17.508H119.456V17.708ZM119.389 17.5523L115.773 22.9443L115.939 23.0557L119.555 17.6637L119.389 17.5523ZM115.856 22.9H114.176V23.1H115.856V22.9ZM114.259 23.0561L116.915 19.1361L116.75 19.0239L114.094 22.9439L114.259 23.0561ZM116.823 18.9804C116.59 19.0017 116.412 19.012 116.288 19.012V19.212C116.421 19.212 116.606 19.201 116.841 19.1796L116.823 18.9804ZM116.288 19.012C115.18 19.012 114.284 18.6679 113.591 17.9848L113.45 18.1272C114.186 18.8521 115.135 19.212 116.288 19.212V19.012ZM113.589 17.9837C112.886 17.3113 112.532 16.4372 112.532 15.352H112.332C112.332 16.4855 112.704 17.414 113.451 18.1283L113.589 17.9837ZM112.532 15.352C112.532 14.2668 112.886 13.387 113.59 12.7038L113.451 12.5602C112.704 13.285 112.332 14.2185 112.332 15.352H112.532ZM113.59 12.7038C114.283 12.031 115.18 11.692 116.288 11.692V11.492C115.136 11.492 114.187 11.8463 113.451 12.5602L113.59 12.7038ZM116.288 11.692C117.397 11.692 118.299 12.031 119.003 12.7043L119.141 12.5597C118.395 11.8463 117.441 11.492 116.288 11.492V11.692ZM119.002 12.7032C119.696 13.3864 120.044 14.2663 120.044 15.352H120.244C120.244 14.219 119.878 13.2856 119.143 12.5608L119.002 12.7032ZM113.804 15.352C113.804 16.0792 114.037 16.6722 114.507 17.1204L114.645 16.9756C114.22 16.5705 114.004 16.0328 114.004 15.352H113.804ZM114.506 17.1187C114.964 17.5774 115.562 17.804 116.288 17.804V17.604C115.607 17.604 115.063 17.3932 114.647 16.9773L114.506 17.1187ZM116.288 17.804C117.015 17.804 117.617 17.5775 118.086 17.1196L117.947 16.9764C117.52 17.3932 116.97 17.604 116.288 17.604V17.804ZM118.086 17.1196C118.546 16.6712 118.772 16.0785 118.772 15.352H118.572C118.572 16.0335 118.362 16.5715 117.947 16.9764L118.086 17.1196ZM118.772 15.352C118.772 14.6255 118.546 14.0328 118.086 13.5844L117.947 13.7276C118.362 14.1325 118.572 14.6705 118.572 15.352H118.772ZM118.086 13.5844C117.627 13.1365 117.024 12.916 116.288 12.916V13.116C116.982 13.116 117.531 13.3222 117.947 13.7276L118.086 13.5844ZM116.288 12.916C115.563 12.916 114.965 13.1367 114.507 13.5844L114.646 13.7276C115.062 13.3219 115.606 13.116 116.288 13.116V12.916ZM114.507 13.5836C114.037 14.0318 113.804 14.6248 113.804 15.352H114.004C114.004 14.6712 114.22 14.1335 114.645 13.7284L114.507 13.5836ZM128.386 17.608L128.304 17.5497L128.191 17.708H128.386V17.608ZM128.402 17.608L128.485 17.6637L128.589 17.508H128.402V17.608ZM124.786 23V23.1H124.839L124.869 23.0557L124.786 23ZM123.106 23L123.023 22.9439L122.917 23.1H123.106V23ZM125.762 19.08L125.845 19.1361L125.963 18.9613L125.753 18.9804L125.762 19.08ZM122.45 18.056L122.52 17.9848L122.519 17.9837L122.45 18.056ZM122.45 12.632L122.38 12.5602L122.38 12.5602L122.45 12.632ZM128.002 12.632L128.072 12.5608L128.071 12.5597L128.002 12.632ZM123.506 17.048L123.576 16.9773L123.575 16.9756L123.506 17.048ZM126.946 17.048L126.876 16.9764L126.876 16.9764L126.946 17.048ZM126.946 13.656L127.016 13.5844L126.946 13.656ZM123.506 13.656L123.575 13.7284L123.576 13.7276L123.506 13.656ZM128.974 15.352C128.974 16.1972 128.75 16.9284 128.304 17.5497L128.467 17.6663C128.939 17.0076 129.174 16.2348 129.174 15.352H128.974ZM128.386 17.708H128.402V17.508H128.386V17.708ZM128.319 17.5523L124.703 22.9443L124.869 23.0557L128.485 17.6637L128.319 17.5523ZM124.786 22.9H123.106V23.1H124.786V22.9ZM123.189 23.0561L125.845 19.1361L125.679 19.0239L123.023 22.9439L123.189 23.0561ZM125.753 18.9804C125.519 19.0017 125.341 19.012 125.218 19.012V19.212C125.35 19.212 125.535 19.201 125.771 19.1796L125.753 18.9804ZM125.218 19.012C124.11 19.012 123.213 18.6679 122.52 17.9848L122.38 18.1272C123.115 18.8521 124.064 19.212 125.218 19.212V19.012ZM122.519 17.9837C121.815 17.3113 121.462 16.4372 121.462 15.352H121.262C121.262 16.4855 121.633 17.414 122.381 18.1283L122.519 17.9837ZM121.462 15.352C121.462 14.2668 121.815 13.387 122.519 12.7038L122.38 12.5602C121.633 13.285 121.262 14.2185 121.262 15.352H121.462ZM122.519 12.7038C123.213 12.031 124.109 11.692 125.218 11.692V11.492C124.065 11.492 123.116 11.8463 122.38 12.5602L122.519 12.7038ZM125.218 11.692C126.326 11.692 127.228 12.031 127.933 12.7043L128.071 12.5597C127.324 11.8463 126.371 11.492 125.218 11.492V11.692ZM127.932 12.7032C128.625 13.3864 128.974 14.2663 128.974 15.352H129.174C129.174 14.219 128.808 13.2856 128.072 12.5608L127.932 12.7032ZM122.734 15.352C122.734 16.0792 122.966 16.6722 123.437 17.1204L123.575 16.9756C123.149 16.5705 122.934 16.0328 122.934 15.352H122.734ZM123.435 17.1187C123.894 17.5774 124.491 17.804 125.218 17.804V17.604C124.536 17.604 123.992 17.3932 123.576 16.9773L123.435 17.1187ZM125.218 17.804C125.944 17.804 126.547 17.5775 127.016 17.1196L126.876 16.9764C126.449 17.3932 125.899 17.604 125.218 17.604V17.804ZM127.016 17.1196C127.475 16.6712 127.702 16.0785 127.702 15.352H127.502C127.502 16.0335 127.291 16.5715 126.876 16.9764L127.016 17.1196ZM127.702 15.352C127.702 14.6255 127.475 14.0328 127.016 13.5844L126.876 13.7276C127.291 14.1325 127.502 14.6705 127.502 15.352H127.702ZM127.016 13.5844C126.556 13.1365 125.954 12.916 125.218 12.916V13.116C125.911 13.116 126.46 13.3222 126.876 13.7276L127.016 13.5844ZM125.218 12.916C124.492 12.916 123.895 13.1367 123.436 13.5844L123.576 13.7276C123.991 13.3219 124.536 13.116 125.218 13.116V12.916ZM123.437 13.5836C122.966 14.0318 122.734 14.6248 122.734 15.352H122.934C122.934 14.6712 123.149 14.1335 123.575 13.7284L123.437 13.5836ZM136.29 16.712L136.36 16.6402L136.359 16.6397L136.29 16.712ZM136.29 22.152L136.22 22.0802L136.29 22.152ZM130.754 22.152L130.824 22.0808L130.824 22.0802L130.754 22.152ZM130.338 17.192L130.42 17.25L130.421 17.2475L130.338 17.192ZM133.938 11.8V11.7H133.885L133.855 11.7445L133.938 11.8ZM135.634 11.8L135.717 11.856L135.822 11.7H135.634V11.8ZM132.994 15.704L132.911 15.648L132.793 15.8227L133.003 15.8036L132.994 15.704ZM135.25 21.128L135.18 21.0564L135.18 21.0564L135.25 21.128ZM135.25 17.736L135.32 17.6644L135.319 17.6636L135.25 17.736ZM131.794 17.736L131.724 17.6644L131.794 17.736ZM131.81 21.128L131.881 21.0573L131.879 21.0556L131.81 21.128ZM133.522 15.772C134.62 15.772 135.517 16.1109 136.221 16.7843L136.359 16.6397C135.613 15.9265 134.665 15.572 133.522 15.572V15.772ZM136.22 16.7838C136.924 17.467 137.278 18.3468 137.278 19.432H137.478C137.478 18.2985 137.107 17.365 136.36 16.6402L136.22 16.7838ZM137.278 19.432C137.278 20.5172 136.924 21.397 136.22 22.0802L136.36 22.2238C137.107 21.499 137.478 20.5655 137.478 19.432H137.278ZM136.22 22.0802C135.516 22.7641 134.619 23.108 133.522 23.108V23.308C134.665 23.308 135.614 22.9479 136.36 22.2238L136.22 22.0802ZM133.522 23.108C132.414 23.108 131.518 22.7639 130.824 22.0808L130.684 22.2232C131.42 22.9481 132.369 23.308 133.522 23.308V23.108ZM130.824 22.0802C130.12 21.397 129.766 20.5172 129.766 19.432H129.566C129.566 20.5655 129.938 21.499 130.684 22.2238L130.824 22.0802ZM129.766 19.432C129.766 18.5862 129.985 17.8604 130.42 17.25L130.257 17.134C129.795 17.7823 129.566 18.5498 129.566 19.432H129.766ZM130.421 17.2475L134.021 11.8555L133.855 11.7445L130.255 17.1365L130.421 17.2475ZM133.938 11.9H135.634V11.7H133.938V11.9ZM135.551 11.744L132.911 15.648L133.077 15.76L135.717 11.856L135.551 11.744ZM133.003 15.8036C133.237 15.7823 133.41 15.772 133.522 15.772V15.572C133.4 15.572 133.22 15.583 132.985 15.6044L133.003 15.8036ZM133.522 21.884C134.249 21.884 134.851 21.6575 135.32 21.1996L135.18 21.0564C134.753 21.4732 134.204 21.684 133.522 21.684V21.884ZM135.32 21.1996C135.78 20.7512 136.006 20.1585 136.006 19.432H135.806C135.806 20.1135 135.595 20.6515 135.18 21.0564L135.32 21.1996ZM136.006 19.432C136.006 18.7055 135.78 18.1128 135.32 17.6644L135.18 17.8076C135.595 18.2125 135.806 18.7505 135.806 19.432H136.006ZM135.319 17.6636C134.85 17.2167 134.248 16.996 133.522 16.996V17.196C134.204 17.196 134.754 17.4019 135.181 17.8084L135.319 17.6636ZM133.522 16.996C132.786 16.996 132.183 17.2165 131.724 17.6644L131.864 17.8076C132.279 17.4022 132.829 17.196 133.522 17.196V16.996ZM131.724 17.6644C131.265 18.1128 131.038 18.7055 131.038 19.432H131.238C131.238 18.7505 131.449 18.2125 131.864 17.8076L131.724 17.6644ZM131.038 19.432C131.038 20.1592 131.271 20.7522 131.741 21.2004L131.879 21.0556C131.454 20.6505 131.238 20.1128 131.238 19.432H131.038ZM131.739 21.1987C132.198 21.6574 132.796 21.884 133.522 21.884V21.684C132.841 21.684 132.297 21.4732 131.881 21.0573L131.739 21.1987Z" fill="#231044"/>
<defs>
<linearGradient id="paint0_linear" x1="40" y1="0" x2="40" y2="35" gradientUnits="userSpaceOnUse">
<stop stop-color="#231044" stop-opacity="0.31"/>
<stop offset="1" stop-color="#231044"/>
</linearGradient>
<clipPath id="clip0">
<rect width="20" height="19.5028" fill="white" transform="translate(10 8)"/>
</clipPath>
</defs>
</svg>
