<svg width="294" height="258" viewBox="0 0 294 258" fill="none" xmlns="http://www.w3.org/2000/svg">
<circle cx="3" cy="75" r="2.5" transform="rotate(90 3 75)" fill="#EF476F" stroke="#EF476F"/>
<circle cx="3" cy="111" r="2.5" transform="rotate(90 3 111)" fill="#EF476F" stroke="#EF476F"/>
<circle cx="3" cy="39" r="2.5" transform="rotate(90 3 39)" fill="#EF476F" stroke="#EF476F"/>
<circle cx="111" cy="75" r="2.5" transform="rotate(90 111 75)" fill="#EF476F" stroke="#EF476F"/>
<circle cx="111" cy="111" r="2.5" transform="rotate(90 111 111)" fill="#EF476F" stroke="#EF476F"/>
<circle cx="75" cy="111" r="2.5" transform="rotate(90 75 111)" fill="#EF476F" stroke="#EF476F"/>
<circle cx="75" cy="75" r="2.5" transform="rotate(90 75 75)" fill="#EF476F" stroke="#EF476F"/>
<circle cx="39" cy="75" r="2.5" transform="rotate(90 39 75)" fill="#EF476F" stroke="#EF476F"/>
<circle cx="39" cy="111" r="2.5" transform="rotate(90 39 111)" fill="#EF476F" stroke="#EF476F"/>
<circle cx="111" cy="3" r="2.5" transform="rotate(90 111 3)" fill="#EF476F" stroke="#EF476F"/>
<circle cx="111" cy="39" r="2.5" transform="rotate(90 111 39)" fill="#EF476F" stroke="#EF476F"/>
<circle cx="75" cy="39" r="2.5" transform="rotate(90 75 39)" fill="#EF476F" stroke="#EF476F"/>
<circle cx="75" cy="3" r="2.5" transform="rotate(90 75 3)" fill="#EF476F" stroke="#EF476F"/>
<circle cx="39" cy="3" r="2.5" transform="rotate(90 39 3)" fill="#EF476F" stroke="#EF476F"/>
<circle cx="39" cy="39" r="2.5" transform="rotate(90 39 39)" fill="#EF476F" stroke="#EF476F"/>
<circle cx="111" cy="219" r="2.5" transform="rotate(90 111 219)" fill="#EF476F" stroke="#EF476F"/>
<circle cx="111" cy="147" r="2.5" transform="rotate(90 111 147)" fill="#EF476F" stroke="#EF476F"/>
<circle cx="111" cy="183" r="2.5" transform="rotate(90 111 183)" fill="#EF476F" stroke="#EF476F"/>
<circle cx="75" cy="183" r="2.5" transform="rotate(90 75 183)" fill="#EF476F" stroke="#EF476F"/>
<circle cx="75" cy="147" r="2.5" transform="rotate(90 75 147)" fill="#EF476F" stroke="#EF476F"/>
<circle cx="39" cy="147" r="2.5" transform="rotate(90 39 147)" fill="#EF476F" stroke="#EF476F"/>
<circle cx="219" cy="75" r="2.5" transform="rotate(90 219 75)" fill="#EF476F" stroke="#EF476F"/>
<circle cx="219" cy="111" r="2.5" transform="rotate(90 219 111)" fill="#EF476F" stroke="#EF476F"/>
<circle cx="183" cy="111" r="2.5" transform="rotate(90 183 111)" fill="#EF476F" stroke="#EF476F"/>
<circle cx="183" cy="75" r="2.5" transform="rotate(90 183 75)" fill="#EF476F" stroke="#EF476F"/>
<circle cx="147" cy="75" r="2.5" transform="rotate(90 147 75)" fill="#EF476F" stroke="#EF476F"/>
<circle cx="147" cy="111" r="2.5" transform="rotate(90 147 111)" fill="#EF476F" stroke="#EF476F"/>
<circle cx="219" cy="3" r="2.5" transform="rotate(90 219 3)" fill="#EF476F" stroke="#EF476F"/>
<circle cx="219" cy="39" r="2.5" transform="rotate(90 219 39)" fill="#EF476F" stroke="#EF476F"/>
<circle cx="183" cy="3" r="2.5" transform="rotate(90 183 3)" fill="#EF476F" stroke="#EF476F"/>
<circle cx="147" cy="39" r="2.5" transform="rotate(90 147 39)" fill="#EF476F" stroke="#EF476F"/>
<circle cx="183" cy="39" r="2.5" transform="rotate(90 183 39)" fill="#EF476F" stroke="#EF476F"/>
<circle cx="183" cy="219" r="2.5" transform="rotate(90 183 219)" fill="#EF476F" stroke="#EF476F"/>
<circle cx="147" cy="219" r="2.5" transform="rotate(90 147 219)" fill="#EF476F" stroke="#EF476F"/>
<circle cx="147" cy="255" r="2.5" transform="rotate(90 147 255)" fill="#EF476F" stroke="#EF476F"/>
<circle cx="219" cy="147" r="2.5" transform="rotate(90 219 147)" fill="#EF476F" stroke="#EF476F"/>
<circle cx="219" cy="183" r="2.5" transform="rotate(90 219 183)" fill="#EF476F" stroke="#EF476F"/>
<circle cx="183" cy="183" r="2.5" transform="rotate(90 183 183)" fill="#EF476F" stroke="#EF476F"/>
<circle cx="183" cy="147" r="2.5" transform="rotate(90 183 147)" fill="#EF476F" stroke="#EF476F"/>
<circle cx="147" cy="147" r="2.5" transform="rotate(90 147 147)" fill="#EF476F" stroke="#EF476F"/>
<circle cx="147" cy="183" r="2.5" transform="rotate(90 147 183)" fill="#EF476F" stroke="#EF476F"/>
<circle cx="291" cy="111" r="2.5" transform="rotate(90 291 111)" fill="#EF476F" stroke="#EF476F"/>
<circle cx="291" cy="75" r="2.5" transform="rotate(90 291 75)" fill="#EF476F" stroke="#EF476F"/>
<circle cx="255" cy="75" r="2.5" transform="rotate(90 255 75)" fill="#EF476F" stroke="#EF476F"/>
<circle cx="255" cy="111" r="2.5" transform="rotate(90 255 111)" fill="#EF476F" stroke="#EF476F"/>
<circle cx="291" cy="39" r="2.5" transform="rotate(90 291 39)" fill="#EF476F" stroke="#EF476F"/>
<circle cx="255" cy="3" r="2.5" transform="rotate(90 255 3)" fill="#EF476F" stroke="#EF476F"/>
<circle cx="255" cy="39" r="2.5" transform="rotate(90 255 39)" fill="#EF476F" stroke="#EF476F"/>
<circle cx="255" cy="147" r="2.5" transform="rotate(90 255 147)" fill="#EF476F" stroke="#EF476F"/>
</svg>
