<svg width="32" height="31" viewBox="0 0 32 31" fill="none" xmlns="http://www.w3.org/2000/svg">
<path fill-rule="evenodd" clip-rule="evenodd" d="M16 0C7.16022 0 0 7.11332 0 15.8952C0 22.9207 4.58686 28.8728 10.9417 30.9805C11.7373 31.1269 12.0319 30.639 12.0319 30.2096C12.0319 29.8291 12.0221 28.8338 12.0123 27.5068C7.56292 28.463 6.62001 25.3796 6.62001 25.3796C5.89319 23.5452 4.84223 23.0475 4.84223 23.0475C3.38858 22.062 4.95028 22.0815 4.95028 22.0815C6.55126 22.1986 7.40577 23.7208 7.40577 23.7208C8.82996 26.1505 11.1479 25.4479 12.0614 25.0381C12.2087 24.0135 12.6212 23.311 13.0731 22.9109C9.52732 22.5206 5.79497 21.1545 5.79497 15.0658C5.79497 13.3289 6.41375 11.9141 7.44506 10.8017C7.27808 10.3919 6.72805 8.78187 7.59239 6.59616C7.59239 6.59616 8.938 6.16682 11.9926 8.22569C13.2695 7.87441 14.6347 7.69877 16 7.68901C17.3554 7.69877 18.7305 7.87441 20.0074 8.22569C23.062 6.16682 24.4076 6.59616 24.4076 6.59616C25.2818 8.78187 24.7317 10.4016 24.5648 10.8017C25.5862 11.9141 26.205 13.3289 26.205 15.0658C26.205 21.1741 22.4629 22.5109 18.8975 22.9109C19.4672 23.3988 19.9877 24.3746 19.9877 25.8577C19.9877 27.9849 19.9681 29.6925 19.9681 30.2194C19.9681 30.6487 20.2529 31.1366 21.0681 30.9805C27.423 28.8728 32 22.9207 32 15.9049C32 7.11331 24.8398 0 16 0Z" fill="white"/>
</svg>
