<svg width="37" height="29" viewBox="0 0 37 29" fill="none" xmlns="http://www.w3.org/2000/svg">
<path d="M11.6358 29C25.5981 29 33.2349 17.8419 33.2349 8.16572C33.2349 7.84879 33.2349 7.5333 33.2127 7.21923C34.6986 6.18279 35.9803 4.89939 37 3.42897C35.6147 4.02142 34.1451 4.40973 32.6399 4.58104C34.225 3.66595 35.4105 2.22694 35.9773 0.530957C34.487 1.38323 32.8575 1.98567 31.157 2.30831C28.2828 -0.641096 23.4728 -0.782428 20.4166 1.98996C18.4452 3.77873 17.609 6.44262 18.2203 8.98659C12.1168 8.69107 6.42912 5.91012 2.5752 1.33612C0.56092 4.68097 1.58952 8.96232 4.92544 11.1108C3.71776 11.0766 2.53524 10.7625 1.48 10.1943C1.48 10.2243 1.48 10.2557 1.48 10.2871C1.48148 13.7733 4.02856 16.7755 7.5702 17.4651C6.4528 17.7591 5.28064 17.802 4.14252 17.5907C5.13708 20.5729 7.98756 22.6172 11.2347 22.6758C8.547 24.7129 5.22588 25.8193 1.80708 25.8165C1.20324 25.815 0.5994 25.7808 0 25.7108C3.47208 27.8594 7.511 29 11.6358 28.9943" fill="white"/>
</svg>
