<svg id="Layer_1" data-name="Layer 1" xmlns="http://www.w3.org/2000/svg" viewBox="0 0 84 84"><defs><style>.cls-1{fill:rgba(35, 16, 68, 0.25);}</style></defs><title>wasm-logo</title><path class="cls-1" d="M52,0V.45C52,5.77,47.32,10,42,10S32,5.77,32,.45V0H0V84H84V0ZM40.57,75,36.48,54.76H36.4L32,75H26.34L20,45.26h5.56L29.33,65.5h.07L34,45.26H39.2l4.12,20.49h.07l4.35-20.49H53.2L46.11,75Zm30.64,0-1.9-6.62h-10L57.84,75H52.27l7.2-29.74h8.78L77,75Z"/><polygon class="cls-1" points="67.95 63.5 60.39 63.5 62.82 52.59 65.16 52.59 67.95 63.5"/></svg>