<svg width="146" height="30" viewBox="0 0 146 30" fill="none" xmlns="http://www.w3.org/2000/svg">
<g clip-path="url(#clip0)">
<path d="M0 0H29.2182C29.2182 9.99878 29.2182 20.0012 29.2182 30H0V0ZM2.15177 4.70854C3.45521 10.8073 4.62394 16.939 5.88005 23.0488C6.10943 23.7805 5.96743 24.7463 6.67377 25.2366C7.94808 25.4415 9.25516 25.3902 10.5404 25.3024C11.2395 25.3244 11.4069 24.4976 11.5344 23.9671C12.4118 19.6171 13.3657 15.2817 14.2396 10.9317C14.3087 10.5293 14.4325 10.1378 14.6218 9.77561C15.7105 14.4439 16.6098 19.1524 17.6219 23.8354C17.7603 24.3329 17.7894 24.9476 18.2773 25.2512C19.6681 25.4195 21.0954 25.4341 22.4825 25.2402C22.9813 24.9439 23.0068 24.3329 23.1343 23.828C24.4195 17.4585 25.6174 11.0634 26.9754 4.70854C25.7484 4.71585 24.5251 4.7122 23.3017 4.7122C22.326 10.2549 21.5432 15.8341 20.4655 21.3585C19.2531 16.672 18.4411 11.872 17.3853 7.14146C17.145 6.33293 17.2542 5.15488 16.3731 4.74512C15.2954 4.67927 14.2104 4.67561 13.1327 4.74512C12.521 4.79634 12.3827 5.52439 12.2625 6.00732C11.2868 10.6976 10.2637 15.3768 9.30978 20.0671C9.21147 20.5024 9.06584 20.9195 8.902 21.3329C7.92259 15.8049 6.99416 10.2622 6.14948 4.7122C4.81691 4.70854 3.48434 4.71585 2.15177 4.70854Z" fill="#231044"/>
<path d="M58.1641 0H87.3822C87.3822 9.99878 87.3822 20.0012 87.3822 30H58.1641C58.1641 20.0012 58.1641 9.99878 58.1641 0ZM64.765 4.7122C64.765 11.572 64.765 18.4281 64.765 25.2878C66.1121 25.2878 67.4629 25.2878 68.8137 25.2878C68.8137 22.6061 68.8137 19.9207 68.8137 17.239C71.0091 17.2463 73.2046 17.2281 75.4001 17.2427C76.2011 17.1659 77.155 17.7402 77.1368 18.6256C77.2387 20.85 77.428 23.0671 77.5664 25.2878C78.8516 25.2878 80.1332 25.2878 81.4185 25.2915C81.0544 22.7744 81.5022 20.1732 80.7959 17.7073C80.4318 16.4159 79.0118 16.1268 77.905 15.8049C78.7278 15.3659 79.7837 15.3256 80.3808 14.5207C81.2473 13.4159 81.3092 11.9415 81.3129 10.5951C81.2983 9.02195 81.3347 7.29146 80.3408 5.97073C79.547 4.87317 78.0616 4.7122 76.8164 4.7122C72.8005 4.70854 68.7809 4.7122 64.765 4.7122Z" fill="#231044"/>
<path d="M116.418 0H146.001V30H116.418C116.418 20.0012 116.418 9.99878 116.418 0ZM123.019 4.7122C123.019 11.572 123.019 18.4281 123.019 25.2878C126.424 25.2805 129.824 25.3024 133.228 25.2768C135.326 25.2366 137.769 24.8451 139.032 22.9573C140.507 20.5866 140.285 17.6854 140.543 15.011C140.281 12.3329 140.514 9.42073 139.032 7.04268C137.856 5.27561 135.606 4.81098 133.629 4.7378C130.094 4.67927 126.555 4.72683 123.019 4.7122Z" fill="#231044"/>
<path d="M36.632 4.51116C41.3397 4.50019 46.0437 4.50019 50.7478 4.51116C50.766 5.73677 50.766 6.96604 50.7514 8.19531C49.0875 8.20628 47.4236 8.19897 45.7597 8.19897C45.767 12.7319 45.767 17.2685 45.7597 21.8014C47.4236 21.8014 49.0875 21.7941 50.7551 21.8087C50.7623 23.0343 50.766 24.2636 50.7478 25.4892C46.0437 25.5002 41.3397 25.5002 36.6357 25.4892C36.6175 24.2599 36.6175 23.0343 36.632 21.8051C38.2959 21.7941 39.9598 21.8014 41.6237 21.8014C41.6164 17.2685 41.6164 12.7319 41.6237 8.19897C39.9598 8.19897 38.2959 8.20628 36.632 8.19531C36.6175 6.96604 36.6175 5.74043 36.632 4.51116Z" fill="#231044"/>
<path d="M92.6031 4.5147C98.3703 4.4964 104.137 4.4964 109.908 4.5147C109.916 6.79031 109.908 9.06592 109.912 11.3415C108.663 11.3415 107.414 11.3415 106.165 11.3415C106.162 10.2915 106.162 9.24518 106.169 8.19884C103.912 8.2025 101.658 8.2025 99.4006 8.19884C99.3934 9.77201 99.397 11.3452 99.397 12.9184C101.217 12.9184 103.038 12.9184 104.858 12.9184C104.858 14.0854 104.858 15.2525 104.858 16.4196C103.038 16.4196 101.217 16.4196 99.397 16.4196C99.4043 18.2159 99.3788 20.0159 99.4152 21.8123C101.731 21.7866 104.046 21.8049 106.362 21.8013C106.358 20.6049 106.358 19.4086 106.362 18.2123C107.633 18.1976 108.903 18.1976 110.174 18.2086C110.174 20.6342 110.192 23.0598 110.163 25.4854C104.309 25.5037 98.4576 25.5037 92.6031 25.4854C92.5849 24.2598 92.5885 23.0342 92.5994 21.8086C93.5279 21.7976 94.4527 21.7976 95.3811 21.8049C95.3993 17.2684 95.3993 12.7318 95.3811 8.19518C94.4527 8.2025 93.5242 8.2025 92.5958 8.18421C92.5885 6.96226 92.5885 5.73665 92.6031 4.5147Z" fill="#231044"/>
<path d="M68.8135 8.09245C71.4131 8.13269 74.0163 8.01196 76.6087 8.14732C77.6099 8.86074 77.4096 10.2949 77.4497 11.3742C77.3987 12.3546 77.3805 13.9242 76.0807 14.001C73.6632 14.1254 71.2347 14.0193 68.8135 14.0522C68.8135 12.0656 68.8135 10.079 68.8135 8.09245Z" fill="#231044"/>
<path d="M127.068 8.09272C129.263 8.1037 131.459 8.07809 133.654 8.10004C134.634 8.08906 135.751 8.56833 136.061 9.57809C136.749 11.5537 136.458 13.6976 136.534 15.7537C136.476 17.3964 136.647 19.1305 135.952 20.6708C135.486 21.6659 134.28 21.9293 133.287 21.911C131.211 21.911 129.14 21.9037 127.068 21.9074C127.068 17.3013 127.068 12.6988 127.068 8.09272Z" fill="#231044"/>
</g>
<defs>
<clipPath id="clip0">
<rect width="146" height="30" fill="white"/>
</clipPath>
</defs>
</svg>
