<svg width="22" height="23" viewBox="0 0 22 23" fill="none" xmlns="http://www.w3.org/2000/svg">
<path d="M11.349 22.2363C17.2308 22.2363 21.9989 17.4682 21.9989 11.5864C21.9989 5.70464 17.2308 0.936523 11.349 0.936523C5.46722 0.936523 0.699097 5.70464 0.699097 11.5864C0.699097 17.4682 5.46722 22.2363 11.349 22.2363Z" fill="#231044"/>
<path opacity="0.1" d="M3.96746 3.63623C2.88482 4.60098 2.01061 5.77667 1.39841 7.09123C0.786217 8.40579 0.448933 9.83153 0.407236 11.2811C0.365539 12.7306 0.620307 14.1733 1.15592 15.5209C1.69154 16.8685 2.49672 18.0925 3.52211 19.1179C4.54751 20.1433 5.7715 20.9485 7.11908 21.4841C8.46666 22.0197 9.90943 22.2745 11.359 22.2328C12.8085 22.1911 14.2342 21.8538 15.5488 21.2416C16.8633 20.6294 18.039 19.7552 19.0038 18.6725L3.96746 3.63623Z" fill="white"/>
<path d="M10.8268 15.4304C10.1023 15.7829 9.3023 15.952 8.49713 15.923C7.96503 15.9463 7.43409 15.8556 6.93989 15.657C6.44569 15.4584 5.99964 15.1565 5.63164 14.7714C4.89187 13.9422 4.50603 12.8563 4.55667 11.7462C4.5309 11.1507 4.62483 10.5562 4.83291 9.99767C5.04099 9.43917 5.35899 8.92808 5.76809 8.49465C6.16768 8.08585 6.64814 7.76489 7.17879 7.55229C7.70944 7.33968 8.2786 7.24011 8.84991 7.25993C9.52472 7.23418 10.1976 7.34746 10.8268 7.59274V8.64109C10.2165 8.30191 9.52804 8.12864 8.82994 8.13855C8.39527 8.12414 7.96255 8.2028 7.56076 8.36925C7.15897 8.53571 6.7974 8.78611 6.50027 9.10369C5.87709 9.81409 5.55482 10.7391 5.60169 11.683C5.55559 12.5749 5.85609 13.4502 6.44037 14.1258C6.7205 14.427 7.06239 14.6641 7.44265 14.8209C7.82291 14.9777 8.23256 15.0505 8.64357 15.0344C9.41049 15.0534 10.1676 14.8587 10.8301 14.4719L10.8268 15.4304Z" fill="white"/>
<path d="M18.2592 9.7427L18.1261 10.3617H16.5952L16.2291 12.119H17.8731L17.7167 12.738H16.1059L15.5901 15.0676H14.8546L15.3571 12.738H13.8927L13.4002 15.0676H12.6813L13.1739 12.738H11.6296L11.7461 12.119H13.297L13.6531 10.3651H12.0323L12.1555 9.74603H13.7763L14.2688 7.39307H15.011L14.5184 9.74603H15.9928L16.4953 7.39307H17.2142L16.7216 9.74603L18.2592 9.7427ZM15.873 10.3617H14.3953L14.0126 12.119H15.4969L15.873 10.3617Z" fill="white"/>
</svg>
