<svg width="21" height="22" viewBox="0 0 21 22" fill="none" xmlns="http://www.w3.org/2000/svg">
<path d="M20.0054 6.42202C20.0053 6.0547 19.9268 5.73016 19.7681 5.45165C19.6122 5.1777 19.3787 4.94819 19.0656 4.76661C16.4807 3.27472 13.8933 1.78738 11.3093 0.293979C10.6127 -0.108535 9.93717 -0.0938969 9.24568 0.314457C8.21683 0.921831 3.06568 3.87588 1.53071 4.76578C0.898612 5.13211 0.590981 5.69269 0.59083 6.42134C0.589844 9.42165 0.59083 12.4218 0.589844 15.4222C0.589995 15.7814 0.665159 16.0997 0.816851 16.3741C0.97279 16.6562 1.2095 16.8921 1.52988 17.0778C3.06492 17.9677 8.21676 20.9215 9.24538 21.529C9.93717 21.9376 10.6127 21.9522 11.3095 21.5495C13.8936 20.056 16.4812 18.5687 19.0664 17.0769C19.3868 16.8913 19.6235 16.6552 19.7795 16.3733C19.9309 16.0989 20.0062 15.7806 20.0064 15.4214C20.0064 15.4214 20.0064 9.42241 20.0054 6.42202Z" fill="#231044"/>
<path opacity="0.2" d="M11.2926 0.313757C10.5971 -0.0877716 9.92278 -0.0731333 9.23243 0.334159C8.20525 0.93994 3.06252 3.88633 1.53005 4.77395C0.898936 5.1393 0.591836 5.69844 0.591684 6.42519C0.590698 9.41769 0.591684 12.4101 0.590698 15.4027C0.59085 15.761 0.665862 16.0784 0.817326 16.3521C0.973037 16.6335 1.20937 16.8688 1.52922 17.0539C2.03849 17.3484 2.54815 17.6421 3.05819 17.9353L17.2484 3.7451C15.2629 2.6018 13.2768 1.45941 11.2926 0.313757Z" fill="white"/>
<path d="M12.3058 9.55419L15.3274 9.5755C15.3274 8.31653 14.053 5.2334 10.3994 5.2334C8.07166 5.2334 4.94226 6.7133 4.94226 10.9681C4.94226 15.2228 8.01 16.6103 10.3994 16.6103C14.2689 16.6103 15.1937 13.9328 15.1937 12.4196L12.311 12.2548C12.311 12.2548 12.3881 14.005 10.3841 14.005C8.53417 14.005 8.22548 11.7389 8.22548 10.9681C8.22548 9.79652 8.6421 7.91576 10.3841 7.91576C12.1261 7.91576 12.3058 9.55419 12.3058 9.55419Z" fill="white"/>
</svg>
