<svg width="20" height="22" viewBox="0 0 20 22" fill="none" xmlns="http://www.w3.org/2000/svg">
<path d="M19.6671 16.3873C19.8194 16.1234 19.9141 15.8261 19.9141 15.5591V6.29059C19.9141 6.02358 19.8195 5.7263 19.6671 5.4624L10.2058 10.9249L19.6671 16.3873Z" fill="#231044"/>
<path opacity="0.8" d="M11.0458 21.6495L19.0726 17.0153C19.3038 16.8818 19.5139 16.6512 19.6663 16.3873L10.205 10.9248L0.743774 16.3873C0.896125 16.6512 1.10634 16.8818 1.3375 17.0153L9.36428 21.6495C9.82666 21.9165 10.5834 21.9165 11.0458 21.6495Z" fill="#231044"/>
<path opacity="0.7" d="M19.666 5.46246C19.5136 5.1985 19.3034 4.96797 19.0723 4.83447L11.0455 0.200257C10.5831 -0.0667523 9.82637 -0.0667523 9.36399 0.200257L1.33721 4.83447C0.874765 5.10141 0.49646 5.75675 0.49646 6.29071V15.5592C0.49646 15.8262 0.591068 16.1235 0.743482 16.3874L10.2047 10.925L19.666 5.46246Z" fill="#231044"/>
<path d="M10.2059 17.397C6.63717 17.397 3.73376 14.4936 3.73376 10.9248C3.73376 7.35605 6.63717 4.45264 10.2059 4.45264C12.5088 4.45264 14.6565 5.69187 15.8108 7.6867L13.0098 9.30754C12.4321 8.30904 11.3576 7.68873 10.2059 7.68873C8.42153 7.68873 6.96986 9.1404 6.96986 10.9248C6.96986 12.7092 8.42153 14.1609 10.2059 14.1609C11.3577 14.1609 12.4322 13.5406 13.01 12.5419L15.811 14.1627C14.6567 16.1577 12.5089 17.397 10.2059 17.397Z" fill="white"/>
<path d="M16.6773 10.5653H15.9581V9.84619H15.2391V10.5653H14.5199V11.2844H15.2391V12.0036H15.9581V11.2844H16.6773V10.5653Z" fill="white"/>
<path d="M19.3747 10.5653H18.6555V9.84619H17.9365V10.5653H17.2173V11.2844H17.9365V12.0036H18.6555V11.2844H19.3747V10.5653Z" fill="white"/>
</svg>
