<svg width="33" height="13" viewBox="0 0 33 13" fill="none" xmlns="http://www.w3.org/2000/svg">
<g clip-path="url(#clip0)">
<path d="M2.43747 4.27187C2.37894 4.27187 2.35996 4.23391 2.39634 4.18804L2.72693 3.76571C2.76331 3.71984 2.84082 3.68187 2.89935 3.68187L8.55101 3.67871C8.60954 3.67871 8.63168 3.71826 8.60005 3.76887L8.33747 4.17855C8.30584 4.22759 8.23149 4.26871 8.17297 4.26871L2.43747 4.27187Z" fill="#231044"/>
<path d="M0.0581964 5.72707C-0.000329052 5.72707 -0.0193103 5.68911 0.0170704 5.64324L0.34766 5.2209C0.384041 5.17503 0.461548 5.13707 0.520073 5.13707L7.73769 5.13232C7.79622 5.13232 7.82943 5.1782 7.81045 5.23356L7.68233 5.62109C7.66335 5.67645 7.60166 5.72232 7.54313 5.72232L0.0581964 5.72707Z" fill="#231044"/>
<path d="M3.89142 7.17764C3.8329 7.17764 3.80759 7.13651 3.83606 7.08431L4.06067 6.68096C4.08914 6.63034 4.16032 6.58764 4.21885 6.58764L7.38555 6.58447C7.44408 6.58447 7.48678 6.63193 7.48204 6.69045L7.44566 7.06849C7.43933 7.12702 7.38713 7.17447 7.32861 7.17447L3.89142 7.17764Z" fill="#231044"/>
<path d="M20.3088 3.99205C19.3155 4.23723 18.6321 4.44127 17.6546 4.68803C17.4126 4.74814 17.3952 4.77186 17.1927 4.53618C16.9539 4.25937 16.7862 4.09961 16.4509 3.93511C15.4544 3.44476 14.4879 3.58079 13.5958 4.16605C12.5265 4.86835 11.965 5.88227 11.9776 7.17932C11.9903 8.44473 12.8682 9.49187 14.1146 9.66586C15.1839 9.81455 16.0887 9.43018 16.8068 8.62664C16.957 8.45897 17.0788 8.26599 17.2402 8.04771C16.6628 8.04771 15.9621 8.04771 14.1905 8.04771C13.8599 8.04771 13.784 7.84524 13.8963 7.57318C14.0956 7.09074 14.4816 6.25556 14.703 5.84589C14.7552 5.7494 14.8644 5.58648 15.0921 5.58648C15.8941 5.58648 18.8726 5.58648 20.8529 5.58648C20.8245 6.01672 20.8245 6.44696 20.7628 6.86929C20.5951 8.01291 20.1617 9.05372 19.4657 9.97589C18.3316 11.4802 16.8463 12.4134 14.964 12.6602C13.417 12.8626 11.9776 12.5605 10.717 11.6099C9.55278 10.7304 8.88053 9.54881 8.70653 8.10149C8.49932 6.37262 9.00232 4.83355 10.0447 3.46849C11.1693 1.99586 12.6499 1.0642 14.4752 0.733606C15.9589 0.464705 17.3794 0.646608 18.6622 1.50235C19.4989 2.06071 20.0937 2.8168 20.4939 3.73897C20.5524 3.87026 20.4876 3.94934 20.3088 3.99205Z" fill="#231044"/>
<path d="M25.5339 12.7439C24.0866 12.717 22.7801 12.301 21.6807 11.352C20.7475 10.5468 20.167 9.52342 19.9724 8.29755C19.6893 6.51332 20.1828 4.92996 21.2616 3.51903C22.4194 2.00527 23.813 1.20964 25.6858 0.874305C27.296 0.586423 28.8177 0.752509 30.1891 1.68892C31.4418 2.54465 32.2201 3.69618 32.4162 5.21152C32.6914 7.339 32.0666 9.08369 30.5956 10.5769C29.5453 11.643 28.2672 12.3089 26.8009 12.5984C26.3833 12.6791 25.9563 12.6965 25.5339 12.7439ZM29.308 6.34881C29.2906 6.14318 29.2906 5.98026 29.2622 5.82366C28.9806 4.25929 27.5412 3.37983 26.0338 3.71516C24.5548 4.04417 23.6121 4.97742 23.2688 6.46586C22.9841 7.70281 23.5899 8.94924 24.7193 9.45224C25.5877 9.83978 26.464 9.77967 27.3008 9.35576C28.544 8.72463 29.2258 7.70913 29.308 6.34881Z" fill="#231044"/>
</g>
<defs>
<clipPath id="clip0">
<rect width="32.4769" height="12.1259" fill="white" transform="translate(0 0.618164)"/>
</clipPath>
</defs>
</svg>
