<svg width="31" height="16" viewBox="0 0 31 16" fill="none" xmlns="http://www.w3.org/2000/svg">
<path d="M3.27857 3.82324H7.59762C8.86529 3.83388 9.7839 4.19938 10.3534 4.91912C10.923 5.63886 11.1109 6.62193 10.9175 7.86832C10.8424 8.43785 10.6757 8.99643 10.4179 9.54437C10.1707 10.0923 9.82708 10.5864 9.38648 11.027C8.84918 11.5856 8.27448 11.9402 7.66208 12.0907C7.04968 12.2412 6.41568 12.3163 5.76041 12.3163H3.82651L3.2141 15.3783H0.973999L3.27857 3.82324ZM5.16412 5.66045L4.19717 10.4952C4.26163 10.5058 4.3261 10.5113 4.39056 10.5113C4.46567 10.5113 4.54108 10.5113 4.61618 10.5113C5.6476 10.522 6.50721 10.4201 7.19472 10.2051C7.88223 9.9795 8.34442 9.19529 8.58068 7.8522C8.77407 6.7241 8.58068 6.07399 8.00051 5.90219C7.43098 5.73039 6.71672 5.64981 5.8571 5.66045C5.72818 5.67109 5.60472 5.67657 5.48644 5.67657C5.3791 5.67657 5.26629 5.67657 5.14801 5.67657L5.16412 5.66045Z" fill="#231044"/>
<path d="M13.4718 0.745117H15.6958L15.0673 3.82324H17.0656C18.1615 3.84483 18.978 4.07046 19.5153 4.50011C20.0632 4.92976 20.2243 5.7465 19.9987 6.94972L18.919 12.3163H16.6627L17.6942 7.19146C17.8015 6.65416 17.7693 6.27285 17.5975 6.04723C17.4257 5.82161 17.055 5.7088 16.4855 5.7088L14.6966 5.69268L13.3751 12.3163H11.1511L13.4718 0.745117Z" fill="#231044"/>
<path d="M22.3873 3.82324H26.7064C27.9741 3.83388 28.8927 4.19938 29.4622 4.91912C30.0317 5.63886 30.2196 6.62193 30.0262 7.86832C29.9511 8.43785 29.7845 8.99643 29.5267 9.54437C29.2794 10.0923 28.9358 10.5864 28.4952 11.027C27.9579 11.5856 27.3832 11.9402 26.7708 12.0907C26.1584 12.2412 25.5244 12.3163 24.8692 12.3163H22.9353L22.3229 15.3783H20.0828L22.3873 3.82324ZM24.2729 5.66045L23.3059 10.4952C23.3704 10.5058 23.4349 10.5113 23.4993 10.5113C23.5744 10.5113 23.6498 10.5113 23.7249 10.5113C24.7564 10.522 25.616 10.4201 26.3035 10.2051C26.991 9.9795 27.4532 9.19529 27.6894 7.8522C27.8828 6.7241 27.6894 6.07399 27.1093 5.90219C26.5397 5.73039 25.8255 5.64981 24.9659 5.66045C24.8369 5.67109 24.7135 5.67657 24.5952 5.67657C24.4879 5.67657 24.3751 5.67657 24.2568 5.67657L24.2729 5.66045Z" fill="#231044"/>
</svg>
