<svg width="21" height="22" viewBox="0 0 21 22" fill="none" xmlns="http://www.w3.org/2000/svg">
<path d="M10.161 0.936523C5.03286 0.936523 5.35219 3.15309 5.35219 3.15309V5.46358H10.2549V6.1586H3.39861C3.39861 6.1586 0.111328 5.78291 0.111328 10.9674C0.111328 16.1519 2.98535 15.9641 2.98535 15.9641H4.69474V13.5597C4.69474 13.5597 4.60081 10.6857 7.51241 10.6857C10.424 10.6857 12.3588 10.6857 12.3588 10.6857C12.3588 10.6857 15.0825 10.7232 15.0825 8.05583C15.0825 5.38844 15.0825 3.6227 15.0825 3.6227C15.0825 3.6227 15.5146 0.936523 10.161 0.936523ZM7.45605 2.47685C7.94445 2.47685 8.33892 2.87132 8.33892 3.35972C8.33892 3.84811 7.94445 4.24259 7.45605 4.24259C6.96766 4.24259 6.57318 3.84811 6.57318 3.35972C6.57318 2.87132 6.96766 2.47685 7.45605 2.47685Z" fill="#231044"/>
<path d="M10.2934 21.0358C15.4216 21.0358 15.1022 18.8192 15.1022 18.8192V16.5087H10.2183V15.8137H17.0558C17.0558 15.8137 20.3431 16.1894 20.3431 11.0048C20.3431 5.82034 17.4691 6.00818 17.4691 6.00818H15.7597V8.41259C15.7597 8.41259 15.8536 11.2866 12.942 11.2866C10.0304 11.2866 8.09562 11.2866 8.09562 11.2866C8.09562 11.2866 5.37187 11.249 5.37187 13.9164C5.37187 16.6026 5.37187 18.3496 5.37187 18.3496C5.37187 18.3496 4.93983 21.0358 10.2934 21.0358ZM12.9984 19.4954C12.51 19.4954 12.1155 19.1009 12.1155 18.6126C12.1155 18.1242 12.51 17.7297 12.9984 17.7297C13.4868 17.7297 13.8812 18.1242 13.8812 18.6126C13.8812 19.1009 13.4868 19.4954 12.9984 19.4954Z" fill="#231044"/>
</svg>
