<svg width="21" height="21" viewBox="0 0 21 21" fill="none" xmlns="http://www.w3.org/2000/svg">
<path d="M2.78765 13.4259C2.64795 13.0938 2.5101 12.7663 2.37225 12.4388C2.02578 11.6154 1.68024 10.792 1.33238 9.96909C1.31572 9.92931 1.31804 9.90109 1.33932 9.86547C2.04382 8.65722 2.7474 7.4485 3.45237 6.24071C3.48568 6.18381 3.52823 6.12969 3.57634 6.08482C4.85213 4.89415 6.12885 3.7044 7.40741 2.5165C7.46431 2.46376 7.53647 2.41982 7.60956 2.39253C8.69106 1.9924 9.77396 1.59597 10.8559 1.19769C10.8929 1.18381 10.9198 1.18566 10.9531 1.20925C11.8583 1.84391 12.7645 2.47718 13.6716 3.10998C13.7063 3.1345 13.716 3.15485 13.7026 3.19602C13.2451 4.64528 12.7886 6.09454 12.3306 7.54379C12.3214 7.57386 12.3015 7.60393 12.2784 7.62567C10.5557 9.22804 8.83215 10.8295 7.10812 12.4305C7.08499 12.4517 7.05354 12.4702 7.02301 12.4772C5.62232 12.7927 4.22164 13.1072 2.82095 13.4213C2.81263 13.4227 2.80384 13.4236 2.78765 13.4259Z" fill="#231044"/>
<path d="M5.86768 20.3687C6.45099 18.0512 7.03337 15.7378 7.61715 13.4185C9.83428 14.2738 12.0436 15.1263 14.2741 15.9862C14.2459 16.0057 14.2265 16.0163 14.2103 16.0306C13.398 16.7601 12.5533 17.4484 11.6457 18.0572C10.3413 18.9328 8.94891 19.6235 7.4298 20.044C6.93022 20.1823 6.42369 20.2891 5.91116 20.3682C5.89867 20.3705 5.88525 20.3687 5.86768 20.3687Z" fill="#231044"/>
<path d="M13.287 8.25162C15.475 8.20258 17.6528 8.15401 19.8417 8.10498C19.7691 8.29186 19.7029 8.47042 19.6303 8.6462C19.0021 10.1704 18.1376 11.5544 17.1305 12.8543C16.6064 13.5306 16.0453 14.174 15.4704 14.8068C15.4643 14.8133 15.4611 14.8221 15.4454 14.848C14.7233 12.6401 14.0072 10.4526 13.287 8.25162Z" fill="#231044"/>
<path d="M8.09155 12.686C9.56348 11.3177 11.0271 9.95769 12.4985 8.58984C13.222 10.8014 13.9427 13.0038 14.6689 15.2232C12.4712 14.3753 10.286 13.5325 8.09155 12.686Z" fill="#231044"/>
<path d="M20.1459 9.63466C19.9081 12.7478 19.6703 15.861 19.4321 18.9741C19.3738 18.8039 19.2253 18.7151 19.1032 18.6064C18.0208 17.6433 16.9365 16.682 15.8531 15.7203C15.8434 15.7115 15.8337 15.7023 15.8198 15.6889C15.836 15.6704 15.8508 15.6519 15.867 15.6343C16.4452 15.008 17.0123 14.3719 17.5462 13.7063C18.4584 12.5679 19.2716 11.3647 19.9257 10.0584C19.9964 9.9173 20.063 9.77436 20.131 9.63281C20.1361 9.63374 20.1408 9.6342 20.1459 9.63466Z" fill="#231044"/>
<path d="M20.2202 6.81796C18.4652 5.54356 16.7217 4.27795 14.9713 3.00678C14.9907 2.99476 15.0023 2.98689 15.0148 2.97995C16.0542 2.40173 17.0936 1.82351 18.1335 1.24621C18.1497 1.23742 18.1761 1.23557 18.1932 1.24251C19.1378 1.62182 19.8228 2.2662 20.1947 3.22327C20.3331 3.57945 20.4108 3.95044 20.4538 4.33022C20.5264 4.96534 20.4589 5.5912 20.3391 6.21383C20.3016 6.40997 20.2623 6.60564 20.2202 6.81796Z" fill="#231044"/>
<path d="M9.63684 20.172C11.7351 19.2247 13.5234 17.8383 15.197 16.2817C15.3376 16.4066 15.4741 16.5274 15.6106 16.6481C16.6426 17.564 17.6746 18.4799 18.7061 19.3967C18.7839 19.4657 18.8713 19.5124 18.973 19.5383C15.8608 19.7497 12.7486 19.9611 9.63684 20.172Z" fill="#231044"/>
<path d="M13.276 7.39611C13.6669 6.15409 14.055 4.92132 14.4449 3.68115C16.0843 4.87136 17.7177 6.05741 19.3515 7.24393C19.3506 7.24948 19.3496 7.25503 19.3487 7.26058C17.3277 7.30591 15.3063 7.35078 13.276 7.39611Z" fill="#231044"/>
<path d="M5.08074 19.9186C4.41879 18.0262 3.7573 16.1338 3.09351 14.2349C4.30823 13.9624 5.51464 13.6918 6.73353 13.4185C6.18584 15.5935 5.64138 17.7565 5.09693 19.9191C5.09138 19.9191 5.08583 19.9186 5.08074 19.9186Z" fill="#231044"/>
<path d="M2.43982 14.9551C3.07818 16.7809 3.71376 18.5974 4.3535 20.4269C4.2485 20.4121 4.15321 20.4001 4.05838 20.3848C3.60598 20.3108 3.17162 20.1813 2.76316 19.9685C2.15025 19.6493 1.68674 19.1807 1.36571 18.5706C1.18762 18.2324 1.06596 17.873 0.983163 17.5006C0.978075 17.4775 0.983163 17.4465 0.99519 17.4262C1.46656 16.6148 1.93931 15.8044 2.4116 14.9944C2.41808 14.9833 2.42641 14.9736 2.43982 14.9551Z" fill="#231044"/>
<path d="M11.9685 0.872559C13.6611 0.872559 15.3384 0.872559 17.0282 0.872559C17.0069 0.888286 16.9953 0.898926 16.9815 0.906789C16.0743 1.41146 15.1668 1.91567 14.2597 2.42034C14.231 2.43653 14.2092 2.44394 14.1764 2.42127C13.4497 1.91151 12.722 1.4036 11.9944 0.895225C11.9898 0.891524 11.9852 0.886436 11.9685 0.872559Z" fill="#231044"/>
<path d="M0.83313 15.9982C0.83313 14.3274 0.83313 12.669 0.83313 10.9922C0.849783 11.0273 0.859497 11.0458 0.867823 11.0653C1.25731 11.9914 1.64588 12.917 2.03583 13.8426C2.0511 13.8791 2.05757 13.9074 2.03444 13.9467C1.6431 14.6142 1.25361 15.2831 0.864123 15.9515C0.856721 15.964 0.847932 15.976 0.83313 15.9982Z" fill="#231044"/>
</svg>
