<svg width="24" height="23" viewBox="0 0 24 23" fill="none" xmlns="http://www.w3.org/2000/svg">
<path d="M23.4655 11.0486L22.5145 10.4599C22.5065 10.3673 22.4974 10.2749 22.4875 10.1829L23.3047 9.42064C23.3878 9.34315 23.4251 9.22844 23.4026 9.11741C23.3807 9.00595 23.3026 8.91418 23.1963 8.87458L22.1516 8.48392C22.1254 8.39345 22.0979 8.30363 22.0698 8.21424L22.7214 7.30913C22.7879 7.21714 22.8015 7.09745 22.7582 6.99249C22.715 6.88795 22.6204 6.81306 22.5085 6.79467L21.4068 6.61546C21.364 6.53192 21.3194 6.44967 21.2744 6.36808L21.7373 5.35193C21.7847 5.24848 21.775 5.12814 21.7118 5.03421C21.6488 4.93984 21.5421 4.88465 21.4283 4.88898L20.3102 4.92794C20.2524 4.85565 20.1935 4.78401 20.1336 4.71367L20.3905 3.62459C20.4164 3.51399 20.3838 3.3982 20.3033 3.3179C20.2234 3.23782 20.1074 3.20471 19.9968 3.23068L18.9079 3.48737C18.8374 3.42763 18.7657 3.36855 18.6932 3.31076L18.7324 2.19267C18.7367 2.07948 18.6815 1.97191 18.5872 1.90915C18.4926 1.84595 18.3729 1.83643 18.2697 1.88339L17.2537 2.34656C17.1717 2.30154 17.0895 2.25695 17.0063 2.21388L16.8267 1.11203C16.8085 1.00035 16.7336 0.905551 16.6289 0.862265C16.5244 0.818762 16.4044 0.83283 16.3125 0.899058L15.4067 1.55074C15.3175 1.52238 15.2279 1.49511 15.1375 1.46914L14.7468 0.424207C14.7072 0.317722 14.6154 0.23959 14.504 0.217514C14.3927 0.195654 14.2782 0.232664 14.201 0.315341L13.4387 1.13324C13.3467 1.12307 13.2541 1.11376 13.1616 1.10618L12.573 0.154965C12.5134 0.058653 12.408 0 12.2946 0C12.1812 0 12.0758 0.058653 12.0165 0.154965L11.4278 1.10618C11.3352 1.11376 11.2425 1.12307 11.1506 1.13324L10.3881 0.315341C10.3108 0.232664 10.1961 0.195654 10.0851 0.217514C9.9736 0.239806 9.88184 0.317722 9.84223 0.424207L9.45157 1.46914C9.3611 1.49511 9.2715 1.5226 9.18211 1.55074L8.27656 0.899058C8.18458 0.832614 8.06467 0.818546 7.95992 0.862265C7.85538 0.905551 7.78028 1.00035 7.7621 1.11203L7.58246 2.21388C7.49935 2.25695 7.41711 2.30132 7.33508 2.34656L6.31915 1.88339C6.21591 1.83621 6.09557 1.84595 6.00164 1.90915C5.90728 1.97191 5.85209 2.07948 5.85642 2.19267L5.89538 3.31076C5.82309 3.36855 5.75145 3.42763 5.68068 3.48737L4.5918 3.23068C4.48121 3.20492 4.3652 3.23782 4.28512 3.3179C4.20461 3.3982 4.17193 3.51399 4.1979 3.62459L4.45437 4.71367C4.39485 4.78423 4.33598 4.85565 4.2782 4.92794L3.16011 4.88898C3.04735 4.88574 2.93956 4.93984 2.87658 5.03421C2.81338 5.12814 2.80386 5.24848 2.85083 5.35193L3.31399 6.36808C3.26897 6.44967 3.22439 6.53192 3.18132 6.61546L2.07968 6.79467C1.96778 6.81285 1.87342 6.88773 1.82992 6.99249C1.78663 7.09745 1.8007 7.21714 1.86671 7.30913L2.51839 8.21424C2.49003 8.30363 2.46255 8.39345 2.43658 8.48392L1.39164 8.87458C1.28559 8.91418 1.20746 9.00595 1.18538 9.11741C1.16331 9.22866 1.20032 9.34315 1.28321 9.42064L2.10067 10.1829C2.0905 10.2749 2.08141 10.3675 2.07362 10.4599L1.12262 11.0486C1.0263 11.1082 0.967651 11.2133 0.967651 11.327C0.967651 11.4406 1.0263 11.5458 1.12262 11.6051L2.07362 12.1938C2.08141 12.2864 2.0905 12.3788 2.10067 12.4708L1.28321 13.2333C1.20032 13.3106 1.16331 13.4253 1.18538 13.5363C1.20746 13.6478 1.28559 13.7393 1.39164 13.7791L2.43658 14.1698C2.46255 14.2603 2.49003 14.3501 2.51839 14.4395L1.86671 15.3448C1.80048 15.437 1.78641 15.5567 1.82992 15.6612C1.87342 15.7662 1.968 15.8411 2.0799 15.8591L3.18132 16.0383C3.22439 16.1218 3.26854 16.204 3.31399 16.2861L2.85083 17.3018C2.80364 17.405 2.81338 17.5251 2.87658 17.6195C2.93978 17.7141 3.04735 17.7693 3.16011 17.7647L4.27776 17.7256C4.33598 17.7983 4.39464 17.8695 4.45437 17.9403L4.1979 19.0296C4.17193 19.1399 4.20461 19.2553 4.28512 19.3356C4.36498 19.4163 4.48121 19.4486 4.5918 19.4226L5.68068 19.1661C5.75145 19.2263 5.82309 19.2847 5.89538 19.3423L5.85642 20.4606C5.85209 20.5738 5.90728 20.6812 6.00164 20.7444C6.09557 20.8073 6.21591 20.8169 6.31915 20.7697L7.33508 20.3067C7.41689 20.3522 7.49914 20.3963 7.58246 20.4394L7.7621 21.5406C7.78028 21.6527 7.85517 21.7475 7.95992 21.7906C8.06446 21.8341 8.18458 21.82 8.27656 21.754L9.18168 21.1019C9.27106 21.1303 9.36088 21.158 9.45135 21.1839L9.84201 22.2284C9.88162 22.3345 9.97339 22.413 10.0848 22.4347C10.1961 22.4572 10.3106 22.42 10.3879 22.3369L11.1503 21.5194C11.2423 21.53 11.335 21.5389 11.4276 21.5471L12.0163 22.4981C12.0756 22.594 12.181 22.6531 12.2944 22.6531C12.4078 22.6531 12.5132 22.5942 12.5727 22.4981L13.1614 21.5471C13.2541 21.5389 13.3465 21.53 13.4385 21.5194L14.2007 22.3369C14.278 22.42 14.3927 22.4572 14.5037 22.4347C14.6152 22.4128 14.707 22.3345 14.7466 22.2284L15.1372 21.1839C15.2277 21.158 15.3175 21.1303 15.4069 21.1019L16.3122 21.754C16.4042 21.82 16.5241 21.8341 16.6287 21.7906C16.7334 21.7475 16.8083 21.6525 16.8265 21.5406L17.0061 20.4394C17.0892 20.3963 17.1715 20.3515 17.2535 20.3067L18.2694 20.7697C18.3727 20.8169 18.4928 20.8073 18.5869 20.7444C18.6813 20.6812 18.7363 20.574 18.7322 20.4606L18.6932 19.3423C18.7655 19.2845 18.8371 19.2263 18.9077 19.1661L19.9966 19.4226C20.1072 19.4486 20.2232 19.4163 20.303 19.3356C20.3835 19.2553 20.4162 19.1399 20.3903 19.0296L20.1338 17.9403C20.1935 17.8695 20.2524 17.7983 20.31 17.7256L21.4281 17.7647C21.5408 17.7693 21.6486 17.7141 21.7116 17.6195C21.7748 17.5251 21.7845 17.405 21.7371 17.3018L21.2742 16.2861C21.3194 16.204 21.3638 16.1218 21.4066 16.0383L22.5083 15.8591C22.6204 15.8411 22.7147 15.7662 22.758 15.6612C22.8013 15.5567 22.7877 15.437 22.7212 15.3448L22.0696 14.4395C22.0977 14.3501 22.1252 14.2603 22.1514 14.1698L23.1961 13.7791C23.3024 13.7393 23.3807 13.6478 23.4023 13.5363C23.4249 13.4251 23.3876 13.3106 23.3045 13.2333L22.4873 12.4708C22.4972 12.3788 22.5063 12.2862 22.5143 12.1938L23.4653 11.6051C23.5616 11.5458 23.6203 11.4404 23.6203 11.327C23.6203 11.2136 23.5619 11.1082 23.4655 11.0486ZM17.1005 18.9378C16.7373 18.8595 16.5064 18.5015 16.5843 18.1372C16.662 17.7734 17.0198 17.5418 17.3827 17.6202C17.7459 17.6979 17.9773 18.0565 17.8993 18.4201C17.8214 18.7837 17.4634 19.0155 17.1005 18.9378ZM16.7774 16.7523C16.446 16.6813 16.1201 16.8921 16.0491 17.2241L15.7114 18.7997C14.6695 19.2726 13.5125 19.5354 12.294 19.5354C11.0475 19.5354 9.86539 19.2596 8.80487 18.7666L8.46745 17.191C8.39646 16.8594 8.07052 16.6482 7.73938 16.7194L6.34837 17.018C6.09016 16.7523 5.84992 16.4692 5.62916 16.1703H12.3974C12.474 16.1703 12.5251 16.1564 12.5251 16.0867V13.6926C12.5251 13.6229 12.474 13.609 12.3974 13.609H10.4179V12.0914H12.5589C12.7543 12.0914 13.6038 12.1472 13.8754 13.2331C13.9605 13.567 14.1473 14.6533 14.275 15.0011C14.4022 15.3911 14.9204 16.1703 15.4725 16.1703H18.8452C18.8835 16.1703 18.9244 16.166 18.9674 16.1582C18.7335 16.4761 18.4768 16.7769 18.2004 17.0581L16.7774 16.7523ZM7.41624 18.9049C7.05307 18.9833 6.69552 18.7517 6.61739 18.3878C6.53969 18.0234 6.77063 17.6656 7.1338 17.5873C7.49697 17.5096 7.85473 17.7411 7.93265 18.105C8.01035 18.4686 7.7792 18.827 7.41624 18.9049ZM4.84871 8.49344C4.99935 8.83346 4.84611 9.23191 4.50653 9.38233C4.16695 9.53318 3.76958 9.37973 3.61894 9.0395C3.46831 8.69927 3.62154 8.30147 3.96112 8.15061C4.30092 7.99998 4.69807 8.15321 4.84871 8.49344ZM4.0596 10.3641L5.50861 9.72018C5.81811 9.58274 5.95792 9.22 5.82049 8.90986L5.52203 8.23502H6.69574V13.5255H4.32776C4.12236 12.8035 4.0122 12.0414 4.0122 11.2538C4.0122 10.9532 4.02843 10.656 4.0596 10.3641ZM10.4184 9.85025V8.29086H13.2134C13.3577 8.29086 14.2328 8.45773 14.2328 9.112C14.2328 9.65525 13.5616 9.85004 13.0097 9.85004H10.4184V9.85025ZM20.576 11.2538C20.576 11.4607 20.5684 11.6655 20.5532 11.8687H19.7035C19.6185 11.8687 19.5843 11.9245 19.5843 12.0079V12.3981C19.5843 13.3166 19.0663 13.5164 18.6125 13.5673C18.1803 13.616 17.7011 13.3863 17.642 13.1218C17.387 11.6878 16.9622 11.3815 16.2913 10.8523C17.1239 10.3236 17.9902 9.54357 17.9902 8.4995C17.9902 7.37211 17.2174 6.66199 16.6906 6.31375C15.9515 5.82657 15.1331 5.72895 14.9124 5.72895H6.12458C7.31625 4.39898 8.93127 3.45685 10.758 3.11402L11.7938 4.20073C12.028 4.44595 12.4158 4.45504 12.6608 4.22064L13.8198 3.11208C16.2484 3.5642 18.3045 5.07598 19.4895 7.15005L18.696 8.9421C18.559 9.25225 18.6988 9.61499 19.0081 9.75243L20.5357 10.4309C20.5621 10.7021 20.576 10.9761 20.576 11.2538ZM11.7942 2.18964C12.0626 1.93252 12.4883 1.94269 12.7452 2.2115C13.0017 2.48096 12.992 2.90711 12.7229 3.16402C12.4546 3.42114 12.0288 3.41118 11.7719 3.14194C11.5157 2.87292 11.5254 2.44676 11.7942 2.18964ZM19.668 8.52612C19.8184 8.18611 20.2158 8.03266 20.5554 8.18351C20.895 8.33415 21.0482 8.73238 20.8976 9.0724C20.7472 9.41263 20.3498 9.56608 20.01 9.41523C19.6708 9.26459 19.5176 8.86657 19.668 8.52612Z" fill="#231044"/>
</svg>
